%TF.GenerationSoftware,KiCad,Pcbnew,10.0.6-10.0.6~ubuntu24.04.1*%
%TF.CreationDate,2026-09-16T15:22:34-07:00*%
%TF.ProjectId,Thermostat,54686572-6d6f-4737-9461-742e6b696361,rev?*%
%TF.SameCoordinates,Original*%
%TF.FileFunction,Drillmap*%
%TF.FilePolarity,Positive*%
%FSLAX45Y45*%
G04 Gerber Fmt 4.5, Leading zero omitted, Abs format (unit mm)*
G04 Created by KiCad (PCBNEW 10.0.6-10.0.6~ubuntu24.04.1) date 2026-09-16 15:22:34*
%MOMM*%
%LPD*%
G01*
G04 APERTURE LIST*
%ADD10C,0.050000*%
%ADD11C,0.200000*%
%ADD12C,0.220000*%
%ADD13C,0.320000*%
G04 APERTURE END LIST*
D10*
X6900000Y-10400000D02*
X6900000Y-14800000D01*
X6900000Y-10400000D02*
G75*
G02*
X7000000Y-10300000I100000J0D01*
G01*
X7000000Y-14900000D02*
G75*
G02*
X6900000Y-14800000I0J100000D01*
G01*
X7000000Y-14900000D02*
X15000000Y-14900000D01*
X15000000Y-10300000D02*
X7000000Y-10300000D01*
X15000000Y-10300000D02*
G75*
G02*
X15100000Y-10400000I0J-100000D01*
G01*
X15100000Y-14800000D02*
G75*
G02*
X15000000Y-14900000I-100000J0D01*
G01*
X15100000Y-14800000D02*
X15100000Y-10400000D01*
D11*
D12*
X8060000Y-11860000D02*
X8280000Y-12080000D01*
X8280000Y-11860000D02*
X8060000Y-12080000D01*
X8060000Y-12280000D02*
X8280000Y-12500000D01*
X8280000Y-12280000D02*
X8060000Y-12500000D01*
D13*
X7400000Y-10640000D02*
G75*
G02*
X7080000Y-10640000I-160000J0D01*
G01*
X7080000Y-10640000D02*
G75*
G02*
X7400000Y-10640000I160000J0D01*
G01*
X7400000Y-14560000D02*
G75*
G02*
X7080000Y-14560000I-160000J0D01*
G01*
X7080000Y-14560000D02*
G75*
G02*
X7400000Y-14560000I160000J0D01*
G01*
X14920000Y-10640000D02*
G75*
G02*
X14600000Y-10640000I-160000J0D01*
G01*
X14600000Y-10640000D02*
G75*
G02*
X14920000Y-10640000I160000J0D01*
G01*
X14920000Y-14560000D02*
G75*
G02*
X14600000Y-14560000I-160000J0D01*
G01*
X14600000Y-14560000D02*
G75*
G02*
X14920000Y-14560000I160000J0D01*
G01*
D11*
X7158277Y-15213984D02*
X7158277Y-15013984D01*
X7158277Y-15013984D02*
X7205896Y-15013984D01*
X7205896Y-15013984D02*
X7234467Y-15023508D01*
X7234467Y-15023508D02*
X7253515Y-15042555D01*
X7253515Y-15042555D02*
X7263039Y-15061603D01*
X7263039Y-15061603D02*
X7272562Y-15099698D01*
X7272562Y-15099698D02*
X7272562Y-15128269D01*
X7272562Y-15128269D02*
X7263039Y-15166365D01*
X7263039Y-15166365D02*
X7253515Y-15185412D01*
X7253515Y-15185412D02*
X7234467Y-15204460D01*
X7234467Y-15204460D02*
X7205896Y-15213984D01*
X7205896Y-15213984D02*
X7158277Y-15213984D01*
X7358277Y-15213984D02*
X7358277Y-15080650D01*
X7358277Y-15118746D02*
X7367801Y-15099698D01*
X7367801Y-15099698D02*
X7377324Y-15090174D01*
X7377324Y-15090174D02*
X7396372Y-15080650D01*
X7396372Y-15080650D02*
X7415420Y-15080650D01*
X7482086Y-15213984D02*
X7482086Y-15080650D01*
X7482086Y-15013984D02*
X7472562Y-15023508D01*
X7472562Y-15023508D02*
X7482086Y-15033031D01*
X7482086Y-15033031D02*
X7491610Y-15023508D01*
X7491610Y-15023508D02*
X7482086Y-15013984D01*
X7482086Y-15013984D02*
X7482086Y-15033031D01*
X7605896Y-15213984D02*
X7586848Y-15204460D01*
X7586848Y-15204460D02*
X7577324Y-15185412D01*
X7577324Y-15185412D02*
X7577324Y-15013984D01*
X7710658Y-15213984D02*
X7691610Y-15204460D01*
X7691610Y-15204460D02*
X7682086Y-15185412D01*
X7682086Y-15185412D02*
X7682086Y-15013984D01*
X7939229Y-15213984D02*
X7939229Y-15013984D01*
X7939229Y-15013984D02*
X8005896Y-15156841D01*
X8005896Y-15156841D02*
X8072562Y-15013984D01*
X8072562Y-15013984D02*
X8072562Y-15213984D01*
X8253515Y-15213984D02*
X8253515Y-15109222D01*
X8253515Y-15109222D02*
X8243991Y-15090174D01*
X8243991Y-15090174D02*
X8224943Y-15080650D01*
X8224943Y-15080650D02*
X8186848Y-15080650D01*
X8186848Y-15080650D02*
X8167801Y-15090174D01*
X8253515Y-15204460D02*
X8234467Y-15213984D01*
X8234467Y-15213984D02*
X8186848Y-15213984D01*
X8186848Y-15213984D02*
X8167801Y-15204460D01*
X8167801Y-15204460D02*
X8158277Y-15185412D01*
X8158277Y-15185412D02*
X8158277Y-15166365D01*
X8158277Y-15166365D02*
X8167801Y-15147317D01*
X8167801Y-15147317D02*
X8186848Y-15137793D01*
X8186848Y-15137793D02*
X8234467Y-15137793D01*
X8234467Y-15137793D02*
X8253515Y-15128269D01*
X8348753Y-15080650D02*
X8348753Y-15280650D01*
X8348753Y-15090174D02*
X8367801Y-15080650D01*
X8367801Y-15080650D02*
X8405896Y-15080650D01*
X8405896Y-15080650D02*
X8424944Y-15090174D01*
X8424944Y-15090174D02*
X8434467Y-15099698D01*
X8434467Y-15099698D02*
X8443991Y-15118746D01*
X8443991Y-15118746D02*
X8443991Y-15175888D01*
X8443991Y-15175888D02*
X8434467Y-15194936D01*
X8434467Y-15194936D02*
X8424944Y-15204460D01*
X8424944Y-15204460D02*
X8405896Y-15213984D01*
X8405896Y-15213984D02*
X8367801Y-15213984D01*
X8367801Y-15213984D02*
X8348753Y-15204460D01*
X8529705Y-15194936D02*
X8539229Y-15204460D01*
X8539229Y-15204460D02*
X8529705Y-15213984D01*
X8529705Y-15213984D02*
X8520182Y-15204460D01*
X8520182Y-15204460D02*
X8529705Y-15194936D01*
X8529705Y-15194936D02*
X8529705Y-15213984D01*
X8529705Y-15090174D02*
X8539229Y-15099698D01*
X8539229Y-15099698D02*
X8529705Y-15109222D01*
X8529705Y-15109222D02*
X8520182Y-15099698D01*
X8520182Y-15099698D02*
X8529705Y-15090174D01*
X8529705Y-15090174D02*
X8529705Y-15109222D01*
X6697500Y-15442500D02*
X6897500Y-15642500D01*
X6897500Y-15442500D02*
X6697500Y-15642500D01*
X7148753Y-15453031D02*
X7158277Y-15443508D01*
X7158277Y-15443508D02*
X7177324Y-15433984D01*
X7177324Y-15433984D02*
X7224943Y-15433984D01*
X7224943Y-15433984D02*
X7243991Y-15443508D01*
X7243991Y-15443508D02*
X7253515Y-15453031D01*
X7253515Y-15453031D02*
X7263039Y-15472079D01*
X7263039Y-15472079D02*
X7263039Y-15491127D01*
X7263039Y-15491127D02*
X7253515Y-15519698D01*
X7253515Y-15519698D02*
X7139229Y-15633984D01*
X7139229Y-15633984D02*
X7263039Y-15633984D01*
X7348753Y-15614936D02*
X7358277Y-15624460D01*
X7358277Y-15624460D02*
X7348753Y-15633984D01*
X7348753Y-15633984D02*
X7339229Y-15624460D01*
X7339229Y-15624460D02*
X7348753Y-15614936D01*
X7348753Y-15614936D02*
X7348753Y-15633984D01*
X7434467Y-15453031D02*
X7443991Y-15443508D01*
X7443991Y-15443508D02*
X7463039Y-15433984D01*
X7463039Y-15433984D02*
X7510658Y-15433984D01*
X7510658Y-15433984D02*
X7529705Y-15443508D01*
X7529705Y-15443508D02*
X7539229Y-15453031D01*
X7539229Y-15453031D02*
X7548753Y-15472079D01*
X7548753Y-15472079D02*
X7548753Y-15491127D01*
X7548753Y-15491127D02*
X7539229Y-15519698D01*
X7539229Y-15519698D02*
X7424943Y-15633984D01*
X7424943Y-15633984D02*
X7548753Y-15633984D01*
X7672562Y-15433984D02*
X7691610Y-15433984D01*
X7691610Y-15433984D02*
X7710658Y-15443508D01*
X7710658Y-15443508D02*
X7720182Y-15453031D01*
X7720182Y-15453031D02*
X7729705Y-15472079D01*
X7729705Y-15472079D02*
X7739229Y-15510174D01*
X7739229Y-15510174D02*
X7739229Y-15557793D01*
X7739229Y-15557793D02*
X7729705Y-15595888D01*
X7729705Y-15595888D02*
X7720182Y-15614936D01*
X7720182Y-15614936D02*
X7710658Y-15624460D01*
X7710658Y-15624460D02*
X7691610Y-15633984D01*
X7691610Y-15633984D02*
X7672562Y-15633984D01*
X7672562Y-15633984D02*
X7653515Y-15624460D01*
X7653515Y-15624460D02*
X7643991Y-15614936D01*
X7643991Y-15614936D02*
X7634467Y-15595888D01*
X7634467Y-15595888D02*
X7624943Y-15557793D01*
X7624943Y-15557793D02*
X7624943Y-15510174D01*
X7624943Y-15510174D02*
X7634467Y-15472079D01*
X7634467Y-15472079D02*
X7643991Y-15453031D01*
X7643991Y-15453031D02*
X7653515Y-15443508D01*
X7653515Y-15443508D02*
X7672562Y-15433984D01*
X7863039Y-15433984D02*
X7882086Y-15433984D01*
X7882086Y-15433984D02*
X7901134Y-15443508D01*
X7901134Y-15443508D02*
X7910658Y-15453031D01*
X7910658Y-15453031D02*
X7920182Y-15472079D01*
X7920182Y-15472079D02*
X7929705Y-15510174D01*
X7929705Y-15510174D02*
X7929705Y-15557793D01*
X7929705Y-15557793D02*
X7920182Y-15595888D01*
X7920182Y-15595888D02*
X7910658Y-15614936D01*
X7910658Y-15614936D02*
X7901134Y-15624460D01*
X7901134Y-15624460D02*
X7882086Y-15633984D01*
X7882086Y-15633984D02*
X7863039Y-15633984D01*
X7863039Y-15633984D02*
X7843991Y-15624460D01*
X7843991Y-15624460D02*
X7834467Y-15614936D01*
X7834467Y-15614936D02*
X7824943Y-15595888D01*
X7824943Y-15595888D02*
X7815420Y-15557793D01*
X7815420Y-15557793D02*
X7815420Y-15510174D01*
X7815420Y-15510174D02*
X7824943Y-15472079D01*
X7824943Y-15472079D02*
X7834467Y-15453031D01*
X7834467Y-15453031D02*
X7843991Y-15443508D01*
X7843991Y-15443508D02*
X7863039Y-15433984D01*
X8015420Y-15633984D02*
X8015420Y-15500650D01*
X8015420Y-15519698D02*
X8024943Y-15510174D01*
X8024943Y-15510174D02*
X8043991Y-15500650D01*
X8043991Y-15500650D02*
X8072563Y-15500650D01*
X8072563Y-15500650D02*
X8091610Y-15510174D01*
X8091610Y-15510174D02*
X8101134Y-15529222D01*
X8101134Y-15529222D02*
X8101134Y-15633984D01*
X8101134Y-15529222D02*
X8110658Y-15510174D01*
X8110658Y-15510174D02*
X8129705Y-15500650D01*
X8129705Y-15500650D02*
X8158277Y-15500650D01*
X8158277Y-15500650D02*
X8177324Y-15510174D01*
X8177324Y-15510174D02*
X8186848Y-15529222D01*
X8186848Y-15529222D02*
X8186848Y-15633984D01*
X8282086Y-15633984D02*
X8282086Y-15500650D01*
X8282086Y-15519698D02*
X8291610Y-15510174D01*
X8291610Y-15510174D02*
X8310658Y-15500650D01*
X8310658Y-15500650D02*
X8339229Y-15500650D01*
X8339229Y-15500650D02*
X8358277Y-15510174D01*
X8358277Y-15510174D02*
X8367801Y-15529222D01*
X8367801Y-15529222D02*
X8367801Y-15633984D01*
X8367801Y-15529222D02*
X8377324Y-15510174D01*
X8377324Y-15510174D02*
X8396372Y-15500650D01*
X8396372Y-15500650D02*
X8424944Y-15500650D01*
X8424944Y-15500650D02*
X8443991Y-15510174D01*
X8443991Y-15510174D02*
X8453515Y-15529222D01*
X8453515Y-15529222D02*
X8453515Y-15633984D01*
X8843991Y-15424460D02*
X8672563Y-15681603D01*
X9101134Y-15433984D02*
X9120182Y-15433984D01*
X9120182Y-15433984D02*
X9139229Y-15443508D01*
X9139229Y-15443508D02*
X9148753Y-15453031D01*
X9148753Y-15453031D02*
X9158277Y-15472079D01*
X9158277Y-15472079D02*
X9167801Y-15510174D01*
X9167801Y-15510174D02*
X9167801Y-15557793D01*
X9167801Y-15557793D02*
X9158277Y-15595888D01*
X9158277Y-15595888D02*
X9148753Y-15614936D01*
X9148753Y-15614936D02*
X9139229Y-15624460D01*
X9139229Y-15624460D02*
X9120182Y-15633984D01*
X9120182Y-15633984D02*
X9101134Y-15633984D01*
X9101134Y-15633984D02*
X9082087Y-15624460D01*
X9082087Y-15624460D02*
X9072563Y-15614936D01*
X9072563Y-15614936D02*
X9063039Y-15595888D01*
X9063039Y-15595888D02*
X9053515Y-15557793D01*
X9053515Y-15557793D02*
X9053515Y-15510174D01*
X9053515Y-15510174D02*
X9063039Y-15472079D01*
X9063039Y-15472079D02*
X9072563Y-15453031D01*
X9072563Y-15453031D02*
X9082087Y-15443508D01*
X9082087Y-15443508D02*
X9101134Y-15433984D01*
X9253515Y-15614936D02*
X9263039Y-15624460D01*
X9263039Y-15624460D02*
X9253515Y-15633984D01*
X9253515Y-15633984D02*
X9243991Y-15624460D01*
X9243991Y-15624460D02*
X9253515Y-15614936D01*
X9253515Y-15614936D02*
X9253515Y-15633984D01*
X9386848Y-15433984D02*
X9405896Y-15433984D01*
X9405896Y-15433984D02*
X9424944Y-15443508D01*
X9424944Y-15443508D02*
X9434468Y-15453031D01*
X9434468Y-15453031D02*
X9443991Y-15472079D01*
X9443991Y-15472079D02*
X9453515Y-15510174D01*
X9453515Y-15510174D02*
X9453515Y-15557793D01*
X9453515Y-15557793D02*
X9443991Y-15595888D01*
X9443991Y-15595888D02*
X9434468Y-15614936D01*
X9434468Y-15614936D02*
X9424944Y-15624460D01*
X9424944Y-15624460D02*
X9405896Y-15633984D01*
X9405896Y-15633984D02*
X9386848Y-15633984D01*
X9386848Y-15633984D02*
X9367801Y-15624460D01*
X9367801Y-15624460D02*
X9358277Y-15614936D01*
X9358277Y-15614936D02*
X9348753Y-15595888D01*
X9348753Y-15595888D02*
X9339229Y-15557793D01*
X9339229Y-15557793D02*
X9339229Y-15510174D01*
X9339229Y-15510174D02*
X9348753Y-15472079D01*
X9348753Y-15472079D02*
X9358277Y-15453031D01*
X9358277Y-15453031D02*
X9367801Y-15443508D01*
X9367801Y-15443508D02*
X9386848Y-15433984D01*
X9567801Y-15519698D02*
X9548753Y-15510174D01*
X9548753Y-15510174D02*
X9539229Y-15500650D01*
X9539229Y-15500650D02*
X9529706Y-15481603D01*
X9529706Y-15481603D02*
X9529706Y-15472079D01*
X9529706Y-15472079D02*
X9539229Y-15453031D01*
X9539229Y-15453031D02*
X9548753Y-15443508D01*
X9548753Y-15443508D02*
X9567801Y-15433984D01*
X9567801Y-15433984D02*
X9605896Y-15433984D01*
X9605896Y-15433984D02*
X9624944Y-15443508D01*
X9624944Y-15443508D02*
X9634468Y-15453031D01*
X9634468Y-15453031D02*
X9643991Y-15472079D01*
X9643991Y-15472079D02*
X9643991Y-15481603D01*
X9643991Y-15481603D02*
X9634468Y-15500650D01*
X9634468Y-15500650D02*
X9624944Y-15510174D01*
X9624944Y-15510174D02*
X9605896Y-15519698D01*
X9605896Y-15519698D02*
X9567801Y-15519698D01*
X9567801Y-15519698D02*
X9548753Y-15529222D01*
X9548753Y-15529222D02*
X9539229Y-15538746D01*
X9539229Y-15538746D02*
X9529706Y-15557793D01*
X9529706Y-15557793D02*
X9529706Y-15595888D01*
X9529706Y-15595888D02*
X9539229Y-15614936D01*
X9539229Y-15614936D02*
X9548753Y-15624460D01*
X9548753Y-15624460D02*
X9567801Y-15633984D01*
X9567801Y-15633984D02*
X9605896Y-15633984D01*
X9605896Y-15633984D02*
X9624944Y-15624460D01*
X9624944Y-15624460D02*
X9634468Y-15614936D01*
X9634468Y-15614936D02*
X9643991Y-15595888D01*
X9643991Y-15595888D02*
X9643991Y-15557793D01*
X9643991Y-15557793D02*
X9634468Y-15538746D01*
X9634468Y-15538746D02*
X9624944Y-15529222D01*
X9624944Y-15529222D02*
X9605896Y-15519698D01*
X9815420Y-15433984D02*
X9777325Y-15433984D01*
X9777325Y-15433984D02*
X9758277Y-15443508D01*
X9758277Y-15443508D02*
X9748753Y-15453031D01*
X9748753Y-15453031D02*
X9729706Y-15481603D01*
X9729706Y-15481603D02*
X9720182Y-15519698D01*
X9720182Y-15519698D02*
X9720182Y-15595888D01*
X9720182Y-15595888D02*
X9729706Y-15614936D01*
X9729706Y-15614936D02*
X9739229Y-15624460D01*
X9739229Y-15624460D02*
X9758277Y-15633984D01*
X9758277Y-15633984D02*
X9796372Y-15633984D01*
X9796372Y-15633984D02*
X9815420Y-15624460D01*
X9815420Y-15624460D02*
X9824944Y-15614936D01*
X9824944Y-15614936D02*
X9834468Y-15595888D01*
X9834468Y-15595888D02*
X9834468Y-15548269D01*
X9834468Y-15548269D02*
X9824944Y-15529222D01*
X9824944Y-15529222D02*
X9815420Y-15519698D01*
X9815420Y-15519698D02*
X9796372Y-15510174D01*
X9796372Y-15510174D02*
X9758277Y-15510174D01*
X9758277Y-15510174D02*
X9739229Y-15519698D01*
X9739229Y-15519698D02*
X9729706Y-15529222D01*
X9729706Y-15529222D02*
X9720182Y-15548269D01*
X10005896Y-15433984D02*
X9967801Y-15433984D01*
X9967801Y-15433984D02*
X9948753Y-15443508D01*
X9948753Y-15443508D02*
X9939229Y-15453031D01*
X9939229Y-15453031D02*
X9920182Y-15481603D01*
X9920182Y-15481603D02*
X9910658Y-15519698D01*
X9910658Y-15519698D02*
X9910658Y-15595888D01*
X9910658Y-15595888D02*
X9920182Y-15614936D01*
X9920182Y-15614936D02*
X9929706Y-15624460D01*
X9929706Y-15624460D02*
X9948753Y-15633984D01*
X9948753Y-15633984D02*
X9986849Y-15633984D01*
X9986849Y-15633984D02*
X10005896Y-15624460D01*
X10005896Y-15624460D02*
X10015420Y-15614936D01*
X10015420Y-15614936D02*
X10024944Y-15595888D01*
X10024944Y-15595888D02*
X10024944Y-15548269D01*
X10024944Y-15548269D02*
X10015420Y-15529222D01*
X10015420Y-15529222D02*
X10005896Y-15519698D01*
X10005896Y-15519698D02*
X9986849Y-15510174D01*
X9986849Y-15510174D02*
X9948753Y-15510174D01*
X9948753Y-15510174D02*
X9929706Y-15519698D01*
X9929706Y-15519698D02*
X9920182Y-15529222D01*
X9920182Y-15529222D02*
X9910658Y-15548269D01*
X10101134Y-15433984D02*
X10101134Y-15472079D01*
X10177325Y-15433984D02*
X10177325Y-15472079D01*
X10472563Y-15710174D02*
X10463039Y-15700650D01*
X10463039Y-15700650D02*
X10443991Y-15672079D01*
X10443991Y-15672079D02*
X10434468Y-15653031D01*
X10434468Y-15653031D02*
X10424944Y-15624460D01*
X10424944Y-15624460D02*
X10415420Y-15576841D01*
X10415420Y-15576841D02*
X10415420Y-15538746D01*
X10415420Y-15538746D02*
X10424944Y-15491127D01*
X10424944Y-15491127D02*
X10434468Y-15462555D01*
X10434468Y-15462555D02*
X10443991Y-15443508D01*
X10443991Y-15443508D02*
X10463039Y-15414936D01*
X10463039Y-15414936D02*
X10472563Y-15405412D01*
X10539230Y-15453031D02*
X10548753Y-15443508D01*
X10548753Y-15443508D02*
X10567801Y-15433984D01*
X10567801Y-15433984D02*
X10615420Y-15433984D01*
X10615420Y-15433984D02*
X10634468Y-15443508D01*
X10634468Y-15443508D02*
X10643991Y-15453031D01*
X10643991Y-15453031D02*
X10653515Y-15472079D01*
X10653515Y-15472079D02*
X10653515Y-15491127D01*
X10653515Y-15491127D02*
X10643991Y-15519698D01*
X10643991Y-15519698D02*
X10529706Y-15633984D01*
X10529706Y-15633984D02*
X10653515Y-15633984D01*
X10891611Y-15633984D02*
X10891611Y-15433984D01*
X10977325Y-15633984D02*
X10977325Y-15529222D01*
X10977325Y-15529222D02*
X10967801Y-15510174D01*
X10967801Y-15510174D02*
X10948753Y-15500650D01*
X10948753Y-15500650D02*
X10920182Y-15500650D01*
X10920182Y-15500650D02*
X10901134Y-15510174D01*
X10901134Y-15510174D02*
X10891611Y-15519698D01*
X11101134Y-15633984D02*
X11082087Y-15624460D01*
X11082087Y-15624460D02*
X11072563Y-15614936D01*
X11072563Y-15614936D02*
X11063039Y-15595888D01*
X11063039Y-15595888D02*
X11063039Y-15538746D01*
X11063039Y-15538746D02*
X11072563Y-15519698D01*
X11072563Y-15519698D02*
X11082087Y-15510174D01*
X11082087Y-15510174D02*
X11101134Y-15500650D01*
X11101134Y-15500650D02*
X11129706Y-15500650D01*
X11129706Y-15500650D02*
X11148753Y-15510174D01*
X11148753Y-15510174D02*
X11158277Y-15519698D01*
X11158277Y-15519698D02*
X11167801Y-15538746D01*
X11167801Y-15538746D02*
X11167801Y-15595888D01*
X11167801Y-15595888D02*
X11158277Y-15614936D01*
X11158277Y-15614936D02*
X11148753Y-15624460D01*
X11148753Y-15624460D02*
X11129706Y-15633984D01*
X11129706Y-15633984D02*
X11101134Y-15633984D01*
X11282087Y-15633984D02*
X11263039Y-15624460D01*
X11263039Y-15624460D02*
X11253515Y-15605412D01*
X11253515Y-15605412D02*
X11253515Y-15433984D01*
X11434468Y-15624460D02*
X11415420Y-15633984D01*
X11415420Y-15633984D02*
X11377325Y-15633984D01*
X11377325Y-15633984D02*
X11358277Y-15624460D01*
X11358277Y-15624460D02*
X11348753Y-15605412D01*
X11348753Y-15605412D02*
X11348753Y-15529222D01*
X11348753Y-15529222D02*
X11358277Y-15510174D01*
X11358277Y-15510174D02*
X11377325Y-15500650D01*
X11377325Y-15500650D02*
X11415420Y-15500650D01*
X11415420Y-15500650D02*
X11434468Y-15510174D01*
X11434468Y-15510174D02*
X11443991Y-15529222D01*
X11443991Y-15529222D02*
X11443991Y-15548269D01*
X11443991Y-15548269D02*
X11348753Y-15567317D01*
X11520182Y-15624460D02*
X11539230Y-15633984D01*
X11539230Y-15633984D02*
X11577325Y-15633984D01*
X11577325Y-15633984D02*
X11596372Y-15624460D01*
X11596372Y-15624460D02*
X11605896Y-15605412D01*
X11605896Y-15605412D02*
X11605896Y-15595888D01*
X11605896Y-15595888D02*
X11596372Y-15576841D01*
X11596372Y-15576841D02*
X11577325Y-15567317D01*
X11577325Y-15567317D02*
X11548753Y-15567317D01*
X11548753Y-15567317D02*
X11529706Y-15557793D01*
X11529706Y-15557793D02*
X11520182Y-15538746D01*
X11520182Y-15538746D02*
X11520182Y-15529222D01*
X11520182Y-15529222D02*
X11529706Y-15510174D01*
X11529706Y-15510174D02*
X11548753Y-15500650D01*
X11548753Y-15500650D02*
X11577325Y-15500650D01*
X11577325Y-15500650D02*
X11596372Y-15510174D01*
X11672563Y-15710174D02*
X11682087Y-15700650D01*
X11682087Y-15700650D02*
X11701134Y-15672079D01*
X11701134Y-15672079D02*
X11710658Y-15653031D01*
X11710658Y-15653031D02*
X11720182Y-15624460D01*
X11720182Y-15624460D02*
X11729706Y-15576841D01*
X11729706Y-15576841D02*
X11729706Y-15538746D01*
X11729706Y-15538746D02*
X11720182Y-15491127D01*
X11720182Y-15491127D02*
X11710658Y-15462555D01*
X11710658Y-15462555D02*
X11701134Y-15443508D01*
X11701134Y-15443508D02*
X11682087Y-15414936D01*
X11682087Y-15414936D02*
X11672563Y-15405412D01*
X12034468Y-15710174D02*
X12024944Y-15700650D01*
X12024944Y-15700650D02*
X12005896Y-15672079D01*
X12005896Y-15672079D02*
X11996372Y-15653031D01*
X11996372Y-15653031D02*
X11986849Y-15624460D01*
X11986849Y-15624460D02*
X11977325Y-15576841D01*
X11977325Y-15576841D02*
X11977325Y-15538746D01*
X11977325Y-15538746D02*
X11986849Y-15491127D01*
X11986849Y-15491127D02*
X11996372Y-15462555D01*
X11996372Y-15462555D02*
X12005896Y-15443508D01*
X12005896Y-15443508D02*
X12024944Y-15414936D01*
X12024944Y-15414936D02*
X12034468Y-15405412D01*
X12110658Y-15500650D02*
X12110658Y-15633984D01*
X12110658Y-15519698D02*
X12120182Y-15510174D01*
X12120182Y-15510174D02*
X12139230Y-15500650D01*
X12139230Y-15500650D02*
X12167801Y-15500650D01*
X12167801Y-15500650D02*
X12186849Y-15510174D01*
X12186849Y-15510174D02*
X12196372Y-15529222D01*
X12196372Y-15529222D02*
X12196372Y-15633984D01*
X12320182Y-15633984D02*
X12301134Y-15624460D01*
X12301134Y-15624460D02*
X12291611Y-15614936D01*
X12291611Y-15614936D02*
X12282087Y-15595888D01*
X12282087Y-15595888D02*
X12282087Y-15538746D01*
X12282087Y-15538746D02*
X12291611Y-15519698D01*
X12291611Y-15519698D02*
X12301134Y-15510174D01*
X12301134Y-15510174D02*
X12320182Y-15500650D01*
X12320182Y-15500650D02*
X12348753Y-15500650D01*
X12348753Y-15500650D02*
X12367801Y-15510174D01*
X12367801Y-15510174D02*
X12377325Y-15519698D01*
X12377325Y-15519698D02*
X12386849Y-15538746D01*
X12386849Y-15538746D02*
X12386849Y-15595888D01*
X12386849Y-15595888D02*
X12377325Y-15614936D01*
X12377325Y-15614936D02*
X12367801Y-15624460D01*
X12367801Y-15624460D02*
X12348753Y-15633984D01*
X12348753Y-15633984D02*
X12320182Y-15633984D01*
X12443992Y-15500650D02*
X12520182Y-15500650D01*
X12472563Y-15433984D02*
X12472563Y-15605412D01*
X12472563Y-15605412D02*
X12482087Y-15624460D01*
X12482087Y-15624460D02*
X12501134Y-15633984D01*
X12501134Y-15633984D02*
X12520182Y-15633984D01*
X12739230Y-15500650D02*
X12739230Y-15700650D01*
X12739230Y-15510174D02*
X12758277Y-15500650D01*
X12758277Y-15500650D02*
X12796373Y-15500650D01*
X12796373Y-15500650D02*
X12815420Y-15510174D01*
X12815420Y-15510174D02*
X12824944Y-15519698D01*
X12824944Y-15519698D02*
X12834468Y-15538746D01*
X12834468Y-15538746D02*
X12834468Y-15595888D01*
X12834468Y-15595888D02*
X12824944Y-15614936D01*
X12824944Y-15614936D02*
X12815420Y-15624460D01*
X12815420Y-15624460D02*
X12796373Y-15633984D01*
X12796373Y-15633984D02*
X12758277Y-15633984D01*
X12758277Y-15633984D02*
X12739230Y-15624460D01*
X12948753Y-15633984D02*
X12929706Y-15624460D01*
X12929706Y-15624460D02*
X12920182Y-15605412D01*
X12920182Y-15605412D02*
X12920182Y-15433984D01*
X13110658Y-15633984D02*
X13110658Y-15529222D01*
X13110658Y-15529222D02*
X13101134Y-15510174D01*
X13101134Y-15510174D02*
X13082087Y-15500650D01*
X13082087Y-15500650D02*
X13043992Y-15500650D01*
X13043992Y-15500650D02*
X13024944Y-15510174D01*
X13110658Y-15624460D02*
X13091611Y-15633984D01*
X13091611Y-15633984D02*
X13043992Y-15633984D01*
X13043992Y-15633984D02*
X13024944Y-15624460D01*
X13024944Y-15624460D02*
X13015420Y-15605412D01*
X13015420Y-15605412D02*
X13015420Y-15586365D01*
X13015420Y-15586365D02*
X13024944Y-15567317D01*
X13024944Y-15567317D02*
X13043992Y-15557793D01*
X13043992Y-15557793D02*
X13091611Y-15557793D01*
X13091611Y-15557793D02*
X13110658Y-15548269D01*
X13177325Y-15500650D02*
X13253515Y-15500650D01*
X13205896Y-15433984D02*
X13205896Y-15605412D01*
X13205896Y-15605412D02*
X13215420Y-15624460D01*
X13215420Y-15624460D02*
X13234468Y-15633984D01*
X13234468Y-15633984D02*
X13253515Y-15633984D01*
X13396373Y-15624460D02*
X13377325Y-15633984D01*
X13377325Y-15633984D02*
X13339230Y-15633984D01*
X13339230Y-15633984D02*
X13320182Y-15624460D01*
X13320182Y-15624460D02*
X13310658Y-15605412D01*
X13310658Y-15605412D02*
X13310658Y-15529222D01*
X13310658Y-15529222D02*
X13320182Y-15510174D01*
X13320182Y-15510174D02*
X13339230Y-15500650D01*
X13339230Y-15500650D02*
X13377325Y-15500650D01*
X13377325Y-15500650D02*
X13396373Y-15510174D01*
X13396373Y-15510174D02*
X13405896Y-15529222D01*
X13405896Y-15529222D02*
X13405896Y-15548269D01*
X13405896Y-15548269D02*
X13310658Y-15567317D01*
X13577325Y-15633984D02*
X13577325Y-15433984D01*
X13577325Y-15624460D02*
X13558277Y-15633984D01*
X13558277Y-15633984D02*
X13520182Y-15633984D01*
X13520182Y-15633984D02*
X13501134Y-15624460D01*
X13501134Y-15624460D02*
X13491611Y-15614936D01*
X13491611Y-15614936D02*
X13482087Y-15595888D01*
X13482087Y-15595888D02*
X13482087Y-15538746D01*
X13482087Y-15538746D02*
X13491611Y-15519698D01*
X13491611Y-15519698D02*
X13501134Y-15510174D01*
X13501134Y-15510174D02*
X13520182Y-15500650D01*
X13520182Y-15500650D02*
X13558277Y-15500650D01*
X13558277Y-15500650D02*
X13577325Y-15510174D01*
X13653515Y-15710174D02*
X13663039Y-15700650D01*
X13663039Y-15700650D02*
X13682087Y-15672079D01*
X13682087Y-15672079D02*
X13691611Y-15653031D01*
X13691611Y-15653031D02*
X13701134Y-15624460D01*
X13701134Y-15624460D02*
X13710658Y-15576841D01*
X13710658Y-15576841D02*
X13710658Y-15538746D01*
X13710658Y-15538746D02*
X13701134Y-15491127D01*
X13701134Y-15491127D02*
X13691611Y-15462555D01*
X13691611Y-15462555D02*
X13682087Y-15443508D01*
X13682087Y-15443508D02*
X13663039Y-15414936D01*
X13663039Y-15414936D02*
X13653515Y-15405412D01*
X6897500Y-15862500D02*
G75*
G02*
X6697500Y-15862500I-100000J0D01*
G01*
X6697500Y-15862500D02*
G75*
G02*
X6897500Y-15862500I100000J0D01*
G01*
X7139229Y-15753984D02*
X7263039Y-15753984D01*
X7263039Y-15753984D02*
X7196372Y-15830174D01*
X7196372Y-15830174D02*
X7224943Y-15830174D01*
X7224943Y-15830174D02*
X7243991Y-15839698D01*
X7243991Y-15839698D02*
X7253515Y-15849222D01*
X7253515Y-15849222D02*
X7263039Y-15868269D01*
X7263039Y-15868269D02*
X7263039Y-15915888D01*
X7263039Y-15915888D02*
X7253515Y-15934936D01*
X7253515Y-15934936D02*
X7243991Y-15944460D01*
X7243991Y-15944460D02*
X7224943Y-15953984D01*
X7224943Y-15953984D02*
X7167801Y-15953984D01*
X7167801Y-15953984D02*
X7148753Y-15944460D01*
X7148753Y-15944460D02*
X7139229Y-15934936D01*
X7348753Y-15934936D02*
X7358277Y-15944460D01*
X7358277Y-15944460D02*
X7348753Y-15953984D01*
X7348753Y-15953984D02*
X7339229Y-15944460D01*
X7339229Y-15944460D02*
X7348753Y-15934936D01*
X7348753Y-15934936D02*
X7348753Y-15953984D01*
X7434467Y-15773031D02*
X7443991Y-15763508D01*
X7443991Y-15763508D02*
X7463039Y-15753984D01*
X7463039Y-15753984D02*
X7510658Y-15753984D01*
X7510658Y-15753984D02*
X7529705Y-15763508D01*
X7529705Y-15763508D02*
X7539229Y-15773031D01*
X7539229Y-15773031D02*
X7548753Y-15792079D01*
X7548753Y-15792079D02*
X7548753Y-15811127D01*
X7548753Y-15811127D02*
X7539229Y-15839698D01*
X7539229Y-15839698D02*
X7424943Y-15953984D01*
X7424943Y-15953984D02*
X7548753Y-15953984D01*
X7672562Y-15753984D02*
X7691610Y-15753984D01*
X7691610Y-15753984D02*
X7710658Y-15763508D01*
X7710658Y-15763508D02*
X7720182Y-15773031D01*
X7720182Y-15773031D02*
X7729705Y-15792079D01*
X7729705Y-15792079D02*
X7739229Y-15830174D01*
X7739229Y-15830174D02*
X7739229Y-15877793D01*
X7739229Y-15877793D02*
X7729705Y-15915888D01*
X7729705Y-15915888D02*
X7720182Y-15934936D01*
X7720182Y-15934936D02*
X7710658Y-15944460D01*
X7710658Y-15944460D02*
X7691610Y-15953984D01*
X7691610Y-15953984D02*
X7672562Y-15953984D01*
X7672562Y-15953984D02*
X7653515Y-15944460D01*
X7653515Y-15944460D02*
X7643991Y-15934936D01*
X7643991Y-15934936D02*
X7634467Y-15915888D01*
X7634467Y-15915888D02*
X7624943Y-15877793D01*
X7624943Y-15877793D02*
X7624943Y-15830174D01*
X7624943Y-15830174D02*
X7634467Y-15792079D01*
X7634467Y-15792079D02*
X7643991Y-15773031D01*
X7643991Y-15773031D02*
X7653515Y-15763508D01*
X7653515Y-15763508D02*
X7672562Y-15753984D01*
X7863039Y-15753984D02*
X7882086Y-15753984D01*
X7882086Y-15753984D02*
X7901134Y-15763508D01*
X7901134Y-15763508D02*
X7910658Y-15773031D01*
X7910658Y-15773031D02*
X7920182Y-15792079D01*
X7920182Y-15792079D02*
X7929705Y-15830174D01*
X7929705Y-15830174D02*
X7929705Y-15877793D01*
X7929705Y-15877793D02*
X7920182Y-15915888D01*
X7920182Y-15915888D02*
X7910658Y-15934936D01*
X7910658Y-15934936D02*
X7901134Y-15944460D01*
X7901134Y-15944460D02*
X7882086Y-15953984D01*
X7882086Y-15953984D02*
X7863039Y-15953984D01*
X7863039Y-15953984D02*
X7843991Y-15944460D01*
X7843991Y-15944460D02*
X7834467Y-15934936D01*
X7834467Y-15934936D02*
X7824943Y-15915888D01*
X7824943Y-15915888D02*
X7815420Y-15877793D01*
X7815420Y-15877793D02*
X7815420Y-15830174D01*
X7815420Y-15830174D02*
X7824943Y-15792079D01*
X7824943Y-15792079D02*
X7834467Y-15773031D01*
X7834467Y-15773031D02*
X7843991Y-15763508D01*
X7843991Y-15763508D02*
X7863039Y-15753984D01*
X8015420Y-15953984D02*
X8015420Y-15820650D01*
X8015420Y-15839698D02*
X8024943Y-15830174D01*
X8024943Y-15830174D02*
X8043991Y-15820650D01*
X8043991Y-15820650D02*
X8072563Y-15820650D01*
X8072563Y-15820650D02*
X8091610Y-15830174D01*
X8091610Y-15830174D02*
X8101134Y-15849222D01*
X8101134Y-15849222D02*
X8101134Y-15953984D01*
X8101134Y-15849222D02*
X8110658Y-15830174D01*
X8110658Y-15830174D02*
X8129705Y-15820650D01*
X8129705Y-15820650D02*
X8158277Y-15820650D01*
X8158277Y-15820650D02*
X8177324Y-15830174D01*
X8177324Y-15830174D02*
X8186848Y-15849222D01*
X8186848Y-15849222D02*
X8186848Y-15953984D01*
X8282086Y-15953984D02*
X8282086Y-15820650D01*
X8282086Y-15839698D02*
X8291610Y-15830174D01*
X8291610Y-15830174D02*
X8310658Y-15820650D01*
X8310658Y-15820650D02*
X8339229Y-15820650D01*
X8339229Y-15820650D02*
X8358277Y-15830174D01*
X8358277Y-15830174D02*
X8367801Y-15849222D01*
X8367801Y-15849222D02*
X8367801Y-15953984D01*
X8367801Y-15849222D02*
X8377324Y-15830174D01*
X8377324Y-15830174D02*
X8396372Y-15820650D01*
X8396372Y-15820650D02*
X8424944Y-15820650D01*
X8424944Y-15820650D02*
X8443991Y-15830174D01*
X8443991Y-15830174D02*
X8453515Y-15849222D01*
X8453515Y-15849222D02*
X8453515Y-15953984D01*
X8843991Y-15744460D02*
X8672563Y-16001603D01*
X9101134Y-15753984D02*
X9120182Y-15753984D01*
X9120182Y-15753984D02*
X9139229Y-15763508D01*
X9139229Y-15763508D02*
X9148753Y-15773031D01*
X9148753Y-15773031D02*
X9158277Y-15792079D01*
X9158277Y-15792079D02*
X9167801Y-15830174D01*
X9167801Y-15830174D02*
X9167801Y-15877793D01*
X9167801Y-15877793D02*
X9158277Y-15915888D01*
X9158277Y-15915888D02*
X9148753Y-15934936D01*
X9148753Y-15934936D02*
X9139229Y-15944460D01*
X9139229Y-15944460D02*
X9120182Y-15953984D01*
X9120182Y-15953984D02*
X9101134Y-15953984D01*
X9101134Y-15953984D02*
X9082087Y-15944460D01*
X9082087Y-15944460D02*
X9072563Y-15934936D01*
X9072563Y-15934936D02*
X9063039Y-15915888D01*
X9063039Y-15915888D02*
X9053515Y-15877793D01*
X9053515Y-15877793D02*
X9053515Y-15830174D01*
X9053515Y-15830174D02*
X9063039Y-15792079D01*
X9063039Y-15792079D02*
X9072563Y-15773031D01*
X9072563Y-15773031D02*
X9082087Y-15763508D01*
X9082087Y-15763508D02*
X9101134Y-15753984D01*
X9253515Y-15934936D02*
X9263039Y-15944460D01*
X9263039Y-15944460D02*
X9253515Y-15953984D01*
X9253515Y-15953984D02*
X9243991Y-15944460D01*
X9243991Y-15944460D02*
X9253515Y-15934936D01*
X9253515Y-15934936D02*
X9253515Y-15953984D01*
X9453515Y-15953984D02*
X9339229Y-15953984D01*
X9396372Y-15953984D02*
X9396372Y-15753984D01*
X9396372Y-15753984D02*
X9377325Y-15782555D01*
X9377325Y-15782555D02*
X9358277Y-15801603D01*
X9358277Y-15801603D02*
X9339229Y-15811127D01*
X9529706Y-15773031D02*
X9539229Y-15763508D01*
X9539229Y-15763508D02*
X9558277Y-15753984D01*
X9558277Y-15753984D02*
X9605896Y-15753984D01*
X9605896Y-15753984D02*
X9624944Y-15763508D01*
X9624944Y-15763508D02*
X9634468Y-15773031D01*
X9634468Y-15773031D02*
X9643991Y-15792079D01*
X9643991Y-15792079D02*
X9643991Y-15811127D01*
X9643991Y-15811127D02*
X9634468Y-15839698D01*
X9634468Y-15839698D02*
X9520182Y-15953984D01*
X9520182Y-15953984D02*
X9643991Y-15953984D01*
X9815420Y-15753984D02*
X9777325Y-15753984D01*
X9777325Y-15753984D02*
X9758277Y-15763508D01*
X9758277Y-15763508D02*
X9748753Y-15773031D01*
X9748753Y-15773031D02*
X9729706Y-15801603D01*
X9729706Y-15801603D02*
X9720182Y-15839698D01*
X9720182Y-15839698D02*
X9720182Y-15915888D01*
X9720182Y-15915888D02*
X9729706Y-15934936D01*
X9729706Y-15934936D02*
X9739229Y-15944460D01*
X9739229Y-15944460D02*
X9758277Y-15953984D01*
X9758277Y-15953984D02*
X9796372Y-15953984D01*
X9796372Y-15953984D02*
X9815420Y-15944460D01*
X9815420Y-15944460D02*
X9824944Y-15934936D01*
X9824944Y-15934936D02*
X9834468Y-15915888D01*
X9834468Y-15915888D02*
X9834468Y-15868269D01*
X9834468Y-15868269D02*
X9824944Y-15849222D01*
X9824944Y-15849222D02*
X9815420Y-15839698D01*
X9815420Y-15839698D02*
X9796372Y-15830174D01*
X9796372Y-15830174D02*
X9758277Y-15830174D01*
X9758277Y-15830174D02*
X9739229Y-15839698D01*
X9739229Y-15839698D02*
X9729706Y-15849222D01*
X9729706Y-15849222D02*
X9720182Y-15868269D01*
X9958277Y-15753984D02*
X9977325Y-15753984D01*
X9977325Y-15753984D02*
X9996372Y-15763508D01*
X9996372Y-15763508D02*
X10005896Y-15773031D01*
X10005896Y-15773031D02*
X10015420Y-15792079D01*
X10015420Y-15792079D02*
X10024944Y-15830174D01*
X10024944Y-15830174D02*
X10024944Y-15877793D01*
X10024944Y-15877793D02*
X10015420Y-15915888D01*
X10015420Y-15915888D02*
X10005896Y-15934936D01*
X10005896Y-15934936D02*
X9996372Y-15944460D01*
X9996372Y-15944460D02*
X9977325Y-15953984D01*
X9977325Y-15953984D02*
X9958277Y-15953984D01*
X9958277Y-15953984D02*
X9939229Y-15944460D01*
X9939229Y-15944460D02*
X9929706Y-15934936D01*
X9929706Y-15934936D02*
X9920182Y-15915888D01*
X9920182Y-15915888D02*
X9910658Y-15877793D01*
X9910658Y-15877793D02*
X9910658Y-15830174D01*
X9910658Y-15830174D02*
X9920182Y-15792079D01*
X9920182Y-15792079D02*
X9929706Y-15773031D01*
X9929706Y-15773031D02*
X9939229Y-15763508D01*
X9939229Y-15763508D02*
X9958277Y-15753984D01*
X10101134Y-15753984D02*
X10101134Y-15792079D01*
X10177325Y-15753984D02*
X10177325Y-15792079D01*
X10472563Y-16030174D02*
X10463039Y-16020650D01*
X10463039Y-16020650D02*
X10443991Y-15992079D01*
X10443991Y-15992079D02*
X10434468Y-15973031D01*
X10434468Y-15973031D02*
X10424944Y-15944460D01*
X10424944Y-15944460D02*
X10415420Y-15896841D01*
X10415420Y-15896841D02*
X10415420Y-15858746D01*
X10415420Y-15858746D02*
X10424944Y-15811127D01*
X10424944Y-15811127D02*
X10434468Y-15782555D01*
X10434468Y-15782555D02*
X10443991Y-15763508D01*
X10443991Y-15763508D02*
X10463039Y-15734936D01*
X10463039Y-15734936D02*
X10472563Y-15725412D01*
X10634468Y-15820650D02*
X10634468Y-15953984D01*
X10586849Y-15744460D02*
X10539230Y-15887317D01*
X10539230Y-15887317D02*
X10663039Y-15887317D01*
X10891611Y-15953984D02*
X10891611Y-15753984D01*
X10977325Y-15953984D02*
X10977325Y-15849222D01*
X10977325Y-15849222D02*
X10967801Y-15830174D01*
X10967801Y-15830174D02*
X10948753Y-15820650D01*
X10948753Y-15820650D02*
X10920182Y-15820650D01*
X10920182Y-15820650D02*
X10901134Y-15830174D01*
X10901134Y-15830174D02*
X10891611Y-15839698D01*
X11101134Y-15953984D02*
X11082087Y-15944460D01*
X11082087Y-15944460D02*
X11072563Y-15934936D01*
X11072563Y-15934936D02*
X11063039Y-15915888D01*
X11063039Y-15915888D02*
X11063039Y-15858746D01*
X11063039Y-15858746D02*
X11072563Y-15839698D01*
X11072563Y-15839698D02*
X11082087Y-15830174D01*
X11082087Y-15830174D02*
X11101134Y-15820650D01*
X11101134Y-15820650D02*
X11129706Y-15820650D01*
X11129706Y-15820650D02*
X11148753Y-15830174D01*
X11148753Y-15830174D02*
X11158277Y-15839698D01*
X11158277Y-15839698D02*
X11167801Y-15858746D01*
X11167801Y-15858746D02*
X11167801Y-15915888D01*
X11167801Y-15915888D02*
X11158277Y-15934936D01*
X11158277Y-15934936D02*
X11148753Y-15944460D01*
X11148753Y-15944460D02*
X11129706Y-15953984D01*
X11129706Y-15953984D02*
X11101134Y-15953984D01*
X11282087Y-15953984D02*
X11263039Y-15944460D01*
X11263039Y-15944460D02*
X11253515Y-15925412D01*
X11253515Y-15925412D02*
X11253515Y-15753984D01*
X11434468Y-15944460D02*
X11415420Y-15953984D01*
X11415420Y-15953984D02*
X11377325Y-15953984D01*
X11377325Y-15953984D02*
X11358277Y-15944460D01*
X11358277Y-15944460D02*
X11348753Y-15925412D01*
X11348753Y-15925412D02*
X11348753Y-15849222D01*
X11348753Y-15849222D02*
X11358277Y-15830174D01*
X11358277Y-15830174D02*
X11377325Y-15820650D01*
X11377325Y-15820650D02*
X11415420Y-15820650D01*
X11415420Y-15820650D02*
X11434468Y-15830174D01*
X11434468Y-15830174D02*
X11443991Y-15849222D01*
X11443991Y-15849222D02*
X11443991Y-15868269D01*
X11443991Y-15868269D02*
X11348753Y-15887317D01*
X11520182Y-15944460D02*
X11539230Y-15953984D01*
X11539230Y-15953984D02*
X11577325Y-15953984D01*
X11577325Y-15953984D02*
X11596372Y-15944460D01*
X11596372Y-15944460D02*
X11605896Y-15925412D01*
X11605896Y-15925412D02*
X11605896Y-15915888D01*
X11605896Y-15915888D02*
X11596372Y-15896841D01*
X11596372Y-15896841D02*
X11577325Y-15887317D01*
X11577325Y-15887317D02*
X11548753Y-15887317D01*
X11548753Y-15887317D02*
X11529706Y-15877793D01*
X11529706Y-15877793D02*
X11520182Y-15858746D01*
X11520182Y-15858746D02*
X11520182Y-15849222D01*
X11520182Y-15849222D02*
X11529706Y-15830174D01*
X11529706Y-15830174D02*
X11548753Y-15820650D01*
X11548753Y-15820650D02*
X11577325Y-15820650D01*
X11577325Y-15820650D02*
X11596372Y-15830174D01*
X11672563Y-16030174D02*
X11682087Y-16020650D01*
X11682087Y-16020650D02*
X11701134Y-15992079D01*
X11701134Y-15992079D02*
X11710658Y-15973031D01*
X11710658Y-15973031D02*
X11720182Y-15944460D01*
X11720182Y-15944460D02*
X11729706Y-15896841D01*
X11729706Y-15896841D02*
X11729706Y-15858746D01*
X11729706Y-15858746D02*
X11720182Y-15811127D01*
X11720182Y-15811127D02*
X11710658Y-15782555D01*
X11710658Y-15782555D02*
X11701134Y-15763508D01*
X11701134Y-15763508D02*
X11682087Y-15734936D01*
X11682087Y-15734936D02*
X11672563Y-15725412D01*
X12034468Y-16030174D02*
X12024944Y-16020650D01*
X12024944Y-16020650D02*
X12005896Y-15992079D01*
X12005896Y-15992079D02*
X11996372Y-15973031D01*
X11996372Y-15973031D02*
X11986849Y-15944460D01*
X11986849Y-15944460D02*
X11977325Y-15896841D01*
X11977325Y-15896841D02*
X11977325Y-15858746D01*
X11977325Y-15858746D02*
X11986849Y-15811127D01*
X11986849Y-15811127D02*
X11996372Y-15782555D01*
X11996372Y-15782555D02*
X12005896Y-15763508D01*
X12005896Y-15763508D02*
X12024944Y-15734936D01*
X12024944Y-15734936D02*
X12034468Y-15725412D01*
X12110658Y-15820650D02*
X12110658Y-15953984D01*
X12110658Y-15839698D02*
X12120182Y-15830174D01*
X12120182Y-15830174D02*
X12139230Y-15820650D01*
X12139230Y-15820650D02*
X12167801Y-15820650D01*
X12167801Y-15820650D02*
X12186849Y-15830174D01*
X12186849Y-15830174D02*
X12196372Y-15849222D01*
X12196372Y-15849222D02*
X12196372Y-15953984D01*
X12320182Y-15953984D02*
X12301134Y-15944460D01*
X12301134Y-15944460D02*
X12291611Y-15934936D01*
X12291611Y-15934936D02*
X12282087Y-15915888D01*
X12282087Y-15915888D02*
X12282087Y-15858746D01*
X12282087Y-15858746D02*
X12291611Y-15839698D01*
X12291611Y-15839698D02*
X12301134Y-15830174D01*
X12301134Y-15830174D02*
X12320182Y-15820650D01*
X12320182Y-15820650D02*
X12348753Y-15820650D01*
X12348753Y-15820650D02*
X12367801Y-15830174D01*
X12367801Y-15830174D02*
X12377325Y-15839698D01*
X12377325Y-15839698D02*
X12386849Y-15858746D01*
X12386849Y-15858746D02*
X12386849Y-15915888D01*
X12386849Y-15915888D02*
X12377325Y-15934936D01*
X12377325Y-15934936D02*
X12367801Y-15944460D01*
X12367801Y-15944460D02*
X12348753Y-15953984D01*
X12348753Y-15953984D02*
X12320182Y-15953984D01*
X12443992Y-15820650D02*
X12520182Y-15820650D01*
X12472563Y-15753984D02*
X12472563Y-15925412D01*
X12472563Y-15925412D02*
X12482087Y-15944460D01*
X12482087Y-15944460D02*
X12501134Y-15953984D01*
X12501134Y-15953984D02*
X12520182Y-15953984D01*
X12739230Y-15820650D02*
X12739230Y-16020650D01*
X12739230Y-15830174D02*
X12758277Y-15820650D01*
X12758277Y-15820650D02*
X12796373Y-15820650D01*
X12796373Y-15820650D02*
X12815420Y-15830174D01*
X12815420Y-15830174D02*
X12824944Y-15839698D01*
X12824944Y-15839698D02*
X12834468Y-15858746D01*
X12834468Y-15858746D02*
X12834468Y-15915888D01*
X12834468Y-15915888D02*
X12824944Y-15934936D01*
X12824944Y-15934936D02*
X12815420Y-15944460D01*
X12815420Y-15944460D02*
X12796373Y-15953984D01*
X12796373Y-15953984D02*
X12758277Y-15953984D01*
X12758277Y-15953984D02*
X12739230Y-15944460D01*
X12948753Y-15953984D02*
X12929706Y-15944460D01*
X12929706Y-15944460D02*
X12920182Y-15925412D01*
X12920182Y-15925412D02*
X12920182Y-15753984D01*
X13110658Y-15953984D02*
X13110658Y-15849222D01*
X13110658Y-15849222D02*
X13101134Y-15830174D01*
X13101134Y-15830174D02*
X13082087Y-15820650D01*
X13082087Y-15820650D02*
X13043992Y-15820650D01*
X13043992Y-15820650D02*
X13024944Y-15830174D01*
X13110658Y-15944460D02*
X13091611Y-15953984D01*
X13091611Y-15953984D02*
X13043992Y-15953984D01*
X13043992Y-15953984D02*
X13024944Y-15944460D01*
X13024944Y-15944460D02*
X13015420Y-15925412D01*
X13015420Y-15925412D02*
X13015420Y-15906365D01*
X13015420Y-15906365D02*
X13024944Y-15887317D01*
X13024944Y-15887317D02*
X13043992Y-15877793D01*
X13043992Y-15877793D02*
X13091611Y-15877793D01*
X13091611Y-15877793D02*
X13110658Y-15868269D01*
X13177325Y-15820650D02*
X13253515Y-15820650D01*
X13205896Y-15753984D02*
X13205896Y-15925412D01*
X13205896Y-15925412D02*
X13215420Y-15944460D01*
X13215420Y-15944460D02*
X13234468Y-15953984D01*
X13234468Y-15953984D02*
X13253515Y-15953984D01*
X13396373Y-15944460D02*
X13377325Y-15953984D01*
X13377325Y-15953984D02*
X13339230Y-15953984D01*
X13339230Y-15953984D02*
X13320182Y-15944460D01*
X13320182Y-15944460D02*
X13310658Y-15925412D01*
X13310658Y-15925412D02*
X13310658Y-15849222D01*
X13310658Y-15849222D02*
X13320182Y-15830174D01*
X13320182Y-15830174D02*
X13339230Y-15820650D01*
X13339230Y-15820650D02*
X13377325Y-15820650D01*
X13377325Y-15820650D02*
X13396373Y-15830174D01*
X13396373Y-15830174D02*
X13405896Y-15849222D01*
X13405896Y-15849222D02*
X13405896Y-15868269D01*
X13405896Y-15868269D02*
X13310658Y-15887317D01*
X13577325Y-15953984D02*
X13577325Y-15753984D01*
X13577325Y-15944460D02*
X13558277Y-15953984D01*
X13558277Y-15953984D02*
X13520182Y-15953984D01*
X13520182Y-15953984D02*
X13501134Y-15944460D01*
X13501134Y-15944460D02*
X13491611Y-15934936D01*
X13491611Y-15934936D02*
X13482087Y-15915888D01*
X13482087Y-15915888D02*
X13482087Y-15858746D01*
X13482087Y-15858746D02*
X13491611Y-15839698D01*
X13491611Y-15839698D02*
X13501134Y-15830174D01*
X13501134Y-15830174D02*
X13520182Y-15820650D01*
X13520182Y-15820650D02*
X13558277Y-15820650D01*
X13558277Y-15820650D02*
X13577325Y-15830174D01*
X13653515Y-16030174D02*
X13663039Y-16020650D01*
X13663039Y-16020650D02*
X13682087Y-15992079D01*
X13682087Y-15992079D02*
X13691611Y-15973031D01*
X13691611Y-15973031D02*
X13701134Y-15944460D01*
X13701134Y-15944460D02*
X13710658Y-15896841D01*
X13710658Y-15896841D02*
X13710658Y-15858746D01*
X13710658Y-15858746D02*
X13701134Y-15811127D01*
X13701134Y-15811127D02*
X13691611Y-15782555D01*
X13691611Y-15782555D02*
X13682087Y-15763508D01*
X13682087Y-15763508D02*
X13663039Y-15734936D01*
X13663039Y-15734936D02*
X13653515Y-15725412D01*
M02*
