M48
; DRILL file KiCad 10.0.6-10.0.6~ubuntu24.04.1 date 2026-09-16T15:22:34
; FORMAT={-:-/ absolute / metric / decimal}
; #@! TF.CreationDate,2026-09-16T15:22:34-07:00
; #@! TF.GenerationSoftware,Kicad,Pcbnew,10.0.6-10.0.6~ubuntu24.04.1
; #@! TF.FileFunction,Plated,1,4,PTH
FMAT,2
METRIC
; #@! TA.AperFunction,Plated,PTH,ComponentDrill
T1C0.800
; #@! TA.AperFunction,Plated,PTH,ComponentDrill
T2C0.850
; #@! TA.AperFunction,Plated,PTH,ViaDrill
T3C1.000
; #@! TA.AperFunction,Plated,PTH,ComponentDrill
T4C1.000
%
G90
G05
T1
X71.48Y-134.7
X71.49Y-129.8
X79.1Y-134.7
X79.11Y-129.8
X90.15Y-104.89
X90.15Y-107.43
X90.15Y-109.97
X90.15Y-112.51
T2
X71.5Y-119.7
X71.5Y-123.9
T3
X91.882Y-132.9
X94.422Y-132.9
T4
X94.68Y-109.2
X94.68Y-111.74
X97.22Y-109.2
X97.22Y-111.74
X99.76Y-109.2
X99.76Y-111.74
X102.3Y-109.2
X102.3Y-111.74
X104.84Y-109.2
X104.84Y-111.74
X107.38Y-109.2
X107.38Y-111.74
X109.92Y-109.2
X109.92Y-111.74
X112.46Y-109.2
X112.46Y-111.74
X115.0Y-109.2
X115.0Y-111.74
X117.54Y-109.2
X117.54Y-111.74
X120.08Y-109.2
X120.08Y-111.74
X122.62Y-109.2
X122.62Y-111.74
X125.16Y-109.2
X125.16Y-111.74
X127.7Y-109.2
X127.7Y-111.74
X130.24Y-109.2
X130.24Y-111.74
X132.78Y-109.2
X132.78Y-111.74
X135.32Y-109.2
X135.32Y-111.74
X137.86Y-109.2
X137.86Y-111.74
X140.4Y-109.2
X140.4Y-111.74
X142.94Y-109.2
X142.94Y-111.74
M30
