%TF.GenerationSoftware,KiCad,Pcbnew,10.0.6-10.0.6~ubuntu24.04.1*%
%TF.CreationDate,2026-09-16T15:22:38-07:00*%
%TF.ProjectId,Thermostat,54686572-6d6f-4737-9461-742e6b696361,rev?*%
%TF.SameCoordinates,Original*%
%TF.FileFunction,Soldermask,Bot*%
%TF.FilePolarity,Negative*%
%FSLAX46Y46*%
G04 Gerber Fmt 4.6, Leading zero omitted, Abs format (unit mm)*
G04 Created by KiCad (PCBNEW 10.0.6-10.0.6~ubuntu24.04.1) date 2026-09-16 15:22:38*
%MOMM*%
%LPD*%
G01*
G04 APERTURE LIST*
G04 APERTURE END LIST*
G36*
X72773513Y-144044208D02*
G01*
X73012293Y-144121793D01*
X73235998Y-144235776D01*
X73439117Y-144383350D01*
X73616650Y-144560883D01*
X73764224Y-144764002D01*
X73878207Y-144987707D01*
X73955792Y-145226487D01*
X73995068Y-145474465D01*
X73995068Y-145725535D01*
X73955792Y-145973513D01*
X73878207Y-146212293D01*
X73764224Y-146435998D01*
X73616650Y-146639117D01*
X73439117Y-146816650D01*
X73235998Y-146964224D01*
X73012293Y-147078207D01*
X72773513Y-147155792D01*
X72525535Y-147195068D01*
X72274465Y-147195068D01*
X72026487Y-147155792D01*
X71787707Y-147078207D01*
X71564002Y-146964224D01*
X71360883Y-146816650D01*
X71183350Y-146639117D01*
X71035776Y-146435998D01*
X70921793Y-146212293D01*
X70844208Y-145973513D01*
X70804932Y-145725535D01*
X70804932Y-145474465D01*
X70844208Y-145226487D01*
X70921793Y-144987707D01*
X71035776Y-144764002D01*
X71183350Y-144560883D01*
X71360883Y-144383350D01*
X71564002Y-144235776D01*
X71787707Y-144121793D01*
X72026487Y-144044208D01*
X72274465Y-144004932D01*
X72525535Y-144004932D01*
X72773513Y-144044208D01*
G37*
G36*
X147973513Y-144044208D02*
G01*
X148212293Y-144121793D01*
X148435998Y-144235776D01*
X148639117Y-144383350D01*
X148816650Y-144560883D01*
X148964224Y-144764002D01*
X149078207Y-144987707D01*
X149155792Y-145226487D01*
X149195068Y-145474465D01*
X149195068Y-145725535D01*
X149155792Y-145973513D01*
X149078207Y-146212293D01*
X148964224Y-146435998D01*
X148816650Y-146639117D01*
X148639117Y-146816650D01*
X148435998Y-146964224D01*
X148212293Y-147078207D01*
X147973513Y-147155792D01*
X147725535Y-147195068D01*
X147474465Y-147195068D01*
X147226487Y-147155792D01*
X146987707Y-147078207D01*
X146764002Y-146964224D01*
X146560883Y-146816650D01*
X146383350Y-146639117D01*
X146235776Y-146435998D01*
X146121793Y-146212293D01*
X146044208Y-145973513D01*
X146004932Y-145725535D01*
X146004932Y-145474465D01*
X146044208Y-145226487D01*
X146121793Y-144987707D01*
X146235776Y-144764002D01*
X146383350Y-144560883D01*
X146560883Y-144383350D01*
X146764002Y-144235776D01*
X146987707Y-144121793D01*
X147226487Y-144044208D01*
X147474465Y-144004932D01*
X147725535Y-144004932D01*
X147973513Y-144044208D01*
G37*
G36*
X71712228Y-133934448D02*
G01*
X71857117Y-133994463D01*
X71987515Y-134081592D01*
X72098408Y-134192485D01*
X72185537Y-134322883D01*
X72245552Y-134467772D01*
X72276148Y-134621586D01*
X72276148Y-134778414D01*
X72245552Y-134932228D01*
X72185537Y-135077117D01*
X72098408Y-135207515D01*
X71987515Y-135318408D01*
X71857117Y-135405537D01*
X71712228Y-135465552D01*
X71558414Y-135496148D01*
X71401586Y-135496148D01*
X71247772Y-135465552D01*
X71102883Y-135405537D01*
X70972485Y-135318408D01*
X70861592Y-135207515D01*
X70774463Y-135077117D01*
X70714448Y-134932228D01*
X70683852Y-134778414D01*
X70683852Y-134621586D01*
X70714448Y-134467772D01*
X70774463Y-134322883D01*
X70861592Y-134192485D01*
X70972485Y-134081592D01*
X71102883Y-133994463D01*
X71247772Y-133934448D01*
X71401586Y-133903852D01*
X71558414Y-133903852D01*
X71712228Y-133934448D01*
G37*
G36*
X79332228Y-133934448D02*
G01*
X79477117Y-133994463D01*
X79607515Y-134081592D01*
X79718408Y-134192485D01*
X79805537Y-134322883D01*
X79865552Y-134467772D01*
X79896148Y-134621586D01*
X79896148Y-134778414D01*
X79865552Y-134932228D01*
X79805537Y-135077117D01*
X79718408Y-135207515D01*
X79607515Y-135318408D01*
X79477117Y-135405537D01*
X79332228Y-135465552D01*
X79178414Y-135496148D01*
X79021586Y-135496148D01*
X78867772Y-135465552D01*
X78722883Y-135405537D01*
X78592485Y-135318408D01*
X78481592Y-135207515D01*
X78394463Y-135077117D01*
X78334448Y-134932228D01*
X78303852Y-134778414D01*
X78303852Y-134621586D01*
X78334448Y-134467772D01*
X78394463Y-134322883D01*
X78481592Y-134192485D01*
X78592485Y-134081592D01*
X78722883Y-133994463D01*
X78867772Y-133934448D01*
X79021586Y-133903852D01*
X79178414Y-133903852D01*
X79332228Y-133934448D01*
G37*
G36*
X71722228Y-129034448D02*
G01*
X71867117Y-129094463D01*
X71997515Y-129181592D01*
X72108408Y-129292485D01*
X72195537Y-129422883D01*
X72255552Y-129567772D01*
X72286148Y-129721586D01*
X72286148Y-129878414D01*
X72255552Y-130032228D01*
X72195537Y-130177117D01*
X72108408Y-130307515D01*
X71997515Y-130418408D01*
X71867117Y-130505537D01*
X71722228Y-130565552D01*
X71568414Y-130596148D01*
X71411586Y-130596148D01*
X71257772Y-130565552D01*
X71112883Y-130505537D01*
X70982485Y-130418408D01*
X70871592Y-130307515D01*
X70784463Y-130177117D01*
X70724448Y-130032228D01*
X70693852Y-129878414D01*
X70693852Y-129721586D01*
X70724448Y-129567772D01*
X70784463Y-129422883D01*
X70871592Y-129292485D01*
X70982485Y-129181592D01*
X71112883Y-129094463D01*
X71257772Y-129034448D01*
X71411586Y-129003852D01*
X71568414Y-129003852D01*
X71722228Y-129034448D01*
G37*
G36*
X79342228Y-129034448D02*
G01*
X79487117Y-129094463D01*
X79617515Y-129181592D01*
X79728408Y-129292485D01*
X79815537Y-129422883D01*
X79875552Y-129567772D01*
X79906148Y-129721586D01*
X79906148Y-129878414D01*
X79875552Y-130032228D01*
X79815537Y-130177117D01*
X79728408Y-130307515D01*
X79617515Y-130418408D01*
X79487117Y-130505537D01*
X79342228Y-130565552D01*
X79188414Y-130596148D01*
X79031586Y-130596148D01*
X78877772Y-130565552D01*
X78732883Y-130505537D01*
X78602485Y-130418408D01*
X78491592Y-130307515D01*
X78404463Y-130177117D01*
X78344448Y-130032228D01*
X78313852Y-129878414D01*
X78313852Y-129721586D01*
X78344448Y-129567772D01*
X78404463Y-129422883D01*
X78491592Y-129292485D01*
X78602485Y-129181592D01*
X78732883Y-129094463D01*
X78877772Y-129034448D01*
X79031586Y-129003852D01*
X79188414Y-129003852D01*
X79342228Y-129034448D01*
G37*
G36*
X81956790Y-122830393D02*
G01*
X82120952Y-122883733D01*
X82274748Y-122962096D01*
X82414393Y-123063553D01*
X82536447Y-123185607D01*
X82637904Y-123325252D01*
X82716267Y-123479048D01*
X82769607Y-123643210D01*
X82796609Y-123813695D01*
X82796609Y-123986305D01*
X82769607Y-124156790D01*
X82716267Y-124320952D01*
X82637904Y-124474748D01*
X82536447Y-124614393D01*
X82414393Y-124736447D01*
X82274748Y-124837904D01*
X82120952Y-124916267D01*
X81956790Y-124969607D01*
X81786305Y-124996609D01*
X81613695Y-124996609D01*
X81443210Y-124969607D01*
X81279048Y-124916267D01*
X81125252Y-124837904D01*
X80985607Y-124736447D01*
X80863553Y-124614393D01*
X80762096Y-124474748D01*
X80683733Y-124320952D01*
X80630393Y-124156790D01*
X80603391Y-123986305D01*
X80603391Y-123813695D01*
X80630393Y-123643210D01*
X80683733Y-123479048D01*
X80762096Y-123325252D01*
X80863553Y-123185607D01*
X80985607Y-123063553D01*
X81125252Y-122962096D01*
X81279048Y-122883733D01*
X81443210Y-122830393D01*
X81613695Y-122803391D01*
X81786305Y-122803391D01*
X81956790Y-122830393D01*
G37*
G36*
X72179850Y-122975964D02*
G01*
X72230040Y-122981787D01*
X72247189Y-122989359D01*
X72270671Y-122994030D01*
X72295810Y-123010827D01*
X72315696Y-123019608D01*
X72329277Y-123033189D01*
X72351777Y-123048223D01*
X72366810Y-123070722D01*
X72380391Y-123084303D01*
X72389170Y-123104186D01*
X72405970Y-123129329D01*
X72410641Y-123152812D01*
X72418212Y-123169959D01*
X72424033Y-123220139D01*
X72425000Y-123225000D01*
X72425000Y-124575000D01*
X72424032Y-124579863D01*
X72418212Y-124630040D01*
X72410641Y-124647185D01*
X72405970Y-124670671D01*
X72389169Y-124695815D01*
X72380391Y-124715696D01*
X72366812Y-124729274D01*
X72351777Y-124751777D01*
X72329274Y-124766812D01*
X72315696Y-124780391D01*
X72295815Y-124789169D01*
X72270671Y-124805970D01*
X72247185Y-124810641D01*
X72230040Y-124818212D01*
X72179861Y-124824032D01*
X72175000Y-124825000D01*
X70825000Y-124825000D01*
X70820138Y-124824032D01*
X70769959Y-124818212D01*
X70752812Y-124810641D01*
X70729329Y-124805970D01*
X70704186Y-124789170D01*
X70684303Y-124780391D01*
X70670722Y-124766810D01*
X70648223Y-124751777D01*
X70633189Y-124729277D01*
X70619608Y-124715696D01*
X70610827Y-124695810D01*
X70594030Y-124670671D01*
X70589359Y-124647189D01*
X70581787Y-124630040D01*
X70575964Y-124579849D01*
X70575000Y-124575000D01*
X70575000Y-123225000D01*
X70575964Y-123220150D01*
X70581787Y-123169959D01*
X70589359Y-123152808D01*
X70594030Y-123129329D01*
X70610826Y-123104191D01*
X70619608Y-123084303D01*
X70633191Y-123070719D01*
X70648223Y-123048223D01*
X70670719Y-123033191D01*
X70684303Y-123019608D01*
X70704191Y-123010826D01*
X70729329Y-122994030D01*
X70752808Y-122989359D01*
X70769959Y-122981787D01*
X70820151Y-122975964D01*
X70825000Y-122975000D01*
X72175000Y-122975000D01*
X72179850Y-122975964D01*
G37*
G36*
X81956790Y-118630393D02*
G01*
X82120952Y-118683733D01*
X82274748Y-118762096D01*
X82414393Y-118863553D01*
X82536447Y-118985607D01*
X82637904Y-119125252D01*
X82716267Y-119279048D01*
X82769607Y-119443210D01*
X82796609Y-119613695D01*
X82796609Y-119786305D01*
X82769607Y-119956790D01*
X82716267Y-120120952D01*
X82637904Y-120274748D01*
X82536447Y-120414393D01*
X82414393Y-120536447D01*
X82274748Y-120637904D01*
X82120952Y-120716267D01*
X81956790Y-120769607D01*
X81786305Y-120796609D01*
X81613695Y-120796609D01*
X81443210Y-120769607D01*
X81279048Y-120716267D01*
X81125252Y-120637904D01*
X80985607Y-120536447D01*
X80863553Y-120414393D01*
X80762096Y-120274748D01*
X80683733Y-120120952D01*
X80630393Y-119956790D01*
X80603391Y-119786305D01*
X80603391Y-119613695D01*
X80630393Y-119443210D01*
X80683733Y-119279048D01*
X80762096Y-119125252D01*
X80863553Y-118985607D01*
X80985607Y-118863553D01*
X81125252Y-118762096D01*
X81279048Y-118683733D01*
X81443210Y-118630393D01*
X81613695Y-118603391D01*
X81786305Y-118603391D01*
X81956790Y-118630393D01*
G37*
G36*
X71768513Y-118814830D02*
G01*
X71936042Y-118884223D01*
X72086814Y-118984965D01*
X72215035Y-119113186D01*
X72315777Y-119263958D01*
X72385170Y-119431487D01*
X72420546Y-119609334D01*
X72420546Y-119790666D01*
X72385170Y-119968513D01*
X72315777Y-120136042D01*
X72215035Y-120286814D01*
X72086814Y-120415035D01*
X71936042Y-120515777D01*
X71768513Y-120585170D01*
X71590666Y-120620546D01*
X71409334Y-120620546D01*
X71231487Y-120585170D01*
X71063958Y-120515777D01*
X70913186Y-120415035D01*
X70784965Y-120286814D01*
X70684223Y-120136042D01*
X70614830Y-119968513D01*
X70579454Y-119790666D01*
X70579454Y-119609334D01*
X70614830Y-119431487D01*
X70684223Y-119263958D01*
X70784965Y-119113186D01*
X70913186Y-118984965D01*
X71063958Y-118884223D01*
X71231487Y-118814830D01*
X71409334Y-118779454D01*
X71590666Y-118779454D01*
X71768513Y-118814830D01*
G37*
G36*
X90334331Y-111902343D02*
G01*
X90449337Y-111949980D01*
X90552840Y-112019138D01*
X90640862Y-112107160D01*
X90710020Y-112210663D01*
X90757657Y-112325669D01*
X90781942Y-112447759D01*
X90781942Y-112572241D01*
X90757657Y-112694331D01*
X90710020Y-112809337D01*
X90640862Y-112912840D01*
X90552840Y-113000862D01*
X90449337Y-113070020D01*
X90334331Y-113117657D01*
X90212241Y-113141942D01*
X90087759Y-113141942D01*
X89965669Y-113117657D01*
X89850663Y-113070020D01*
X89747160Y-113000862D01*
X89659138Y-112912840D01*
X89589980Y-112809337D01*
X89542343Y-112694331D01*
X89518058Y-112572241D01*
X89518058Y-112447759D01*
X89542343Y-112325669D01*
X89589980Y-112210663D01*
X89659138Y-112107160D01*
X89747160Y-112019138D01*
X89850663Y-111949980D01*
X89965669Y-111902343D01*
X90087759Y-111878058D01*
X90212241Y-111878058D01*
X90334331Y-111902343D01*
G37*
G36*
X95530000Y-112590000D02*
G01*
X93830000Y-112590000D01*
X93830000Y-110890000D01*
X95530000Y-110890000D01*
X95530000Y-112590000D01*
G37*
G36*
X97466742Y-110926601D02*
G01*
X97620687Y-110990367D01*
X97759234Y-111082941D01*
X97877059Y-111200766D01*
X97969633Y-111339313D01*
X98033399Y-111493258D01*
X98065907Y-111656685D01*
X98065907Y-111823315D01*
X98033399Y-111986742D01*
X97969633Y-112140687D01*
X97877059Y-112279234D01*
X97759234Y-112397059D01*
X97620687Y-112489633D01*
X97466742Y-112553399D01*
X97303315Y-112585907D01*
X97136685Y-112585907D01*
X96973258Y-112553399D01*
X96819313Y-112489633D01*
X96680766Y-112397059D01*
X96562941Y-112279234D01*
X96470367Y-112140687D01*
X96406601Y-111986742D01*
X96374093Y-111823315D01*
X96374093Y-111656685D01*
X96406601Y-111493258D01*
X96470367Y-111339313D01*
X96562941Y-111200766D01*
X96680766Y-111082941D01*
X96819313Y-110990367D01*
X96973258Y-110926601D01*
X97136685Y-110894093D01*
X97303315Y-110894093D01*
X97466742Y-110926601D01*
G37*
G36*
X100006742Y-110926601D02*
G01*
X100160687Y-110990367D01*
X100299234Y-111082941D01*
X100417059Y-111200766D01*
X100509633Y-111339313D01*
X100573399Y-111493258D01*
X100605907Y-111656685D01*
X100605907Y-111823315D01*
X100573399Y-111986742D01*
X100509633Y-112140687D01*
X100417059Y-112279234D01*
X100299234Y-112397059D01*
X100160687Y-112489633D01*
X100006742Y-112553399D01*
X99843315Y-112585907D01*
X99676685Y-112585907D01*
X99513258Y-112553399D01*
X99359313Y-112489633D01*
X99220766Y-112397059D01*
X99102941Y-112279234D01*
X99010367Y-112140687D01*
X98946601Y-111986742D01*
X98914093Y-111823315D01*
X98914093Y-111656685D01*
X98946601Y-111493258D01*
X99010367Y-111339313D01*
X99102941Y-111200766D01*
X99220766Y-111082941D01*
X99359313Y-110990367D01*
X99513258Y-110926601D01*
X99676685Y-110894093D01*
X99843315Y-110894093D01*
X100006742Y-110926601D01*
G37*
G36*
X102546742Y-110926601D02*
G01*
X102700687Y-110990367D01*
X102839234Y-111082941D01*
X102957059Y-111200766D01*
X103049633Y-111339313D01*
X103113399Y-111493258D01*
X103145907Y-111656685D01*
X103145907Y-111823315D01*
X103113399Y-111986742D01*
X103049633Y-112140687D01*
X102957059Y-112279234D01*
X102839234Y-112397059D01*
X102700687Y-112489633D01*
X102546742Y-112553399D01*
X102383315Y-112585907D01*
X102216685Y-112585907D01*
X102053258Y-112553399D01*
X101899313Y-112489633D01*
X101760766Y-112397059D01*
X101642941Y-112279234D01*
X101550367Y-112140687D01*
X101486601Y-111986742D01*
X101454093Y-111823315D01*
X101454093Y-111656685D01*
X101486601Y-111493258D01*
X101550367Y-111339313D01*
X101642941Y-111200766D01*
X101760766Y-111082941D01*
X101899313Y-110990367D01*
X102053258Y-110926601D01*
X102216685Y-110894093D01*
X102383315Y-110894093D01*
X102546742Y-110926601D01*
G37*
G36*
X105086742Y-110926601D02*
G01*
X105240687Y-110990367D01*
X105379234Y-111082941D01*
X105497059Y-111200766D01*
X105589633Y-111339313D01*
X105653399Y-111493258D01*
X105685907Y-111656685D01*
X105685907Y-111823315D01*
X105653399Y-111986742D01*
X105589633Y-112140687D01*
X105497059Y-112279234D01*
X105379234Y-112397059D01*
X105240687Y-112489633D01*
X105086742Y-112553399D01*
X104923315Y-112585907D01*
X104756685Y-112585907D01*
X104593258Y-112553399D01*
X104439313Y-112489633D01*
X104300766Y-112397059D01*
X104182941Y-112279234D01*
X104090367Y-112140687D01*
X104026601Y-111986742D01*
X103994093Y-111823315D01*
X103994093Y-111656685D01*
X104026601Y-111493258D01*
X104090367Y-111339313D01*
X104182941Y-111200766D01*
X104300766Y-111082941D01*
X104439313Y-110990367D01*
X104593258Y-110926601D01*
X104756685Y-110894093D01*
X104923315Y-110894093D01*
X105086742Y-110926601D01*
G37*
G36*
X107626742Y-110926601D02*
G01*
X107780687Y-110990367D01*
X107919234Y-111082941D01*
X108037059Y-111200766D01*
X108129633Y-111339313D01*
X108193399Y-111493258D01*
X108225907Y-111656685D01*
X108225907Y-111823315D01*
X108193399Y-111986742D01*
X108129633Y-112140687D01*
X108037059Y-112279234D01*
X107919234Y-112397059D01*
X107780687Y-112489633D01*
X107626742Y-112553399D01*
X107463315Y-112585907D01*
X107296685Y-112585907D01*
X107133258Y-112553399D01*
X106979313Y-112489633D01*
X106840766Y-112397059D01*
X106722941Y-112279234D01*
X106630367Y-112140687D01*
X106566601Y-111986742D01*
X106534093Y-111823315D01*
X106534093Y-111656685D01*
X106566601Y-111493258D01*
X106630367Y-111339313D01*
X106722941Y-111200766D01*
X106840766Y-111082941D01*
X106979313Y-110990367D01*
X107133258Y-110926601D01*
X107296685Y-110894093D01*
X107463315Y-110894093D01*
X107626742Y-110926601D01*
G37*
G36*
X110166742Y-110926601D02*
G01*
X110320687Y-110990367D01*
X110459234Y-111082941D01*
X110577059Y-111200766D01*
X110669633Y-111339313D01*
X110733399Y-111493258D01*
X110765907Y-111656685D01*
X110765907Y-111823315D01*
X110733399Y-111986742D01*
X110669633Y-112140687D01*
X110577059Y-112279234D01*
X110459234Y-112397059D01*
X110320687Y-112489633D01*
X110166742Y-112553399D01*
X110003315Y-112585907D01*
X109836685Y-112585907D01*
X109673258Y-112553399D01*
X109519313Y-112489633D01*
X109380766Y-112397059D01*
X109262941Y-112279234D01*
X109170367Y-112140687D01*
X109106601Y-111986742D01*
X109074093Y-111823315D01*
X109074093Y-111656685D01*
X109106601Y-111493258D01*
X109170367Y-111339313D01*
X109262941Y-111200766D01*
X109380766Y-111082941D01*
X109519313Y-110990367D01*
X109673258Y-110926601D01*
X109836685Y-110894093D01*
X110003315Y-110894093D01*
X110166742Y-110926601D01*
G37*
G36*
X112706742Y-110926601D02*
G01*
X112860687Y-110990367D01*
X112999234Y-111082941D01*
X113117059Y-111200766D01*
X113209633Y-111339313D01*
X113273399Y-111493258D01*
X113305907Y-111656685D01*
X113305907Y-111823315D01*
X113273399Y-111986742D01*
X113209633Y-112140687D01*
X113117059Y-112279234D01*
X112999234Y-112397059D01*
X112860687Y-112489633D01*
X112706742Y-112553399D01*
X112543315Y-112585907D01*
X112376685Y-112585907D01*
X112213258Y-112553399D01*
X112059313Y-112489633D01*
X111920766Y-112397059D01*
X111802941Y-112279234D01*
X111710367Y-112140687D01*
X111646601Y-111986742D01*
X111614093Y-111823315D01*
X111614093Y-111656685D01*
X111646601Y-111493258D01*
X111710367Y-111339313D01*
X111802941Y-111200766D01*
X111920766Y-111082941D01*
X112059313Y-110990367D01*
X112213258Y-110926601D01*
X112376685Y-110894093D01*
X112543315Y-110894093D01*
X112706742Y-110926601D01*
G37*
G36*
X115246742Y-110926601D02*
G01*
X115400687Y-110990367D01*
X115539234Y-111082941D01*
X115657059Y-111200766D01*
X115749633Y-111339313D01*
X115813399Y-111493258D01*
X115845907Y-111656685D01*
X115845907Y-111823315D01*
X115813399Y-111986742D01*
X115749633Y-112140687D01*
X115657059Y-112279234D01*
X115539234Y-112397059D01*
X115400687Y-112489633D01*
X115246742Y-112553399D01*
X115083315Y-112585907D01*
X114916685Y-112585907D01*
X114753258Y-112553399D01*
X114599313Y-112489633D01*
X114460766Y-112397059D01*
X114342941Y-112279234D01*
X114250367Y-112140687D01*
X114186601Y-111986742D01*
X114154093Y-111823315D01*
X114154093Y-111656685D01*
X114186601Y-111493258D01*
X114250367Y-111339313D01*
X114342941Y-111200766D01*
X114460766Y-111082941D01*
X114599313Y-110990367D01*
X114753258Y-110926601D01*
X114916685Y-110894093D01*
X115083315Y-110894093D01*
X115246742Y-110926601D01*
G37*
G36*
X117786742Y-110926601D02*
G01*
X117940687Y-110990367D01*
X118079234Y-111082941D01*
X118197059Y-111200766D01*
X118289633Y-111339313D01*
X118353399Y-111493258D01*
X118385907Y-111656685D01*
X118385907Y-111823315D01*
X118353399Y-111986742D01*
X118289633Y-112140687D01*
X118197059Y-112279234D01*
X118079234Y-112397059D01*
X117940687Y-112489633D01*
X117786742Y-112553399D01*
X117623315Y-112585907D01*
X117456685Y-112585907D01*
X117293258Y-112553399D01*
X117139313Y-112489633D01*
X117000766Y-112397059D01*
X116882941Y-112279234D01*
X116790367Y-112140687D01*
X116726601Y-111986742D01*
X116694093Y-111823315D01*
X116694093Y-111656685D01*
X116726601Y-111493258D01*
X116790367Y-111339313D01*
X116882941Y-111200766D01*
X117000766Y-111082941D01*
X117139313Y-110990367D01*
X117293258Y-110926601D01*
X117456685Y-110894093D01*
X117623315Y-110894093D01*
X117786742Y-110926601D01*
G37*
G36*
X120326742Y-110926601D02*
G01*
X120480687Y-110990367D01*
X120619234Y-111082941D01*
X120737059Y-111200766D01*
X120829633Y-111339313D01*
X120893399Y-111493258D01*
X120925907Y-111656685D01*
X120925907Y-111823315D01*
X120893399Y-111986742D01*
X120829633Y-112140687D01*
X120737059Y-112279234D01*
X120619234Y-112397059D01*
X120480687Y-112489633D01*
X120326742Y-112553399D01*
X120163315Y-112585907D01*
X119996685Y-112585907D01*
X119833258Y-112553399D01*
X119679313Y-112489633D01*
X119540766Y-112397059D01*
X119422941Y-112279234D01*
X119330367Y-112140687D01*
X119266601Y-111986742D01*
X119234093Y-111823315D01*
X119234093Y-111656685D01*
X119266601Y-111493258D01*
X119330367Y-111339313D01*
X119422941Y-111200766D01*
X119540766Y-111082941D01*
X119679313Y-110990367D01*
X119833258Y-110926601D01*
X119996685Y-110894093D01*
X120163315Y-110894093D01*
X120326742Y-110926601D01*
G37*
G36*
X122866742Y-110926601D02*
G01*
X123020687Y-110990367D01*
X123159234Y-111082941D01*
X123277059Y-111200766D01*
X123369633Y-111339313D01*
X123433399Y-111493258D01*
X123465907Y-111656685D01*
X123465907Y-111823315D01*
X123433399Y-111986742D01*
X123369633Y-112140687D01*
X123277059Y-112279234D01*
X123159234Y-112397059D01*
X123020687Y-112489633D01*
X122866742Y-112553399D01*
X122703315Y-112585907D01*
X122536685Y-112585907D01*
X122373258Y-112553399D01*
X122219313Y-112489633D01*
X122080766Y-112397059D01*
X121962941Y-112279234D01*
X121870367Y-112140687D01*
X121806601Y-111986742D01*
X121774093Y-111823315D01*
X121774093Y-111656685D01*
X121806601Y-111493258D01*
X121870367Y-111339313D01*
X121962941Y-111200766D01*
X122080766Y-111082941D01*
X122219313Y-110990367D01*
X122373258Y-110926601D01*
X122536685Y-110894093D01*
X122703315Y-110894093D01*
X122866742Y-110926601D01*
G37*
G36*
X125406742Y-110926601D02*
G01*
X125560687Y-110990367D01*
X125699234Y-111082941D01*
X125817059Y-111200766D01*
X125909633Y-111339313D01*
X125973399Y-111493258D01*
X126005907Y-111656685D01*
X126005907Y-111823315D01*
X125973399Y-111986742D01*
X125909633Y-112140687D01*
X125817059Y-112279234D01*
X125699234Y-112397059D01*
X125560687Y-112489633D01*
X125406742Y-112553399D01*
X125243315Y-112585907D01*
X125076685Y-112585907D01*
X124913258Y-112553399D01*
X124759313Y-112489633D01*
X124620766Y-112397059D01*
X124502941Y-112279234D01*
X124410367Y-112140687D01*
X124346601Y-111986742D01*
X124314093Y-111823315D01*
X124314093Y-111656685D01*
X124346601Y-111493258D01*
X124410367Y-111339313D01*
X124502941Y-111200766D01*
X124620766Y-111082941D01*
X124759313Y-110990367D01*
X124913258Y-110926601D01*
X125076685Y-110894093D01*
X125243315Y-110894093D01*
X125406742Y-110926601D01*
G37*
G36*
X127946742Y-110926601D02*
G01*
X128100687Y-110990367D01*
X128239234Y-111082941D01*
X128357059Y-111200766D01*
X128449633Y-111339313D01*
X128513399Y-111493258D01*
X128545907Y-111656685D01*
X128545907Y-111823315D01*
X128513399Y-111986742D01*
X128449633Y-112140687D01*
X128357059Y-112279234D01*
X128239234Y-112397059D01*
X128100687Y-112489633D01*
X127946742Y-112553399D01*
X127783315Y-112585907D01*
X127616685Y-112585907D01*
X127453258Y-112553399D01*
X127299313Y-112489633D01*
X127160766Y-112397059D01*
X127042941Y-112279234D01*
X126950367Y-112140687D01*
X126886601Y-111986742D01*
X126854093Y-111823315D01*
X126854093Y-111656685D01*
X126886601Y-111493258D01*
X126950367Y-111339313D01*
X127042941Y-111200766D01*
X127160766Y-111082941D01*
X127299313Y-110990367D01*
X127453258Y-110926601D01*
X127616685Y-110894093D01*
X127783315Y-110894093D01*
X127946742Y-110926601D01*
G37*
G36*
X130486742Y-110926601D02*
G01*
X130640687Y-110990367D01*
X130779234Y-111082941D01*
X130897059Y-111200766D01*
X130989633Y-111339313D01*
X131053399Y-111493258D01*
X131085907Y-111656685D01*
X131085907Y-111823315D01*
X131053399Y-111986742D01*
X130989633Y-112140687D01*
X130897059Y-112279234D01*
X130779234Y-112397059D01*
X130640687Y-112489633D01*
X130486742Y-112553399D01*
X130323315Y-112585907D01*
X130156685Y-112585907D01*
X129993258Y-112553399D01*
X129839313Y-112489633D01*
X129700766Y-112397059D01*
X129582941Y-112279234D01*
X129490367Y-112140687D01*
X129426601Y-111986742D01*
X129394093Y-111823315D01*
X129394093Y-111656685D01*
X129426601Y-111493258D01*
X129490367Y-111339313D01*
X129582941Y-111200766D01*
X129700766Y-111082941D01*
X129839313Y-110990367D01*
X129993258Y-110926601D01*
X130156685Y-110894093D01*
X130323315Y-110894093D01*
X130486742Y-110926601D01*
G37*
G36*
X133026742Y-110926601D02*
G01*
X133180687Y-110990367D01*
X133319234Y-111082941D01*
X133437059Y-111200766D01*
X133529633Y-111339313D01*
X133593399Y-111493258D01*
X133625907Y-111656685D01*
X133625907Y-111823315D01*
X133593399Y-111986742D01*
X133529633Y-112140687D01*
X133437059Y-112279234D01*
X133319234Y-112397059D01*
X133180687Y-112489633D01*
X133026742Y-112553399D01*
X132863315Y-112585907D01*
X132696685Y-112585907D01*
X132533258Y-112553399D01*
X132379313Y-112489633D01*
X132240766Y-112397059D01*
X132122941Y-112279234D01*
X132030367Y-112140687D01*
X131966601Y-111986742D01*
X131934093Y-111823315D01*
X131934093Y-111656685D01*
X131966601Y-111493258D01*
X132030367Y-111339313D01*
X132122941Y-111200766D01*
X132240766Y-111082941D01*
X132379313Y-110990367D01*
X132533258Y-110926601D01*
X132696685Y-110894093D01*
X132863315Y-110894093D01*
X133026742Y-110926601D01*
G37*
G36*
X135566742Y-110926601D02*
G01*
X135720687Y-110990367D01*
X135859234Y-111082941D01*
X135977059Y-111200766D01*
X136069633Y-111339313D01*
X136133399Y-111493258D01*
X136165907Y-111656685D01*
X136165907Y-111823315D01*
X136133399Y-111986742D01*
X136069633Y-112140687D01*
X135977059Y-112279234D01*
X135859234Y-112397059D01*
X135720687Y-112489633D01*
X135566742Y-112553399D01*
X135403315Y-112585907D01*
X135236685Y-112585907D01*
X135073258Y-112553399D01*
X134919313Y-112489633D01*
X134780766Y-112397059D01*
X134662941Y-112279234D01*
X134570367Y-112140687D01*
X134506601Y-111986742D01*
X134474093Y-111823315D01*
X134474093Y-111656685D01*
X134506601Y-111493258D01*
X134570367Y-111339313D01*
X134662941Y-111200766D01*
X134780766Y-111082941D01*
X134919313Y-110990367D01*
X135073258Y-110926601D01*
X135236685Y-110894093D01*
X135403315Y-110894093D01*
X135566742Y-110926601D01*
G37*
G36*
X138106742Y-110926601D02*
G01*
X138260687Y-110990367D01*
X138399234Y-111082941D01*
X138517059Y-111200766D01*
X138609633Y-111339313D01*
X138673399Y-111493258D01*
X138705907Y-111656685D01*
X138705907Y-111823315D01*
X138673399Y-111986742D01*
X138609633Y-112140687D01*
X138517059Y-112279234D01*
X138399234Y-112397059D01*
X138260687Y-112489633D01*
X138106742Y-112553399D01*
X137943315Y-112585907D01*
X137776685Y-112585907D01*
X137613258Y-112553399D01*
X137459313Y-112489633D01*
X137320766Y-112397059D01*
X137202941Y-112279234D01*
X137110367Y-112140687D01*
X137046601Y-111986742D01*
X137014093Y-111823315D01*
X137014093Y-111656685D01*
X137046601Y-111493258D01*
X137110367Y-111339313D01*
X137202941Y-111200766D01*
X137320766Y-111082941D01*
X137459313Y-110990367D01*
X137613258Y-110926601D01*
X137776685Y-110894093D01*
X137943315Y-110894093D01*
X138106742Y-110926601D01*
G37*
G36*
X140646742Y-110926601D02*
G01*
X140800687Y-110990367D01*
X140939234Y-111082941D01*
X141057059Y-111200766D01*
X141149633Y-111339313D01*
X141213399Y-111493258D01*
X141245907Y-111656685D01*
X141245907Y-111823315D01*
X141213399Y-111986742D01*
X141149633Y-112140687D01*
X141057059Y-112279234D01*
X140939234Y-112397059D01*
X140800687Y-112489633D01*
X140646742Y-112553399D01*
X140483315Y-112585907D01*
X140316685Y-112585907D01*
X140153258Y-112553399D01*
X139999313Y-112489633D01*
X139860766Y-112397059D01*
X139742941Y-112279234D01*
X139650367Y-112140687D01*
X139586601Y-111986742D01*
X139554093Y-111823315D01*
X139554093Y-111656685D01*
X139586601Y-111493258D01*
X139650367Y-111339313D01*
X139742941Y-111200766D01*
X139860766Y-111082941D01*
X139999313Y-110990367D01*
X140153258Y-110926601D01*
X140316685Y-110894093D01*
X140483315Y-110894093D01*
X140646742Y-110926601D01*
G37*
G36*
X143186742Y-110926601D02*
G01*
X143340687Y-110990367D01*
X143479234Y-111082941D01*
X143597059Y-111200766D01*
X143689633Y-111339313D01*
X143753399Y-111493258D01*
X143785907Y-111656685D01*
X143785907Y-111823315D01*
X143753399Y-111986742D01*
X143689633Y-112140687D01*
X143597059Y-112279234D01*
X143479234Y-112397059D01*
X143340687Y-112489633D01*
X143186742Y-112553399D01*
X143023315Y-112585907D01*
X142856685Y-112585907D01*
X142693258Y-112553399D01*
X142539313Y-112489633D01*
X142400766Y-112397059D01*
X142282941Y-112279234D01*
X142190367Y-112140687D01*
X142126601Y-111986742D01*
X142094093Y-111823315D01*
X142094093Y-111656685D01*
X142126601Y-111493258D01*
X142190367Y-111339313D01*
X142282941Y-111200766D01*
X142400766Y-111082941D01*
X142539313Y-110990367D01*
X142693258Y-110926601D01*
X142856685Y-110894093D01*
X143023315Y-110894093D01*
X143186742Y-110926601D01*
G37*
G36*
X90334331Y-109362343D02*
G01*
X90449337Y-109409980D01*
X90552840Y-109479138D01*
X90640862Y-109567160D01*
X90710020Y-109670663D01*
X90757657Y-109785669D01*
X90781942Y-109907759D01*
X90781942Y-110032241D01*
X90757657Y-110154331D01*
X90710020Y-110269337D01*
X90640862Y-110372840D01*
X90552840Y-110460862D01*
X90449337Y-110530020D01*
X90334331Y-110577657D01*
X90212241Y-110601942D01*
X90087759Y-110601942D01*
X89965669Y-110577657D01*
X89850663Y-110530020D01*
X89747160Y-110460862D01*
X89659138Y-110372840D01*
X89589980Y-110269337D01*
X89542343Y-110154331D01*
X89518058Y-110032241D01*
X89518058Y-109907759D01*
X89542343Y-109785669D01*
X89589980Y-109670663D01*
X89659138Y-109567160D01*
X89747160Y-109479138D01*
X89850663Y-109409980D01*
X89965669Y-109362343D01*
X90087759Y-109338058D01*
X90212241Y-109338058D01*
X90334331Y-109362343D01*
G37*
G36*
X94926742Y-108386601D02*
G01*
X95080687Y-108450367D01*
X95219234Y-108542941D01*
X95337059Y-108660766D01*
X95429633Y-108799313D01*
X95493399Y-108953258D01*
X95525907Y-109116685D01*
X95525907Y-109283315D01*
X95493399Y-109446742D01*
X95429633Y-109600687D01*
X95337059Y-109739234D01*
X95219234Y-109857059D01*
X95080687Y-109949633D01*
X94926742Y-110013399D01*
X94763315Y-110045907D01*
X94596685Y-110045907D01*
X94433258Y-110013399D01*
X94279313Y-109949633D01*
X94140766Y-109857059D01*
X94022941Y-109739234D01*
X93930367Y-109600687D01*
X93866601Y-109446742D01*
X93834093Y-109283315D01*
X93834093Y-109116685D01*
X93866601Y-108953258D01*
X93930367Y-108799313D01*
X94022941Y-108660766D01*
X94140766Y-108542941D01*
X94279313Y-108450367D01*
X94433258Y-108386601D01*
X94596685Y-108354093D01*
X94763315Y-108354093D01*
X94926742Y-108386601D01*
G37*
G36*
X97466742Y-108386601D02*
G01*
X97620687Y-108450367D01*
X97759234Y-108542941D01*
X97877059Y-108660766D01*
X97969633Y-108799313D01*
X98033399Y-108953258D01*
X98065907Y-109116685D01*
X98065907Y-109283315D01*
X98033399Y-109446742D01*
X97969633Y-109600687D01*
X97877059Y-109739234D01*
X97759234Y-109857059D01*
X97620687Y-109949633D01*
X97466742Y-110013399D01*
X97303315Y-110045907D01*
X97136685Y-110045907D01*
X96973258Y-110013399D01*
X96819313Y-109949633D01*
X96680766Y-109857059D01*
X96562941Y-109739234D01*
X96470367Y-109600687D01*
X96406601Y-109446742D01*
X96374093Y-109283315D01*
X96374093Y-109116685D01*
X96406601Y-108953258D01*
X96470367Y-108799313D01*
X96562941Y-108660766D01*
X96680766Y-108542941D01*
X96819313Y-108450367D01*
X96973258Y-108386601D01*
X97136685Y-108354093D01*
X97303315Y-108354093D01*
X97466742Y-108386601D01*
G37*
G36*
X100006742Y-108386601D02*
G01*
X100160687Y-108450367D01*
X100299234Y-108542941D01*
X100417059Y-108660766D01*
X100509633Y-108799313D01*
X100573399Y-108953258D01*
X100605907Y-109116685D01*
X100605907Y-109283315D01*
X100573399Y-109446742D01*
X100509633Y-109600687D01*
X100417059Y-109739234D01*
X100299234Y-109857059D01*
X100160687Y-109949633D01*
X100006742Y-110013399D01*
X99843315Y-110045907D01*
X99676685Y-110045907D01*
X99513258Y-110013399D01*
X99359313Y-109949633D01*
X99220766Y-109857059D01*
X99102941Y-109739234D01*
X99010367Y-109600687D01*
X98946601Y-109446742D01*
X98914093Y-109283315D01*
X98914093Y-109116685D01*
X98946601Y-108953258D01*
X99010367Y-108799313D01*
X99102941Y-108660766D01*
X99220766Y-108542941D01*
X99359313Y-108450367D01*
X99513258Y-108386601D01*
X99676685Y-108354093D01*
X99843315Y-108354093D01*
X100006742Y-108386601D01*
G37*
G36*
X102546742Y-108386601D02*
G01*
X102700687Y-108450367D01*
X102839234Y-108542941D01*
X102957059Y-108660766D01*
X103049633Y-108799313D01*
X103113399Y-108953258D01*
X103145907Y-109116685D01*
X103145907Y-109283315D01*
X103113399Y-109446742D01*
X103049633Y-109600687D01*
X102957059Y-109739234D01*
X102839234Y-109857059D01*
X102700687Y-109949633D01*
X102546742Y-110013399D01*
X102383315Y-110045907D01*
X102216685Y-110045907D01*
X102053258Y-110013399D01*
X101899313Y-109949633D01*
X101760766Y-109857059D01*
X101642941Y-109739234D01*
X101550367Y-109600687D01*
X101486601Y-109446742D01*
X101454093Y-109283315D01*
X101454093Y-109116685D01*
X101486601Y-108953258D01*
X101550367Y-108799313D01*
X101642941Y-108660766D01*
X101760766Y-108542941D01*
X101899313Y-108450367D01*
X102053258Y-108386601D01*
X102216685Y-108354093D01*
X102383315Y-108354093D01*
X102546742Y-108386601D01*
G37*
G36*
X105086742Y-108386601D02*
G01*
X105240687Y-108450367D01*
X105379234Y-108542941D01*
X105497059Y-108660766D01*
X105589633Y-108799313D01*
X105653399Y-108953258D01*
X105685907Y-109116685D01*
X105685907Y-109283315D01*
X105653399Y-109446742D01*
X105589633Y-109600687D01*
X105497059Y-109739234D01*
X105379234Y-109857059D01*
X105240687Y-109949633D01*
X105086742Y-110013399D01*
X104923315Y-110045907D01*
X104756685Y-110045907D01*
X104593258Y-110013399D01*
X104439313Y-109949633D01*
X104300766Y-109857059D01*
X104182941Y-109739234D01*
X104090367Y-109600687D01*
X104026601Y-109446742D01*
X103994093Y-109283315D01*
X103994093Y-109116685D01*
X104026601Y-108953258D01*
X104090367Y-108799313D01*
X104182941Y-108660766D01*
X104300766Y-108542941D01*
X104439313Y-108450367D01*
X104593258Y-108386601D01*
X104756685Y-108354093D01*
X104923315Y-108354093D01*
X105086742Y-108386601D01*
G37*
G36*
X107626742Y-108386601D02*
G01*
X107780687Y-108450367D01*
X107919234Y-108542941D01*
X108037059Y-108660766D01*
X108129633Y-108799313D01*
X108193399Y-108953258D01*
X108225907Y-109116685D01*
X108225907Y-109283315D01*
X108193399Y-109446742D01*
X108129633Y-109600687D01*
X108037059Y-109739234D01*
X107919234Y-109857059D01*
X107780687Y-109949633D01*
X107626742Y-110013399D01*
X107463315Y-110045907D01*
X107296685Y-110045907D01*
X107133258Y-110013399D01*
X106979313Y-109949633D01*
X106840766Y-109857059D01*
X106722941Y-109739234D01*
X106630367Y-109600687D01*
X106566601Y-109446742D01*
X106534093Y-109283315D01*
X106534093Y-109116685D01*
X106566601Y-108953258D01*
X106630367Y-108799313D01*
X106722941Y-108660766D01*
X106840766Y-108542941D01*
X106979313Y-108450367D01*
X107133258Y-108386601D01*
X107296685Y-108354093D01*
X107463315Y-108354093D01*
X107626742Y-108386601D01*
G37*
G36*
X110166742Y-108386601D02*
G01*
X110320687Y-108450367D01*
X110459234Y-108542941D01*
X110577059Y-108660766D01*
X110669633Y-108799313D01*
X110733399Y-108953258D01*
X110765907Y-109116685D01*
X110765907Y-109283315D01*
X110733399Y-109446742D01*
X110669633Y-109600687D01*
X110577059Y-109739234D01*
X110459234Y-109857059D01*
X110320687Y-109949633D01*
X110166742Y-110013399D01*
X110003315Y-110045907D01*
X109836685Y-110045907D01*
X109673258Y-110013399D01*
X109519313Y-109949633D01*
X109380766Y-109857059D01*
X109262941Y-109739234D01*
X109170367Y-109600687D01*
X109106601Y-109446742D01*
X109074093Y-109283315D01*
X109074093Y-109116685D01*
X109106601Y-108953258D01*
X109170367Y-108799313D01*
X109262941Y-108660766D01*
X109380766Y-108542941D01*
X109519313Y-108450367D01*
X109673258Y-108386601D01*
X109836685Y-108354093D01*
X110003315Y-108354093D01*
X110166742Y-108386601D01*
G37*
G36*
X112706742Y-108386601D02*
G01*
X112860687Y-108450367D01*
X112999234Y-108542941D01*
X113117059Y-108660766D01*
X113209633Y-108799313D01*
X113273399Y-108953258D01*
X113305907Y-109116685D01*
X113305907Y-109283315D01*
X113273399Y-109446742D01*
X113209633Y-109600687D01*
X113117059Y-109739234D01*
X112999234Y-109857059D01*
X112860687Y-109949633D01*
X112706742Y-110013399D01*
X112543315Y-110045907D01*
X112376685Y-110045907D01*
X112213258Y-110013399D01*
X112059313Y-109949633D01*
X111920766Y-109857059D01*
X111802941Y-109739234D01*
X111710367Y-109600687D01*
X111646601Y-109446742D01*
X111614093Y-109283315D01*
X111614093Y-109116685D01*
X111646601Y-108953258D01*
X111710367Y-108799313D01*
X111802941Y-108660766D01*
X111920766Y-108542941D01*
X112059313Y-108450367D01*
X112213258Y-108386601D01*
X112376685Y-108354093D01*
X112543315Y-108354093D01*
X112706742Y-108386601D01*
G37*
G36*
X115246742Y-108386601D02*
G01*
X115400687Y-108450367D01*
X115539234Y-108542941D01*
X115657059Y-108660766D01*
X115749633Y-108799313D01*
X115813399Y-108953258D01*
X115845907Y-109116685D01*
X115845907Y-109283315D01*
X115813399Y-109446742D01*
X115749633Y-109600687D01*
X115657059Y-109739234D01*
X115539234Y-109857059D01*
X115400687Y-109949633D01*
X115246742Y-110013399D01*
X115083315Y-110045907D01*
X114916685Y-110045907D01*
X114753258Y-110013399D01*
X114599313Y-109949633D01*
X114460766Y-109857059D01*
X114342941Y-109739234D01*
X114250367Y-109600687D01*
X114186601Y-109446742D01*
X114154093Y-109283315D01*
X114154093Y-109116685D01*
X114186601Y-108953258D01*
X114250367Y-108799313D01*
X114342941Y-108660766D01*
X114460766Y-108542941D01*
X114599313Y-108450367D01*
X114753258Y-108386601D01*
X114916685Y-108354093D01*
X115083315Y-108354093D01*
X115246742Y-108386601D01*
G37*
G36*
X117786742Y-108386601D02*
G01*
X117940687Y-108450367D01*
X118079234Y-108542941D01*
X118197059Y-108660766D01*
X118289633Y-108799313D01*
X118353399Y-108953258D01*
X118385907Y-109116685D01*
X118385907Y-109283315D01*
X118353399Y-109446742D01*
X118289633Y-109600687D01*
X118197059Y-109739234D01*
X118079234Y-109857059D01*
X117940687Y-109949633D01*
X117786742Y-110013399D01*
X117623315Y-110045907D01*
X117456685Y-110045907D01*
X117293258Y-110013399D01*
X117139313Y-109949633D01*
X117000766Y-109857059D01*
X116882941Y-109739234D01*
X116790367Y-109600687D01*
X116726601Y-109446742D01*
X116694093Y-109283315D01*
X116694093Y-109116685D01*
X116726601Y-108953258D01*
X116790367Y-108799313D01*
X116882941Y-108660766D01*
X117000766Y-108542941D01*
X117139313Y-108450367D01*
X117293258Y-108386601D01*
X117456685Y-108354093D01*
X117623315Y-108354093D01*
X117786742Y-108386601D01*
G37*
G36*
X120326742Y-108386601D02*
G01*
X120480687Y-108450367D01*
X120619234Y-108542941D01*
X120737059Y-108660766D01*
X120829633Y-108799313D01*
X120893399Y-108953258D01*
X120925907Y-109116685D01*
X120925907Y-109283315D01*
X120893399Y-109446742D01*
X120829633Y-109600687D01*
X120737059Y-109739234D01*
X120619234Y-109857059D01*
X120480687Y-109949633D01*
X120326742Y-110013399D01*
X120163315Y-110045907D01*
X119996685Y-110045907D01*
X119833258Y-110013399D01*
X119679313Y-109949633D01*
X119540766Y-109857059D01*
X119422941Y-109739234D01*
X119330367Y-109600687D01*
X119266601Y-109446742D01*
X119234093Y-109283315D01*
X119234093Y-109116685D01*
X119266601Y-108953258D01*
X119330367Y-108799313D01*
X119422941Y-108660766D01*
X119540766Y-108542941D01*
X119679313Y-108450367D01*
X119833258Y-108386601D01*
X119996685Y-108354093D01*
X120163315Y-108354093D01*
X120326742Y-108386601D01*
G37*
G36*
X122866742Y-108386601D02*
G01*
X123020687Y-108450367D01*
X123159234Y-108542941D01*
X123277059Y-108660766D01*
X123369633Y-108799313D01*
X123433399Y-108953258D01*
X123465907Y-109116685D01*
X123465907Y-109283315D01*
X123433399Y-109446742D01*
X123369633Y-109600687D01*
X123277059Y-109739234D01*
X123159234Y-109857059D01*
X123020687Y-109949633D01*
X122866742Y-110013399D01*
X122703315Y-110045907D01*
X122536685Y-110045907D01*
X122373258Y-110013399D01*
X122219313Y-109949633D01*
X122080766Y-109857059D01*
X121962941Y-109739234D01*
X121870367Y-109600687D01*
X121806601Y-109446742D01*
X121774093Y-109283315D01*
X121774093Y-109116685D01*
X121806601Y-108953258D01*
X121870367Y-108799313D01*
X121962941Y-108660766D01*
X122080766Y-108542941D01*
X122219313Y-108450367D01*
X122373258Y-108386601D01*
X122536685Y-108354093D01*
X122703315Y-108354093D01*
X122866742Y-108386601D01*
G37*
G36*
X125406742Y-108386601D02*
G01*
X125560687Y-108450367D01*
X125699234Y-108542941D01*
X125817059Y-108660766D01*
X125909633Y-108799313D01*
X125973399Y-108953258D01*
X126005907Y-109116685D01*
X126005907Y-109283315D01*
X125973399Y-109446742D01*
X125909633Y-109600687D01*
X125817059Y-109739234D01*
X125699234Y-109857059D01*
X125560687Y-109949633D01*
X125406742Y-110013399D01*
X125243315Y-110045907D01*
X125076685Y-110045907D01*
X124913258Y-110013399D01*
X124759313Y-109949633D01*
X124620766Y-109857059D01*
X124502941Y-109739234D01*
X124410367Y-109600687D01*
X124346601Y-109446742D01*
X124314093Y-109283315D01*
X124314093Y-109116685D01*
X124346601Y-108953258D01*
X124410367Y-108799313D01*
X124502941Y-108660766D01*
X124620766Y-108542941D01*
X124759313Y-108450367D01*
X124913258Y-108386601D01*
X125076685Y-108354093D01*
X125243315Y-108354093D01*
X125406742Y-108386601D01*
G37*
G36*
X127946742Y-108386601D02*
G01*
X128100687Y-108450367D01*
X128239234Y-108542941D01*
X128357059Y-108660766D01*
X128449633Y-108799313D01*
X128513399Y-108953258D01*
X128545907Y-109116685D01*
X128545907Y-109283315D01*
X128513399Y-109446742D01*
X128449633Y-109600687D01*
X128357059Y-109739234D01*
X128239234Y-109857059D01*
X128100687Y-109949633D01*
X127946742Y-110013399D01*
X127783315Y-110045907D01*
X127616685Y-110045907D01*
X127453258Y-110013399D01*
X127299313Y-109949633D01*
X127160766Y-109857059D01*
X127042941Y-109739234D01*
X126950367Y-109600687D01*
X126886601Y-109446742D01*
X126854093Y-109283315D01*
X126854093Y-109116685D01*
X126886601Y-108953258D01*
X126950367Y-108799313D01*
X127042941Y-108660766D01*
X127160766Y-108542941D01*
X127299313Y-108450367D01*
X127453258Y-108386601D01*
X127616685Y-108354093D01*
X127783315Y-108354093D01*
X127946742Y-108386601D01*
G37*
G36*
X130486742Y-108386601D02*
G01*
X130640687Y-108450367D01*
X130779234Y-108542941D01*
X130897059Y-108660766D01*
X130989633Y-108799313D01*
X131053399Y-108953258D01*
X131085907Y-109116685D01*
X131085907Y-109283315D01*
X131053399Y-109446742D01*
X130989633Y-109600687D01*
X130897059Y-109739234D01*
X130779234Y-109857059D01*
X130640687Y-109949633D01*
X130486742Y-110013399D01*
X130323315Y-110045907D01*
X130156685Y-110045907D01*
X129993258Y-110013399D01*
X129839313Y-109949633D01*
X129700766Y-109857059D01*
X129582941Y-109739234D01*
X129490367Y-109600687D01*
X129426601Y-109446742D01*
X129394093Y-109283315D01*
X129394093Y-109116685D01*
X129426601Y-108953258D01*
X129490367Y-108799313D01*
X129582941Y-108660766D01*
X129700766Y-108542941D01*
X129839313Y-108450367D01*
X129993258Y-108386601D01*
X130156685Y-108354093D01*
X130323315Y-108354093D01*
X130486742Y-108386601D01*
G37*
G36*
X133026742Y-108386601D02*
G01*
X133180687Y-108450367D01*
X133319234Y-108542941D01*
X133437059Y-108660766D01*
X133529633Y-108799313D01*
X133593399Y-108953258D01*
X133625907Y-109116685D01*
X133625907Y-109283315D01*
X133593399Y-109446742D01*
X133529633Y-109600687D01*
X133437059Y-109739234D01*
X133319234Y-109857059D01*
X133180687Y-109949633D01*
X133026742Y-110013399D01*
X132863315Y-110045907D01*
X132696685Y-110045907D01*
X132533258Y-110013399D01*
X132379313Y-109949633D01*
X132240766Y-109857059D01*
X132122941Y-109739234D01*
X132030367Y-109600687D01*
X131966601Y-109446742D01*
X131934093Y-109283315D01*
X131934093Y-109116685D01*
X131966601Y-108953258D01*
X132030367Y-108799313D01*
X132122941Y-108660766D01*
X132240766Y-108542941D01*
X132379313Y-108450367D01*
X132533258Y-108386601D01*
X132696685Y-108354093D01*
X132863315Y-108354093D01*
X133026742Y-108386601D01*
G37*
G36*
X135566742Y-108386601D02*
G01*
X135720687Y-108450367D01*
X135859234Y-108542941D01*
X135977059Y-108660766D01*
X136069633Y-108799313D01*
X136133399Y-108953258D01*
X136165907Y-109116685D01*
X136165907Y-109283315D01*
X136133399Y-109446742D01*
X136069633Y-109600687D01*
X135977059Y-109739234D01*
X135859234Y-109857059D01*
X135720687Y-109949633D01*
X135566742Y-110013399D01*
X135403315Y-110045907D01*
X135236685Y-110045907D01*
X135073258Y-110013399D01*
X134919313Y-109949633D01*
X134780766Y-109857059D01*
X134662941Y-109739234D01*
X134570367Y-109600687D01*
X134506601Y-109446742D01*
X134474093Y-109283315D01*
X134474093Y-109116685D01*
X134506601Y-108953258D01*
X134570367Y-108799313D01*
X134662941Y-108660766D01*
X134780766Y-108542941D01*
X134919313Y-108450367D01*
X135073258Y-108386601D01*
X135236685Y-108354093D01*
X135403315Y-108354093D01*
X135566742Y-108386601D01*
G37*
G36*
X138106742Y-108386601D02*
G01*
X138260687Y-108450367D01*
X138399234Y-108542941D01*
X138517059Y-108660766D01*
X138609633Y-108799313D01*
X138673399Y-108953258D01*
X138705907Y-109116685D01*
X138705907Y-109283315D01*
X138673399Y-109446742D01*
X138609633Y-109600687D01*
X138517059Y-109739234D01*
X138399234Y-109857059D01*
X138260687Y-109949633D01*
X138106742Y-110013399D01*
X137943315Y-110045907D01*
X137776685Y-110045907D01*
X137613258Y-110013399D01*
X137459313Y-109949633D01*
X137320766Y-109857059D01*
X137202941Y-109739234D01*
X137110367Y-109600687D01*
X137046601Y-109446742D01*
X137014093Y-109283315D01*
X137014093Y-109116685D01*
X137046601Y-108953258D01*
X137110367Y-108799313D01*
X137202941Y-108660766D01*
X137320766Y-108542941D01*
X137459313Y-108450367D01*
X137613258Y-108386601D01*
X137776685Y-108354093D01*
X137943315Y-108354093D01*
X138106742Y-108386601D01*
G37*
G36*
X140646742Y-108386601D02*
G01*
X140800687Y-108450367D01*
X140939234Y-108542941D01*
X141057059Y-108660766D01*
X141149633Y-108799313D01*
X141213399Y-108953258D01*
X141245907Y-109116685D01*
X141245907Y-109283315D01*
X141213399Y-109446742D01*
X141149633Y-109600687D01*
X141057059Y-109739234D01*
X140939234Y-109857059D01*
X140800687Y-109949633D01*
X140646742Y-110013399D01*
X140483315Y-110045907D01*
X140316685Y-110045907D01*
X140153258Y-110013399D01*
X139999313Y-109949633D01*
X139860766Y-109857059D01*
X139742941Y-109739234D01*
X139650367Y-109600687D01*
X139586601Y-109446742D01*
X139554093Y-109283315D01*
X139554093Y-109116685D01*
X139586601Y-108953258D01*
X139650367Y-108799313D01*
X139742941Y-108660766D01*
X139860766Y-108542941D01*
X139999313Y-108450367D01*
X140153258Y-108386601D01*
X140316685Y-108354093D01*
X140483315Y-108354093D01*
X140646742Y-108386601D01*
G37*
G36*
X143186742Y-108386601D02*
G01*
X143340687Y-108450367D01*
X143479234Y-108542941D01*
X143597059Y-108660766D01*
X143689633Y-108799313D01*
X143753399Y-108953258D01*
X143785907Y-109116685D01*
X143785907Y-109283315D01*
X143753399Y-109446742D01*
X143689633Y-109600687D01*
X143597059Y-109739234D01*
X143479234Y-109857059D01*
X143340687Y-109949633D01*
X143186742Y-110013399D01*
X143023315Y-110045907D01*
X142856685Y-110045907D01*
X142693258Y-110013399D01*
X142539313Y-109949633D01*
X142400766Y-109857059D01*
X142282941Y-109739234D01*
X142190367Y-109600687D01*
X142126601Y-109446742D01*
X142094093Y-109283315D01*
X142094093Y-109116685D01*
X142126601Y-108953258D01*
X142190367Y-108799313D01*
X142282941Y-108660766D01*
X142400766Y-108542941D01*
X142539313Y-108450367D01*
X142693258Y-108386601D01*
X142856685Y-108354093D01*
X143023315Y-108354093D01*
X143186742Y-108386601D01*
G37*
G36*
X90334331Y-106822343D02*
G01*
X90449337Y-106869980D01*
X90552840Y-106939138D01*
X90640862Y-107027160D01*
X90710020Y-107130663D01*
X90757657Y-107245669D01*
X90781942Y-107367759D01*
X90781942Y-107492241D01*
X90757657Y-107614331D01*
X90710020Y-107729337D01*
X90640862Y-107832840D01*
X90552840Y-107920862D01*
X90449337Y-107990020D01*
X90334331Y-108037657D01*
X90212241Y-108061942D01*
X90087759Y-108061942D01*
X89965669Y-108037657D01*
X89850663Y-107990020D01*
X89747160Y-107920862D01*
X89659138Y-107832840D01*
X89589980Y-107729337D01*
X89542343Y-107614331D01*
X89518058Y-107492241D01*
X89518058Y-107367759D01*
X89542343Y-107245669D01*
X89589980Y-107130663D01*
X89659138Y-107027160D01*
X89747160Y-106939138D01*
X89850663Y-106869980D01*
X89965669Y-106822343D01*
X90087759Y-106798058D01*
X90212241Y-106798058D01*
X90334331Y-106822343D01*
G37*
G36*
X72773513Y-104844208D02*
G01*
X73012293Y-104921793D01*
X73235998Y-105035776D01*
X73439117Y-105183350D01*
X73616650Y-105360883D01*
X73764224Y-105564002D01*
X73878207Y-105787707D01*
X73955792Y-106026487D01*
X73995068Y-106274465D01*
X73995068Y-106525535D01*
X73955792Y-106773513D01*
X73878207Y-107012293D01*
X73764224Y-107235998D01*
X73616650Y-107439117D01*
X73439117Y-107616650D01*
X73235998Y-107764224D01*
X73012293Y-107878207D01*
X72773513Y-107955792D01*
X72525535Y-107995068D01*
X72274465Y-107995068D01*
X72026487Y-107955792D01*
X71787707Y-107878207D01*
X71564002Y-107764224D01*
X71360883Y-107616650D01*
X71183350Y-107439117D01*
X71035776Y-107235998D01*
X70921793Y-107012293D01*
X70844208Y-106773513D01*
X70804932Y-106525535D01*
X70804932Y-106274465D01*
X70844208Y-106026487D01*
X70921793Y-105787707D01*
X71035776Y-105564002D01*
X71183350Y-105360883D01*
X71360883Y-105183350D01*
X71564002Y-105035776D01*
X71787707Y-104921793D01*
X72026487Y-104844208D01*
X72274465Y-104804932D01*
X72525535Y-104804932D01*
X72773513Y-104844208D01*
G37*
G36*
X147973513Y-104844208D02*
G01*
X148212293Y-104921793D01*
X148435998Y-105035776D01*
X148639117Y-105183350D01*
X148816650Y-105360883D01*
X148964224Y-105564002D01*
X149078207Y-105787707D01*
X149155792Y-106026487D01*
X149195068Y-106274465D01*
X149195068Y-106525535D01*
X149155792Y-106773513D01*
X149078207Y-107012293D01*
X148964224Y-107235998D01*
X148816650Y-107439117D01*
X148639117Y-107616650D01*
X148435998Y-107764224D01*
X148212293Y-107878207D01*
X147973513Y-107955792D01*
X147725535Y-107995068D01*
X147474465Y-107995068D01*
X147226487Y-107955792D01*
X146987707Y-107878207D01*
X146764002Y-107764224D01*
X146560883Y-107616650D01*
X146383350Y-107439117D01*
X146235776Y-107235998D01*
X146121793Y-107012293D01*
X146044208Y-106773513D01*
X146004932Y-106525535D01*
X146004932Y-106274465D01*
X146044208Y-106026487D01*
X146121793Y-105787707D01*
X146235776Y-105564002D01*
X146383350Y-105360883D01*
X146560883Y-105183350D01*
X146764002Y-105035776D01*
X146987707Y-104921793D01*
X147226487Y-104844208D01*
X147474465Y-104804932D01*
X147725535Y-104804932D01*
X147973513Y-104844208D01*
G37*
G36*
X90785000Y-105525000D02*
G01*
X89515000Y-105525000D01*
X89515000Y-104255000D01*
X90785000Y-104255000D01*
X90785000Y-105525000D01*
G37*
M02*
