%TF.GenerationSoftware,KiCad,Pcbnew,10.0.6-10.0.6~ubuntu24.04.1*%
%TF.CreationDate,2026-09-16T15:22:38-07:00*%
%TF.ProjectId,Thermostat,54686572-6d6f-4737-9461-742e6b696361,rev?*%
%TF.SameCoordinates,Original*%
%TF.FileFunction,Copper,L1,Top*%
%TF.FilePolarity,Positive*%
%FSLAX46Y46*%
G04 Gerber Fmt 4.6, Leading zero omitted, Abs format (unit mm)*
G04 Created by KiCad (PCBNEW 10.0.6-10.0.6~ubuntu24.04.1) date 2026-09-16 15:22:38*
%MOMM*%
%LPD*%
G01*
G04 APERTURE LIST*
G04 Aperture macros list*
%AMRoundRect*
0 Rectangle with rounded corners*
0 $1 Rounding radius*
0 $2 $3 $4 $5 $6 $7 $8 $9 X,Y pos of 4 corners*
0 Add a 4 corners polygon primitive as box body*
4,1,4,$2,$3,$4,$5,$6,$7,$8,$9,$2,$3,0*
0 Add four circle primitives for the rounded corners*
1,1,$1+$1,$2,$3*
1,1,$1+$1,$4,$5*
1,1,$1+$1,$6,$7*
1,1,$1+$1,$8,$9*
0 Add four rect primitives between the rounded corners*
20,1,$1+$1,$2,$3,$4,$5,0*
20,1,$1+$1,$4,$5,$6,$7,0*
20,1,$1+$1,$6,$7,$8,$9,0*
20,1,$1+$1,$8,$9,$2,$3,0*%
G04 Aperture macros list end*
%TA.AperFunction,ComponentPad*%
%ADD10RoundRect,0.250000X0.675000X-0.675000X0.675000X0.675000X-0.675000X0.675000X-0.675000X-0.675000X0*%
%TD*%
%TA.AperFunction,ComponentPad*%
%ADD11C,1.850000*%
%TD*%
%TA.AperFunction,SMDPad,CuDef*%
%ADD12RoundRect,0.500000X0.875000X0.500000X-0.875000X0.500000X-0.875000X-0.500000X0.875000X-0.500000X0*%
%TD*%
%TA.AperFunction,SMDPad,CuDef*%
%ADD13C,1.700000*%
%TD*%
%TA.AperFunction,SMDPad,CuDef*%
%ADD14RoundRect,0.275000X0.275000X-0.975000X0.275000X0.975000X-0.275000X0.975000X-0.275000X-0.975000X0*%
%TD*%
%TA.AperFunction,ComponentPad*%
%ADD15C,1.600000*%
%TD*%
%TA.AperFunction,ComponentPad*%
%ADD16R,1.700000X1.700000*%
%TD*%
%TA.AperFunction,ComponentPad*%
%ADD17C,1.700000*%
%TD*%
%TA.AperFunction,ComponentPad*%
%ADD18R,1.270000X1.270000*%
%TD*%
%TA.AperFunction,ComponentPad*%
%ADD19C,1.270000*%
%TD*%
%TA.AperFunction,ViaPad*%
%ADD20C,1.500000*%
%TD*%
%TA.AperFunction,Conductor*%
%ADD21C,0.200000*%
%TD*%
G04 APERTURE END LIST*
D10*
%TO.P,J2,1,Pin_1_1*%
%TO.N,+BATT*%
X71500000Y-123900000D03*
D11*
%TO.P,J2,2,Pin_2_2*%
%TO.N,-BATT*%
X71500000Y-119700000D03*
%TD*%
D12*
%TO.P,U3,1,D0_1*%
%TO.N,/VSENSE*%
X100695500Y-146051700D03*
%TO.P,U3,2,D1_2*%
%TO.N,/BSY*%
X100695500Y-143511700D03*
%TO.P,U3,3,D2_3*%
%TO.N,/RST*%
X100695500Y-140971700D03*
%TO.P,U3,4,D3_4*%
%TO.N,/TCH_RST*%
X100695500Y-138431700D03*
%TO.P,U3,5,D4_5*%
%TO.N,/SDA*%
X100695500Y-135891700D03*
%TO.P,U3,6,D5_6*%
%TO.N,/SCL*%
X100695500Y-133351700D03*
%TO.P,U3,7,D6_7*%
%TO.N,/INT*%
X100695500Y-130811700D03*
%TO.P,U3,8,D7_8*%
%TO.N,/DC*%
X84530500Y-130811700D03*
%TO.P,U3,9,D8_9*%
%TO.N,/CLK*%
X84530500Y-133351700D03*
%TO.P,U3,10,D9_10*%
%TO.N,/CS*%
X84530500Y-135891700D03*
%TO.P,U3,11,D10_11*%
%TO.N,/MOSI*%
X84530500Y-138431700D03*
%TO.P,U3,12,3V3_OUT_12*%
%TO.N,/3V3*%
X84530500Y-140971700D03*
%TO.P,U3,13,GND_13*%
%TO.N,GND*%
X84530500Y-143511700D03*
%TO.P,U3,14,VBUS_14*%
%TO.N,unconnected-(U3-VBUS-Pad14)*%
X84530500Y-146051700D03*
D13*
%TO.P,U3,15,MTDI_15*%
%TO.N,unconnected-(U3-MTDI-Pad15)*%
X93913900Y-147073200D03*
%TO.P,U3,16,MTDO_16*%
%TO.N,unconnected-(U3-MTDO-Pad16)*%
X91373900Y-147073200D03*
%TO.P,U3,17,EN_17*%
%TO.N,unconnected-(U3-EN-Pad17)*%
X93913900Y-144533200D03*
%TO.P,U3,18,GND_18*%
%TO.N,unconnected-(U3-GND-Pad18)*%
X91373900Y-144533200D03*
%TO.P,U3,19,MTMS_19*%
%TO.N,unconnected-(U3-MTMS-Pad19)*%
X93913900Y-141993200D03*
%TO.P,U3,20,MTCK_20*%
%TO.N,unconnected-(U3-MTCK-Pad20)*%
X91373900Y-141993200D03*
%TO.P,U3,21,BOOT_21*%
%TO.N,unconnected-(U3-BOOT-Pad21)*%
X93913900Y-139453200D03*
%TO.P,U3,22,3V3_OUT_22*%
%TO.N,unconnected-(U3-3V3_OUT-Pad22)*%
X91466500Y-139510000D03*
D14*
%TO.P,U3,23,VBAT_23*%
%TO.N,+BATT*%
X94421900Y-132900000D03*
%TO.P,U3,24,GND_24*%
%TO.N,-BATT*%
X91881900Y-132900000D03*
%TD*%
D15*
%TO.P,R2,1*%
%TO.N,/VSENSE*%
X79110000Y-129800000D03*
%TO.P,R2,2*%
%TO.N,-BATT*%
X71490000Y-129800000D03*
%TD*%
D16*
%TO.P,J1,1,Pin_1_1*%
%TO.N,unconnected-(J1-Pin_1-Pad1)*%
X94680000Y-111740000D03*
D17*
%TO.P,J1,2,Pin_2_2*%
%TO.N,/5V*%
X94680000Y-109200000D03*
%TO.P,J1,3,Pin_3_3*%
%TO.N,/SDA*%
X97220000Y-111740000D03*
%TO.P,J1,4,Pin_4_4*%
%TO.N,unconnected-(J1-Pin_4-Pad4)*%
X97220000Y-109200000D03*
%TO.P,J1,5,Pin_5_5*%
%TO.N,/SCL*%
X99760000Y-111740000D03*
%TO.P,J1,6,Pin_6_6*%
%TO.N,unconnected-(J1-Pin_6-Pad6)*%
X99760000Y-109200000D03*
%TO.P,J1,7,Pin_7_7*%
%TO.N,unconnected-(J1-Pin_7-Pad7)*%
X102300000Y-111740000D03*
%TO.P,J1,8,Pin_8_8*%
%TO.N,unconnected-(J1-Pin_8-Pad8)*%
X102300000Y-109200000D03*
%TO.P,J1,9,Pin_9_9*%
%TO.N,GND*%
X104840000Y-111740000D03*
%TO.P,J1,10,Pin_10_10*%
%TO.N,unconnected-(J1-Pin_10-Pad10)*%
X104840000Y-109200000D03*
%TO.P,J1,11,Pin_11_11*%
%TO.N,/RST*%
X107380000Y-111740000D03*
%TO.P,J1,12,Pin_12_12*%
%TO.N,unconnected-(J1-Pin_12-Pad12)*%
X107380000Y-109200000D03*
%TO.P,J1,13,Pin_13_13*%
%TO.N,/INT*%
X109920000Y-111740000D03*
%TO.P,J1,14,Pin_14_14*%
%TO.N,unconnected-(J1-Pin_14-Pad14)*%
X109920000Y-109200000D03*
%TO.P,J1,15,Pin_15_15*%
%TO.N,/TCH_RST*%
X112460000Y-111740000D03*
%TO.P,J1,16,Pin_16_16*%
%TO.N,unconnected-(J1-Pin_16-Pad16)*%
X112460000Y-109200000D03*
%TO.P,J1,17,Pin_17_17*%
%TO.N,unconnected-(J1-Pin_17-Pad17)*%
X115000000Y-111740000D03*
%TO.P,J1,18,Pin_18_18*%
%TO.N,/BSY*%
X115000000Y-109200000D03*
%TO.P,J1,19,Pin_19_19*%
%TO.N,/MOSI*%
X117540000Y-111740000D03*
%TO.P,J1,20,Pin_20_20*%
%TO.N,unconnected-(J1-Pin_20-Pad20)*%
X117540000Y-109200000D03*
%TO.P,J1,21,Pin_21_21*%
%TO.N,unconnected-(J1-Pin_21-Pad21)*%
X120080000Y-111740000D03*
%TO.P,J1,22,Pin_22_22*%
%TO.N,/DC*%
X120080000Y-109200000D03*
%TO.P,J1,23,Pin_23_23*%
%TO.N,/CLK*%
X122620000Y-111740000D03*
%TO.P,J1,24,Pin_24_24*%
%TO.N,/CS*%
X122620000Y-109200000D03*
%TO.P,J1,25,Pin_25_25*%
%TO.N,unconnected-(J1-Pin_25-Pad25)*%
X125160000Y-111740000D03*
%TO.P,J1,26,Pin_26_26*%
%TO.N,unconnected-(J1-Pin_26-Pad26)*%
X125160000Y-109200000D03*
%TO.P,J1,27,Pin_27_27*%
%TO.N,unconnected-(J1-Pin_27-Pad27)*%
X127700000Y-111740000D03*
%TO.P,J1,28,Pin_28_28*%
%TO.N,unconnected-(J1-Pin_28-Pad28)*%
X127700000Y-109200000D03*
%TO.P,J1,29,Pin_29_29*%
%TO.N,unconnected-(J1-Pin_29-Pad29)*%
X130240000Y-111740000D03*
%TO.P,J1,30,Pin_30_30*%
%TO.N,unconnected-(J1-Pin_30-Pad30)*%
X130240000Y-109200000D03*
%TO.P,J1,31,Pin_31_31*%
%TO.N,unconnected-(J1-Pin_31-Pad31)*%
X132780000Y-111740000D03*
%TO.P,J1,32,Pin_32_32*%
%TO.N,unconnected-(J1-Pin_32-Pad32)*%
X132780000Y-109200000D03*
%TO.P,J1,33,Pin_33_33*%
%TO.N,unconnected-(J1-Pin_33-Pad33)*%
X135320000Y-111740000D03*
%TO.P,J1,34,Pin_34_34*%
%TO.N,unconnected-(J1-Pin_34-Pad34)*%
X135320000Y-109200000D03*
%TO.P,J1,35,Pin_35_35*%
%TO.N,unconnected-(J1-Pin_35-Pad35)*%
X137860000Y-111740000D03*
%TO.P,J1,36,Pin_36_36*%
%TO.N,unconnected-(J1-Pin_36-Pad36)*%
X137860000Y-109200000D03*
%TO.P,J1,37,Pin_37_37*%
%TO.N,unconnected-(J1-Pin_37-Pad37)*%
X140400000Y-111740000D03*
%TO.P,J1,38,Pin_38_38*%
%TO.N,unconnected-(J1-Pin_38-Pad38)*%
X140400000Y-109200000D03*
%TO.P,J1,39,Pin_39_39*%
%TO.N,unconnected-(J1-Pin_39-Pad39)*%
X142940000Y-111740000D03*
%TO.P,J1,40,Pin_40_40*%
%TO.N,unconnected-(J1-Pin_40-Pad40)*%
X142940000Y-109200000D03*
%TD*%
D18*
%TO.P,U1,1,SHDN_1*%
%TO.N,unconnected-(U1-SHDN-Pad1)*%
X90150000Y-104890000D03*
D19*
%TO.P,U1,2,VIN_2*%
%TO.N,/3V3*%
X90150000Y-107430000D03*
%TO.P,U1,3,GND_3*%
%TO.N,GND*%
X90150000Y-109970000D03*
%TO.P,U1,4,VOUT_4*%
%TO.N,/5V*%
X90150000Y-112510000D03*
%TD*%
D15*
%TO.P,R1,1*%
%TO.N,/VSENSE*%
X79100000Y-134700000D03*
%TO.P,R1,2*%
%TO.N,+BATT*%
X71480000Y-134700000D03*
%TD*%
D20*
%TO.N,+BATT*%
X94421900Y-132900000D03*
%TO.N,-BATT*%
X91881900Y-132900000D03*
%TD*%
%TO.N,/VSENSE*%
D21*
X100695500Y-146051700D02*
X100695500Y-146604500D01*
X82700000Y-148400000D02*
X79100000Y-144800000D01*
X79100000Y-144800000D02*
X79100000Y-134700000D01*
X98900000Y-148400000D02*
X82700000Y-148400000D01*
X100695500Y-146604500D02*
X98900000Y-148400000D01*
%TO.N,/BSY*%
X100695500Y-143511700D02*
X105454000Y-138753200D01*
X109576344Y-113471000D02*
X112714557Y-113471000D01*
X105454000Y-138753200D02*
X105454000Y-117593344D01*
X113923000Y-112262557D02*
X113923000Y-110277000D01*
X112714557Y-113471000D02*
X113923000Y-112262557D01*
X113923000Y-110277000D02*
X115000000Y-109200000D01*
X105454000Y-117593344D02*
X109576344Y-113471000D01*
%TO.N,/RST*%
X105127000Y-136540200D02*
X105127000Y-117457896D01*
X112906109Y-110663000D02*
X108457000Y-110663000D01*
X100695500Y-140971700D02*
X105127000Y-136540200D01*
X112579109Y-113144000D02*
X113537000Y-112186109D01*
X105127000Y-117457896D02*
X109440896Y-113144000D01*
X113537000Y-111293891D02*
X112906109Y-110663000D01*
X108457000Y-110663000D02*
X107380000Y-111740000D01*
X113537000Y-112186109D02*
X113537000Y-111293891D01*
X109440896Y-113144000D02*
X112579109Y-113144000D01*
%TO.N,/TCH_RST*%
X111443109Y-111740000D02*
X112460000Y-111740000D01*
X109305448Y-112817000D02*
X110366109Y-112817000D01*
X104800000Y-134327200D02*
X104800000Y-117322448D01*
X104800000Y-117322448D02*
X109305448Y-112817000D01*
X100695500Y-138431700D02*
X104800000Y-134327200D01*
X110366109Y-112817000D02*
X111443109Y-111740000D01*
%TO.N,/SDA*%
X98766500Y-133962700D02*
X98766500Y-113286500D01*
X100695500Y-135891700D02*
X98766500Y-133962700D01*
X98766500Y-113286500D02*
X97220000Y-111740000D01*
%TO.N,/SCL*%
X99093500Y-131749700D02*
X99093500Y-112406500D01*
X99093500Y-112406500D02*
X99760000Y-111740000D01*
X100695500Y-133351700D02*
X99093500Y-131749700D01*
%TO.N,/INT*%
X100695500Y-130811700D02*
X102288300Y-130811700D01*
X102288300Y-130811700D02*
X104473000Y-128627000D01*
X104473000Y-128627000D02*
X104473000Y-117187000D01*
X104473000Y-117187000D02*
X109920000Y-111740000D01*
%TO.N,/DC*%
X91339000Y-106737552D02*
X91530552Y-106546000D01*
X117426000Y-106546000D02*
X120080000Y-109200000D01*
X84530500Y-130811700D02*
X84530500Y-127131948D01*
X91530552Y-106546000D02*
X117426000Y-106546000D01*
X91339000Y-120323448D02*
X91339000Y-106737552D01*
X84530500Y-127131948D02*
X91339000Y-120323448D01*
%TO.N,/CLK*%
X84530500Y-133351700D02*
X84530500Y-133222106D01*
X119003000Y-109646109D02*
X120019891Y-110663000D01*
X86132500Y-131620106D02*
X86132500Y-125992396D01*
X121543000Y-110663000D02*
X122620000Y-111740000D01*
X119003000Y-108803000D02*
X119003000Y-109646109D01*
X120019891Y-110663000D02*
X121543000Y-110663000D01*
X117073000Y-106873000D02*
X119003000Y-108803000D01*
X91666000Y-106873000D02*
X117073000Y-106873000D01*
X91666000Y-120458896D02*
X91666000Y-106873000D01*
X84530500Y-133222106D02*
X86132500Y-131620106D01*
X86132500Y-125992396D02*
X91666000Y-120458896D01*
%TO.N,/CS*%
X122085109Y-113798000D02*
X123697000Y-112186109D01*
X99426094Y-144738700D02*
X101878906Y-144738700D01*
X84530500Y-135891700D02*
X82928500Y-137493700D01*
X123697000Y-110277000D02*
X122620000Y-109200000D01*
X105781000Y-117728792D02*
X109711792Y-113798000D01*
X95603594Y-140916200D02*
X99426094Y-144738700D01*
X82928500Y-139240106D02*
X83433094Y-139744700D01*
X82928500Y-137493700D02*
X82928500Y-139240106D01*
X105781000Y-140836606D02*
X105781000Y-117728792D01*
X109711792Y-113798000D02*
X122085109Y-113798000D01*
X83433094Y-139744700D02*
X89708691Y-139744700D01*
X89708691Y-139744700D02*
X90880191Y-140916200D01*
X101878906Y-144738700D02*
X105781000Y-140836606D01*
X90880191Y-140916200D02*
X95603594Y-140916200D01*
X123697000Y-112186109D02*
X123697000Y-110277000D01*
%TO.N,/MOSI*%
X116463000Y-110663000D02*
X117540000Y-111740000D01*
X91993000Y-107200000D02*
X114900000Y-107200000D01*
X91993000Y-120594344D02*
X91993000Y-107200000D01*
X86459500Y-126127844D02*
X91993000Y-120594344D01*
X114900000Y-107200000D02*
X116463000Y-108763000D01*
X84530500Y-138431700D02*
X86459500Y-136502700D01*
X116463000Y-108763000D02*
X116463000Y-110663000D01*
X86459500Y-136502700D02*
X86459500Y-126127844D01*
%TO.N,/3V3*%
X82600000Y-128600000D02*
X91012000Y-120188000D01*
X91012000Y-120188000D02*
X91012000Y-108292000D01*
X84530500Y-140971700D02*
X82600000Y-140971700D01*
X91012000Y-108292000D02*
X90150000Y-107430000D01*
X82600000Y-140971700D02*
X82600000Y-128600000D01*
%TO.N,GND*%
X89288000Y-111902000D02*
X90685000Y-110505000D01*
X90685000Y-110505000D02*
X90150000Y-109970000D01*
X82611700Y-143511700D02*
X82273000Y-143173000D01*
X84530500Y-143511700D02*
X82611700Y-143511700D01*
X90685000Y-114264053D02*
X89288000Y-112867053D01*
X82273000Y-128464552D02*
X90685000Y-120052552D01*
X82273000Y-143173000D02*
X82273000Y-128464552D01*
X89288000Y-112867053D02*
X89288000Y-111902000D01*
X90685000Y-120052552D02*
X90685000Y-114264053D01*
%TD*%
%TA.AperFunction,Conductor*%
%TO.N,GND*%
G36*
X150006922Y-103501280D02*
G01*
X150023878Y-103503190D01*
X150097268Y-103511458D01*
X150124333Y-103517636D01*
X150203536Y-103545351D01*
X150213736Y-103551759D01*
X150222007Y-103553559D01*
X150228542Y-103557391D01*
X150299606Y-103602043D01*
X150321313Y-103619355D01*
X150380644Y-103678686D01*
X150397957Y-103700395D01*
X150442602Y-103771447D01*
X150454649Y-103796464D01*
X150482362Y-103875662D01*
X150488541Y-103902734D01*
X150498720Y-103993076D01*
X150499500Y-104006959D01*
X150499500Y-147993040D01*
X150498720Y-148006923D01*
X150488541Y-148097265D01*
X150484561Y-148108637D01*
X150484648Y-148117102D01*
X150482362Y-148124337D01*
X150454649Y-148203535D01*
X150442602Y-148228552D01*
X150397957Y-148299604D01*
X150380644Y-148321313D01*
X150321313Y-148380644D01*
X150299604Y-148397957D01*
X150228552Y-148442602D01*
X150203535Y-148454649D01*
X150124337Y-148482362D01*
X150097265Y-148488541D01*
X150006923Y-148498720D01*
X149993040Y-148499500D01*
X99949097Y-148499500D01*
X99882058Y-148479815D01*
X99836303Y-148427011D01*
X99826359Y-148357853D01*
X99855384Y-148294297D01*
X99861416Y-148287819D01*
X100560716Y-147588518D01*
X100622039Y-147555033D01*
X100648397Y-147552199D01*
X101628528Y-147552199D01*
X101628536Y-147552199D01*
X101747918Y-147541586D01*
X101943549Y-147485609D01*
X102123907Y-147391398D01*
X102281609Y-147262809D01*
X102410198Y-147105107D01*
X102504409Y-146924749D01*
X102560386Y-146729118D01*
X102571000Y-146609737D01*
X102570999Y-145493664D01*
X102569670Y-145478711D01*
X145749500Y-145478711D01*
X145749500Y-145721288D01*
X145781161Y-145961785D01*
X145843947Y-146196104D01*
X145917695Y-146374146D01*
X145936776Y-146420212D01*
X146058064Y-146630289D01*
X146058066Y-146630292D01*
X146058067Y-146630293D01*
X146205733Y-146822736D01*
X146205739Y-146822743D01*
X146377256Y-146994260D01*
X146377262Y-146994265D01*
X146569711Y-147141936D01*
X146779788Y-147263224D01*
X147003900Y-147356054D01*
X147238211Y-147418838D01*
X147418586Y-147442584D01*
X147478711Y-147450500D01*
X147478712Y-147450500D01*
X147721289Y-147450500D01*
X147769388Y-147444167D01*
X147961789Y-147418838D01*
X148196100Y-147356054D01*
X148420212Y-147263224D01*
X148630289Y-147141936D01*
X148822738Y-146994265D01*
X148994265Y-146822738D01*
X149141936Y-146630289D01*
X149263224Y-146420212D01*
X149356054Y-146196100D01*
X149418838Y-145961789D01*
X149450500Y-145721288D01*
X149450500Y-145478712D01*
X149418838Y-145238211D01*
X149356054Y-145003900D01*
X149263224Y-144779788D01*
X149141936Y-144569711D01*
X149081018Y-144490321D01*
X148994266Y-144377263D01*
X148994260Y-144377256D01*
X148822743Y-144205739D01*
X148822736Y-144205733D01*
X148630293Y-144058067D01*
X148630292Y-144058066D01*
X148630289Y-144058064D01*
X148420212Y-143936776D01*
X148335618Y-143901736D01*
X148196104Y-143843947D01*
X147961785Y-143781161D01*
X147721289Y-143749500D01*
X147721288Y-143749500D01*
X147478712Y-143749500D01*
X147478711Y-143749500D01*
X147238214Y-143781161D01*
X147003895Y-143843947D01*
X146779794Y-143936773D01*
X146779785Y-143936777D01*
X146569706Y-144058067D01*
X146377263Y-144205733D01*
X146377256Y-144205739D01*
X146205739Y-144377256D01*
X146205733Y-144377263D01*
X146058067Y-144569706D01*
X145936777Y-144779785D01*
X145936773Y-144779794D01*
X145843947Y-145003895D01*
X145781161Y-145238214D01*
X145749500Y-145478711D01*
X102569670Y-145478711D01*
X102560386Y-145374282D01*
X102506855Y-145187199D01*
X102504410Y-145178654D01*
X102504409Y-145178653D01*
X102504409Y-145178651D01*
X102472375Y-145117326D01*
X102458785Y-145048792D01*
X102484404Y-144983788D01*
X102494596Y-144972243D01*
X106139506Y-141327334D01*
X106139511Y-141327330D01*
X106149714Y-141317126D01*
X106149716Y-141317126D01*
X106261520Y-141205322D01*
X106314586Y-141113408D01*
X106340577Y-141068391D01*
X106381500Y-140915664D01*
X106381500Y-140757549D01*
X106381500Y-118028889D01*
X106401185Y-117961850D01*
X106417819Y-117941208D01*
X109924208Y-114434819D01*
X109985531Y-114401334D01*
X110011889Y-114398500D01*
X121998440Y-114398500D01*
X121998456Y-114398501D01*
X122006052Y-114398501D01*
X122164163Y-114398501D01*
X122164166Y-114398501D01*
X122316894Y-114357577D01*
X122367013Y-114328639D01*
X122453825Y-114278520D01*
X122565629Y-114166716D01*
X122565629Y-114166714D01*
X122575837Y-114156507D01*
X122575839Y-114156504D01*
X124033544Y-112698798D01*
X124094865Y-112665315D01*
X124164557Y-112670299D01*
X124208904Y-112698800D01*
X124280213Y-112770109D01*
X124452179Y-112895048D01*
X124452181Y-112895049D01*
X124452184Y-112895051D01*
X124641588Y-112991557D01*
X124843757Y-113057246D01*
X125053713Y-113090500D01*
X125053714Y-113090500D01*
X125266286Y-113090500D01*
X125266287Y-113090500D01*
X125476243Y-113057246D01*
X125678412Y-112991557D01*
X125867816Y-112895051D01*
X125954138Y-112832335D01*
X126039786Y-112770109D01*
X126039788Y-112770106D01*
X126039792Y-112770104D01*
X126190104Y-112619792D01*
X126190106Y-112619788D01*
X126190109Y-112619786D01*
X126315048Y-112447820D01*
X126315047Y-112447820D01*
X126315051Y-112447816D01*
X126319514Y-112439054D01*
X126367488Y-112388259D01*
X126435308Y-112371463D01*
X126501444Y-112393999D01*
X126540486Y-112439056D01*
X126544951Y-112447820D01*
X126669890Y-112619786D01*
X126820213Y-112770109D01*
X126992179Y-112895048D01*
X126992181Y-112895049D01*
X126992184Y-112895051D01*
X127181588Y-112991557D01*
X127383757Y-113057246D01*
X127593713Y-113090500D01*
X127593714Y-113090500D01*
X127806286Y-113090500D01*
X127806287Y-113090500D01*
X128016243Y-113057246D01*
X128218412Y-112991557D01*
X128407816Y-112895051D01*
X128494138Y-112832335D01*
X128579786Y-112770109D01*
X128579788Y-112770106D01*
X128579792Y-112770104D01*
X128730104Y-112619792D01*
X128730106Y-112619788D01*
X128730109Y-112619786D01*
X128855048Y-112447820D01*
X128855047Y-112447820D01*
X128855051Y-112447816D01*
X128859514Y-112439054D01*
X128907488Y-112388259D01*
X128975308Y-112371463D01*
X129041444Y-112393999D01*
X129080486Y-112439056D01*
X129084951Y-112447820D01*
X129209890Y-112619786D01*
X129360213Y-112770109D01*
X129532179Y-112895048D01*
X129532181Y-112895049D01*
X129532184Y-112895051D01*
X129721588Y-112991557D01*
X129923757Y-113057246D01*
X130133713Y-113090500D01*
X130133714Y-113090500D01*
X130346286Y-113090500D01*
X130346287Y-113090500D01*
X130556243Y-113057246D01*
X130758412Y-112991557D01*
X130947816Y-112895051D01*
X131034138Y-112832335D01*
X131119786Y-112770109D01*
X131119788Y-112770106D01*
X131119792Y-112770104D01*
X131270104Y-112619792D01*
X131270106Y-112619788D01*
X131270109Y-112619786D01*
X131395048Y-112447820D01*
X131395047Y-112447820D01*
X131395051Y-112447816D01*
X131399514Y-112439054D01*
X131447488Y-112388259D01*
X131515308Y-112371463D01*
X131581444Y-112393999D01*
X131620486Y-112439056D01*
X131624951Y-112447820D01*
X131749890Y-112619786D01*
X131900213Y-112770109D01*
X132072179Y-112895048D01*
X132072181Y-112895049D01*
X132072184Y-112895051D01*
X132261588Y-112991557D01*
X132463757Y-113057246D01*
X132673713Y-113090500D01*
X132673714Y-113090500D01*
X132886286Y-113090500D01*
X132886287Y-113090500D01*
X133096243Y-113057246D01*
X133298412Y-112991557D01*
X133487816Y-112895051D01*
X133574138Y-112832335D01*
X133659786Y-112770109D01*
X133659788Y-112770106D01*
X133659792Y-112770104D01*
X133810104Y-112619792D01*
X133810106Y-112619788D01*
X133810109Y-112619786D01*
X133935048Y-112447820D01*
X133935047Y-112447820D01*
X133935051Y-112447816D01*
X133939514Y-112439054D01*
X133987488Y-112388259D01*
X134055308Y-112371463D01*
X134121444Y-112393999D01*
X134160486Y-112439056D01*
X134164951Y-112447820D01*
X134289890Y-112619786D01*
X134440213Y-112770109D01*
X134612179Y-112895048D01*
X134612181Y-112895049D01*
X134612184Y-112895051D01*
X134801588Y-112991557D01*
X135003757Y-113057246D01*
X135213713Y-113090500D01*
X135213714Y-113090500D01*
X135426286Y-113090500D01*
X135426287Y-113090500D01*
X135636243Y-113057246D01*
X135838412Y-112991557D01*
X136027816Y-112895051D01*
X136114138Y-112832335D01*
X136199786Y-112770109D01*
X136199788Y-112770106D01*
X136199792Y-112770104D01*
X136350104Y-112619792D01*
X136350106Y-112619788D01*
X136350109Y-112619786D01*
X136475048Y-112447820D01*
X136475047Y-112447820D01*
X136475051Y-112447816D01*
X136479514Y-112439054D01*
X136527488Y-112388259D01*
X136595308Y-112371463D01*
X136661444Y-112393999D01*
X136700486Y-112439056D01*
X136704951Y-112447820D01*
X136829890Y-112619786D01*
X136980213Y-112770109D01*
X137152179Y-112895048D01*
X137152181Y-112895049D01*
X137152184Y-112895051D01*
X137341588Y-112991557D01*
X137543757Y-113057246D01*
X137753713Y-113090500D01*
X137753714Y-113090500D01*
X137966286Y-113090500D01*
X137966287Y-113090500D01*
X138176243Y-113057246D01*
X138378412Y-112991557D01*
X138567816Y-112895051D01*
X138654138Y-112832335D01*
X138739786Y-112770109D01*
X138739788Y-112770106D01*
X138739792Y-112770104D01*
X138890104Y-112619792D01*
X138890106Y-112619788D01*
X138890109Y-112619786D01*
X139015048Y-112447820D01*
X139015047Y-112447820D01*
X139015051Y-112447816D01*
X139019514Y-112439054D01*
X139067488Y-112388259D01*
X139135308Y-112371463D01*
X139201444Y-112393999D01*
X139240486Y-112439056D01*
X139244951Y-112447820D01*
X139369890Y-112619786D01*
X139520213Y-112770109D01*
X139692179Y-112895048D01*
X139692181Y-112895049D01*
X139692184Y-112895051D01*
X139881588Y-112991557D01*
X140083757Y-113057246D01*
X140293713Y-113090500D01*
X140293714Y-113090500D01*
X140506286Y-113090500D01*
X140506287Y-113090500D01*
X140716243Y-113057246D01*
X140918412Y-112991557D01*
X141107816Y-112895051D01*
X141194138Y-112832335D01*
X141279786Y-112770109D01*
X141279788Y-112770106D01*
X141279792Y-112770104D01*
X141430104Y-112619792D01*
X141430106Y-112619788D01*
X141430109Y-112619786D01*
X141555048Y-112447820D01*
X141555047Y-112447820D01*
X141555051Y-112447816D01*
X141559514Y-112439054D01*
X141607488Y-112388259D01*
X141675308Y-112371463D01*
X141741444Y-112393999D01*
X141780486Y-112439056D01*
X141784951Y-112447820D01*
X141909890Y-112619786D01*
X142060213Y-112770109D01*
X142232179Y-112895048D01*
X142232181Y-112895049D01*
X142232184Y-112895051D01*
X142421588Y-112991557D01*
X142623757Y-113057246D01*
X142833713Y-113090500D01*
X142833714Y-113090500D01*
X143046286Y-113090500D01*
X143046287Y-113090500D01*
X143256243Y-113057246D01*
X143458412Y-112991557D01*
X143647816Y-112895051D01*
X143734138Y-112832335D01*
X143819786Y-112770109D01*
X143819788Y-112770106D01*
X143819792Y-112770104D01*
X143970104Y-112619792D01*
X143970106Y-112619788D01*
X143970109Y-112619786D01*
X144095048Y-112447820D01*
X144095047Y-112447820D01*
X144095051Y-112447816D01*
X144191557Y-112258412D01*
X144257246Y-112056243D01*
X144290500Y-111846287D01*
X144290500Y-111633713D01*
X144257246Y-111423757D01*
X144191557Y-111221588D01*
X144095051Y-111032184D01*
X144095049Y-111032181D01*
X144095048Y-111032179D01*
X143970109Y-110860213D01*
X143819786Y-110709890D01*
X143647820Y-110584951D01*
X143647115Y-110584591D01*
X143639054Y-110580485D01*
X143588259Y-110532512D01*
X143571463Y-110464692D01*
X143593999Y-110398556D01*
X143639054Y-110359515D01*
X143647816Y-110355051D01*
X143737554Y-110289853D01*
X143819786Y-110230109D01*
X143819788Y-110230106D01*
X143819792Y-110230104D01*
X143970104Y-110079792D01*
X143970106Y-110079788D01*
X143970109Y-110079786D01*
X144095048Y-109907820D01*
X144095047Y-109907820D01*
X144095051Y-109907816D01*
X144191557Y-109718412D01*
X144257246Y-109516243D01*
X144290500Y-109306287D01*
X144290500Y-109093713D01*
X144257246Y-108883757D01*
X144191557Y-108681588D01*
X144095051Y-108492184D01*
X144095049Y-108492181D01*
X144095048Y-108492179D01*
X143970109Y-108320213D01*
X143819786Y-108169890D01*
X143647820Y-108044951D01*
X143458414Y-107948444D01*
X143458413Y-107948443D01*
X143458412Y-107948443D01*
X143256243Y-107882754D01*
X143256241Y-107882753D01*
X143256240Y-107882753D01*
X143068732Y-107853055D01*
X143046287Y-107849500D01*
X142833713Y-107849500D01*
X142811268Y-107853055D01*
X142623760Y-107882753D01*
X142421585Y-107948444D01*
X142232179Y-108044951D01*
X142060213Y-108169890D01*
X141909890Y-108320213D01*
X141784949Y-108492182D01*
X141780484Y-108500946D01*
X141732509Y-108551742D01*
X141664688Y-108568536D01*
X141598553Y-108545998D01*
X141559516Y-108500946D01*
X141555050Y-108492182D01*
X141430109Y-108320213D01*
X141279786Y-108169890D01*
X141107820Y-108044951D01*
X140918414Y-107948444D01*
X140918413Y-107948443D01*
X140918412Y-107948443D01*
X140716243Y-107882754D01*
X140716241Y-107882753D01*
X140716240Y-107882753D01*
X140528732Y-107853055D01*
X140506287Y-107849500D01*
X140293713Y-107849500D01*
X140271268Y-107853055D01*
X140083760Y-107882753D01*
X139881585Y-107948444D01*
X139692179Y-108044951D01*
X139520213Y-108169890D01*
X139369890Y-108320213D01*
X139244949Y-108492182D01*
X139240484Y-108500946D01*
X139192509Y-108551742D01*
X139124688Y-108568536D01*
X139058553Y-108545998D01*
X139019516Y-108500946D01*
X139015050Y-108492182D01*
X138890109Y-108320213D01*
X138739786Y-108169890D01*
X138567820Y-108044951D01*
X138378414Y-107948444D01*
X138378413Y-107948443D01*
X138378412Y-107948443D01*
X138176243Y-107882754D01*
X138176241Y-107882753D01*
X138176240Y-107882753D01*
X137988732Y-107853055D01*
X137966287Y-107849500D01*
X137753713Y-107849500D01*
X137731268Y-107853055D01*
X137543760Y-107882753D01*
X137341585Y-107948444D01*
X137152179Y-108044951D01*
X136980213Y-108169890D01*
X136829890Y-108320213D01*
X136704949Y-108492182D01*
X136700484Y-108500946D01*
X136652509Y-108551742D01*
X136584688Y-108568536D01*
X136518553Y-108545998D01*
X136479516Y-108500946D01*
X136475050Y-108492182D01*
X136350109Y-108320213D01*
X136199786Y-108169890D01*
X136027820Y-108044951D01*
X135838414Y-107948444D01*
X135838413Y-107948443D01*
X135838412Y-107948443D01*
X135636243Y-107882754D01*
X135636241Y-107882753D01*
X135636240Y-107882753D01*
X135448732Y-107853055D01*
X135426287Y-107849500D01*
X135213713Y-107849500D01*
X135191268Y-107853055D01*
X135003760Y-107882753D01*
X134801585Y-107948444D01*
X134612179Y-108044951D01*
X134440213Y-108169890D01*
X134289890Y-108320213D01*
X134164949Y-108492182D01*
X134160484Y-108500946D01*
X134112509Y-108551742D01*
X134044688Y-108568536D01*
X133978553Y-108545998D01*
X133939516Y-108500946D01*
X133935050Y-108492182D01*
X133810109Y-108320213D01*
X133659786Y-108169890D01*
X133487820Y-108044951D01*
X133298414Y-107948444D01*
X133298413Y-107948443D01*
X133298412Y-107948443D01*
X133096243Y-107882754D01*
X133096241Y-107882753D01*
X133096240Y-107882753D01*
X132908732Y-107853055D01*
X132886287Y-107849500D01*
X132673713Y-107849500D01*
X132651268Y-107853055D01*
X132463760Y-107882753D01*
X132261585Y-107948444D01*
X132072179Y-108044951D01*
X131900213Y-108169890D01*
X131749890Y-108320213D01*
X131624949Y-108492182D01*
X131620484Y-108500946D01*
X131572509Y-108551742D01*
X131504688Y-108568536D01*
X131438553Y-108545998D01*
X131399516Y-108500946D01*
X131395050Y-108492182D01*
X131270109Y-108320213D01*
X131119786Y-108169890D01*
X130947820Y-108044951D01*
X130758414Y-107948444D01*
X130758413Y-107948443D01*
X130758412Y-107948443D01*
X130556243Y-107882754D01*
X130556241Y-107882753D01*
X130556240Y-107882753D01*
X130368732Y-107853055D01*
X130346287Y-107849500D01*
X130133713Y-107849500D01*
X130111268Y-107853055D01*
X129923760Y-107882753D01*
X129721585Y-107948444D01*
X129532179Y-108044951D01*
X129360213Y-108169890D01*
X129209890Y-108320213D01*
X129084949Y-108492182D01*
X129080484Y-108500946D01*
X129032509Y-108551742D01*
X128964688Y-108568536D01*
X128898553Y-108545998D01*
X128859516Y-108500946D01*
X128855050Y-108492182D01*
X128730109Y-108320213D01*
X128579786Y-108169890D01*
X128407820Y-108044951D01*
X128218414Y-107948444D01*
X128218413Y-107948443D01*
X128218412Y-107948443D01*
X128016243Y-107882754D01*
X128016241Y-107882753D01*
X128016240Y-107882753D01*
X127828732Y-107853055D01*
X127806287Y-107849500D01*
X127593713Y-107849500D01*
X127571268Y-107853055D01*
X127383760Y-107882753D01*
X127181585Y-107948444D01*
X126992179Y-108044951D01*
X126820213Y-108169890D01*
X126669890Y-108320213D01*
X126544949Y-108492182D01*
X126540484Y-108500946D01*
X126492509Y-108551742D01*
X126424688Y-108568536D01*
X126358553Y-108545998D01*
X126319516Y-108500946D01*
X126315050Y-108492182D01*
X126190109Y-108320213D01*
X126039786Y-108169890D01*
X125867820Y-108044951D01*
X125678414Y-107948444D01*
X125678413Y-107948443D01*
X125678412Y-107948443D01*
X125476243Y-107882754D01*
X125476241Y-107882753D01*
X125476240Y-107882753D01*
X125288732Y-107853055D01*
X125266287Y-107849500D01*
X125053713Y-107849500D01*
X125031268Y-107853055D01*
X124843760Y-107882753D01*
X124641585Y-107948444D01*
X124452179Y-108044951D01*
X124280213Y-108169890D01*
X124129890Y-108320213D01*
X124004949Y-108492182D01*
X124000484Y-108500946D01*
X123952509Y-108551742D01*
X123884688Y-108568536D01*
X123818553Y-108545998D01*
X123779516Y-108500946D01*
X123775050Y-108492182D01*
X123650109Y-108320213D01*
X123499786Y-108169890D01*
X123327820Y-108044951D01*
X123138414Y-107948444D01*
X123138413Y-107948443D01*
X123138412Y-107948443D01*
X122936243Y-107882754D01*
X122936241Y-107882753D01*
X122936240Y-107882753D01*
X122748732Y-107853055D01*
X122726287Y-107849500D01*
X122513713Y-107849500D01*
X122491268Y-107853055D01*
X122303760Y-107882753D01*
X122101585Y-107948444D01*
X121912179Y-108044951D01*
X121740213Y-108169890D01*
X121589890Y-108320213D01*
X121464949Y-108492182D01*
X121460484Y-108500946D01*
X121412509Y-108551742D01*
X121344688Y-108568536D01*
X121278553Y-108545998D01*
X121239516Y-108500946D01*
X121235050Y-108492182D01*
X121110109Y-108320213D01*
X120959786Y-108169890D01*
X120787820Y-108044951D01*
X120598414Y-107948444D01*
X120598413Y-107948443D01*
X120598412Y-107948443D01*
X120396243Y-107882754D01*
X120396241Y-107882753D01*
X120396240Y-107882753D01*
X120208732Y-107853055D01*
X120186287Y-107849500D01*
X119973713Y-107849500D01*
X119951268Y-107853055D01*
X119763757Y-107882753D01*
X119721473Y-107896492D01*
X119651632Y-107898486D01*
X119595476Y-107866241D01*
X118007946Y-106278711D01*
X145749500Y-106278711D01*
X145749500Y-106521288D01*
X145781161Y-106761785D01*
X145843947Y-106996104D01*
X145913533Y-107164098D01*
X145936776Y-107220212D01*
X146058064Y-107430289D01*
X146058066Y-107430292D01*
X146058067Y-107430293D01*
X146205733Y-107622736D01*
X146205739Y-107622743D01*
X146377256Y-107794260D01*
X146377263Y-107794266D01*
X146449246Y-107849500D01*
X146569711Y-107941936D01*
X146779788Y-108063224D01*
X147003900Y-108156054D01*
X147238211Y-108218838D01*
X147418586Y-108242584D01*
X147478711Y-108250500D01*
X147478712Y-108250500D01*
X147721289Y-108250500D01*
X147769388Y-108244167D01*
X147961789Y-108218838D01*
X148196100Y-108156054D01*
X148420212Y-108063224D01*
X148630289Y-107941936D01*
X148822738Y-107794265D01*
X148994265Y-107622738D01*
X149141936Y-107430289D01*
X149263224Y-107220212D01*
X149356054Y-106996100D01*
X149418838Y-106761789D01*
X149450500Y-106521288D01*
X149450500Y-106278712D01*
X149447645Y-106257029D01*
X149418838Y-106038214D01*
X149418838Y-106038211D01*
X149356054Y-105803900D01*
X149353678Y-105798165D01*
X149285051Y-105632483D01*
X149263224Y-105579788D01*
X149141936Y-105369711D01*
X148994265Y-105177262D01*
X148994260Y-105177256D01*
X148822743Y-105005739D01*
X148822736Y-105005733D01*
X148630293Y-104858067D01*
X148630292Y-104858066D01*
X148630289Y-104858064D01*
X148420212Y-104736776D01*
X148420205Y-104736773D01*
X148196104Y-104643947D01*
X147961785Y-104581161D01*
X147721289Y-104549500D01*
X147721288Y-104549500D01*
X147478712Y-104549500D01*
X147478711Y-104549500D01*
X147238214Y-104581161D01*
X147003895Y-104643947D01*
X146779794Y-104736773D01*
X146779785Y-104736777D01*
X146569706Y-104858067D01*
X146377263Y-105005733D01*
X146377256Y-105005739D01*
X146205739Y-105177256D01*
X146205733Y-105177263D01*
X146058067Y-105369706D01*
X145936777Y-105579785D01*
X145936773Y-105579794D01*
X145843947Y-105803895D01*
X145781161Y-106038214D01*
X145749500Y-106278711D01*
X118007946Y-106278711D01*
X117913590Y-106184355D01*
X117913588Y-106184352D01*
X117794717Y-106065481D01*
X117794716Y-106065480D01*
X117707904Y-106015360D01*
X117707904Y-106015359D01*
X117707900Y-106015358D01*
X117657785Y-105986423D01*
X117505057Y-105945499D01*
X117346943Y-105945499D01*
X117339347Y-105945499D01*
X117339331Y-105945500D01*
X91451492Y-105945500D01*
X91410571Y-105956464D01*
X91410571Y-105956465D01*
X91352143Y-105972121D01*
X91282293Y-105970458D01*
X91224430Y-105931296D01*
X91196926Y-105867067D01*
X91208512Y-105798165D01*
X91220785Y-105778032D01*
X91228796Y-105767331D01*
X91279091Y-105632483D01*
X91285500Y-105572873D01*
X91285499Y-104207128D01*
X91279091Y-104147517D01*
X91228796Y-104012669D01*
X91228795Y-104012668D01*
X91228793Y-104012664D01*
X91142547Y-103897455D01*
X91142544Y-103897452D01*
X91027335Y-103811206D01*
X91027328Y-103811202D01*
X90892482Y-103760908D01*
X90892483Y-103760908D01*
X90832883Y-103754501D01*
X90832881Y-103754500D01*
X90832873Y-103754500D01*
X90832864Y-103754500D01*
X89467129Y-103754500D01*
X89467123Y-103754501D01*
X89407516Y-103760908D01*
X89272671Y-103811202D01*
X89272664Y-103811206D01*
X89157455Y-103897452D01*
X89157452Y-103897455D01*
X89071206Y-104012664D01*
X89071202Y-104012671D01*
X89020908Y-104147517D01*
X89014501Y-104207116D01*
X89014501Y-104207123D01*
X89014500Y-104207135D01*
X89014500Y-105572870D01*
X89014501Y-105572876D01*
X89020908Y-105632483D01*
X89071202Y-105767328D01*
X89071206Y-105767335D01*
X89157452Y-105882544D01*
X89157455Y-105882547D01*
X89272664Y-105968793D01*
X89272671Y-105968797D01*
X89407517Y-106019091D01*
X89407516Y-106019091D01*
X89414444Y-106019835D01*
X89467127Y-106025500D01*
X90832872Y-106025499D01*
X90892483Y-106019091D01*
X90892487Y-106019089D01*
X90896780Y-106018628D01*
X90965539Y-106031034D01*
X91016677Y-106078644D01*
X91033956Y-106146344D01*
X91011891Y-106212638D01*
X90997718Y-106229598D01*
X90970286Y-106257030D01*
X90858482Y-106368833D01*
X90858478Y-106368838D01*
X90851401Y-106381097D01*
X90800833Y-106429312D01*
X90732226Y-106442533D01*
X90687721Y-106429580D01*
X90585886Y-106377693D01*
X90585878Y-106377689D01*
X90415899Y-106322460D01*
X90298209Y-106303820D01*
X90239366Y-106294500D01*
X90060634Y-106294500D01*
X90001790Y-106303820D01*
X89884101Y-106322460D01*
X89884098Y-106322460D01*
X89714121Y-106377689D01*
X89714118Y-106377691D01*
X89554867Y-106458833D01*
X89410270Y-106563890D01*
X89283890Y-106690270D01*
X89178833Y-106834867D01*
X89097691Y-106994118D01*
X89097689Y-106994121D01*
X89042460Y-107164098D01*
X89042460Y-107164101D01*
X89014500Y-107340634D01*
X89014500Y-107519365D01*
X89042460Y-107695898D01*
X89042460Y-107695901D01*
X89097689Y-107865878D01*
X89097691Y-107865881D01*
X89178833Y-108025132D01*
X89283889Y-108169728D01*
X89410272Y-108296111D01*
X89554868Y-108401167D01*
X89714119Y-108482309D01*
X89714121Y-108482310D01*
X89872670Y-108533825D01*
X89884103Y-108537540D01*
X90060634Y-108565500D01*
X90060635Y-108565500D01*
X90239363Y-108565500D01*
X90239366Y-108565500D01*
X90268103Y-108560948D01*
X90337394Y-108569902D01*
X90390846Y-108614897D01*
X90411487Y-108681648D01*
X90411500Y-108683421D01*
X90411500Y-108717083D01*
X90391815Y-108784122D01*
X90339011Y-108829877D01*
X90269853Y-108839821D01*
X90268105Y-108839557D01*
X90239329Y-108835000D01*
X90060669Y-108835000D01*
X89884219Y-108862946D01*
X89714306Y-108918155D01*
X89555127Y-108999262D01*
X89542205Y-109008651D01*
X89542204Y-109008651D01*
X90103553Y-109570000D01*
X90097339Y-109570000D01*
X89995606Y-109597259D01*
X89904394Y-109649920D01*
X89829920Y-109724394D01*
X89777259Y-109815606D01*
X89750000Y-109917339D01*
X89750000Y-109923553D01*
X89188651Y-109362204D01*
X89188651Y-109362205D01*
X89179262Y-109375127D01*
X89098155Y-109534306D01*
X89042946Y-109704219D01*
X89015000Y-109880668D01*
X89015000Y-110059331D01*
X89042946Y-110235780D01*
X89098155Y-110405693D01*
X89179260Y-110564869D01*
X89188651Y-110577793D01*
X89188652Y-110577794D01*
X89750000Y-110016446D01*
X89750000Y-110022661D01*
X89777259Y-110124394D01*
X89829920Y-110215606D01*
X89904394Y-110290080D01*
X89995606Y-110342741D01*
X90097339Y-110370000D01*
X90103552Y-110370000D01*
X89542205Y-110931347D01*
X89542205Y-110931348D01*
X89555129Y-110940738D01*
X89714306Y-111021844D01*
X89884219Y-111077053D01*
X90060669Y-111105000D01*
X90239324Y-111105000D01*
X90268101Y-111100442D01*
X90337395Y-111109396D01*
X90390847Y-111154392D01*
X90411487Y-111221144D01*
X90411500Y-111222915D01*
X90411500Y-111256577D01*
X90391815Y-111323616D01*
X90339011Y-111369371D01*
X90269853Y-111379315D01*
X90268104Y-111379051D01*
X90239368Y-111374500D01*
X90239366Y-111374500D01*
X90060634Y-111374500D01*
X90030234Y-111379315D01*
X89884101Y-111402460D01*
X89884098Y-111402460D01*
X89714121Y-111457689D01*
X89714118Y-111457691D01*
X89554867Y-111538833D01*
X89410270Y-111643890D01*
X89283890Y-111770270D01*
X89178833Y-111914867D01*
X89097691Y-112074118D01*
X89097689Y-112074121D01*
X89042460Y-112244098D01*
X89042460Y-112244101D01*
X89019628Y-112388259D01*
X89014500Y-112420634D01*
X89014500Y-112599366D01*
X89021725Y-112644984D01*
X89042460Y-112775898D01*
X89042460Y-112775901D01*
X89097689Y-112945878D01*
X89097691Y-112945881D01*
X89178833Y-113105132D01*
X89283889Y-113249728D01*
X89410272Y-113376111D01*
X89554868Y-113481167D01*
X89714119Y-113562309D01*
X89714121Y-113562310D01*
X89872670Y-113613825D01*
X89884103Y-113617540D01*
X90060634Y-113645500D01*
X90060635Y-113645500D01*
X90239363Y-113645500D01*
X90239366Y-113645500D01*
X90268103Y-113640948D01*
X90337394Y-113649902D01*
X90390846Y-113694897D01*
X90411487Y-113761648D01*
X90411500Y-113763421D01*
X90411500Y-119887902D01*
X90391815Y-119954941D01*
X90375181Y-119975583D01*
X82119481Y-128231282D01*
X82119477Y-128231287D01*
X82103893Y-128258282D01*
X82103892Y-128258284D01*
X82040423Y-128368215D01*
X81999499Y-128520943D01*
X81999499Y-128520945D01*
X81999499Y-128689046D01*
X81999500Y-128689059D01*
X81999500Y-141050757D01*
X82016288Y-141113408D01*
X82040423Y-141203483D01*
X82040426Y-141203490D01*
X82119475Y-141340409D01*
X82119479Y-141340414D01*
X82119480Y-141340416D01*
X82231284Y-141452220D01*
X82231286Y-141452221D01*
X82231290Y-141452224D01*
X82365533Y-141529728D01*
X82368216Y-141531277D01*
X82520943Y-141572200D01*
X82550110Y-141572200D01*
X82617149Y-141591885D01*
X82662904Y-141644689D01*
X82669323Y-141662082D01*
X82689428Y-141732344D01*
X82721589Y-141844745D01*
X82721590Y-141844748D01*
X82721591Y-141844749D01*
X82815802Y-142025107D01*
X82815804Y-142025109D01*
X82928838Y-142163735D01*
X82955947Y-142228132D01*
X82943938Y-142296961D01*
X82928838Y-142320457D01*
X82816221Y-142458570D01*
X82722057Y-142638838D01*
X82666109Y-142834371D01*
X82666108Y-142834374D01*
X82655500Y-142953699D01*
X82655500Y-144069700D01*
X82666108Y-144189025D01*
X82666109Y-144189028D01*
X82722057Y-144384561D01*
X82816221Y-144564829D01*
X82928838Y-144702942D01*
X82955947Y-144767338D01*
X82943938Y-144836168D01*
X82928838Y-144859663D01*
X82815805Y-144998287D01*
X82721589Y-145178654D01*
X82665614Y-145374283D01*
X82665613Y-145374286D01*
X82662173Y-145412986D01*
X82656330Y-145478711D01*
X82655000Y-145493666D01*
X82655000Y-146609728D01*
X82655001Y-146609734D01*
X82665613Y-146729115D01*
X82721589Y-146924745D01*
X82721590Y-146924748D01*
X82721591Y-146924749D01*
X82815802Y-147105107D01*
X82815804Y-147105109D01*
X82944390Y-147262809D01*
X82987667Y-147298096D01*
X83102093Y-147391398D01*
X83282451Y-147485609D01*
X83478082Y-147541586D01*
X83595073Y-147551987D01*
X83660105Y-147577531D01*
X83701004Y-147634179D01*
X83704784Y-147703947D01*
X83670245Y-147764682D01*
X83608353Y-147797103D01*
X83584091Y-147799500D01*
X83000097Y-147799500D01*
X82933058Y-147779815D01*
X82912416Y-147763181D01*
X79736819Y-144587584D01*
X79703334Y-144526261D01*
X79700500Y-144499903D01*
X79700500Y-135929601D01*
X79720185Y-135862562D01*
X79768206Y-135819116D01*
X79781610Y-135812287D01*
X79947219Y-135691966D01*
X80091966Y-135547219D01*
X80091968Y-135547215D01*
X80091971Y-135547213D01*
X80193402Y-135407603D01*
X80212287Y-135381610D01*
X80305220Y-135199219D01*
X80368477Y-135004534D01*
X80400500Y-134802352D01*
X80400500Y-134597648D01*
X80382681Y-134485146D01*
X80368477Y-134395465D01*
X80339127Y-134305137D01*
X80305220Y-134200781D01*
X80305218Y-134200778D01*
X80305218Y-134200776D01*
X80227709Y-134048658D01*
X80212287Y-134018390D01*
X80204556Y-134007749D01*
X80091971Y-133852786D01*
X79947213Y-133708028D01*
X79781613Y-133587715D01*
X79781612Y-133587714D01*
X79781610Y-133587713D01*
X79718196Y-133555402D01*
X79599223Y-133494781D01*
X79404534Y-133431522D01*
X79229995Y-133403878D01*
X79202352Y-133399500D01*
X78997648Y-133399500D01*
X78973329Y-133403351D01*
X78795465Y-133431522D01*
X78600776Y-133494781D01*
X78418386Y-133587715D01*
X78252786Y-133708028D01*
X78108028Y-133852786D01*
X77987715Y-134018386D01*
X77894781Y-134200776D01*
X77831522Y-134395465D01*
X77799500Y-134597648D01*
X77799500Y-134802351D01*
X77831522Y-135004534D01*
X77894781Y-135199223D01*
X77987715Y-135381613D01*
X78108028Y-135547213D01*
X78108034Y-135547219D01*
X78252781Y-135691966D01*
X78418390Y-135812287D01*
X78431793Y-135819116D01*
X78482589Y-135867088D01*
X78499500Y-135929601D01*
X78499500Y-144713330D01*
X78499499Y-144713348D01*
X78499499Y-144879054D01*
X78499498Y-144879054D01*
X78499499Y-144879057D01*
X78540423Y-145031785D01*
X78551870Y-145051612D01*
X78569358Y-145081900D01*
X78569359Y-145081904D01*
X78569360Y-145081904D01*
X78619479Y-145168714D01*
X78619481Y-145168717D01*
X78738349Y-145287585D01*
X78738355Y-145287590D01*
X81738584Y-148287819D01*
X81772069Y-148349142D01*
X81767085Y-148418834D01*
X81725213Y-148474767D01*
X81659749Y-148499184D01*
X81650903Y-148499500D01*
X70006960Y-148499500D01*
X69993077Y-148498720D01*
X69902734Y-148488541D01*
X69891361Y-148484561D01*
X69882897Y-148484648D01*
X69875662Y-148482362D01*
X69796464Y-148454649D01*
X69771447Y-148442602D01*
X69700395Y-148397957D01*
X69678686Y-148380644D01*
X69619355Y-148321313D01*
X69602042Y-148299604D01*
X69557395Y-148228549D01*
X69545351Y-148203539D01*
X69517636Y-148124333D01*
X69511458Y-148097268D01*
X69501280Y-148006922D01*
X69500500Y-147993040D01*
X69500500Y-145478711D01*
X70549500Y-145478711D01*
X70549500Y-145721288D01*
X70581161Y-145961785D01*
X70643947Y-146196104D01*
X70717695Y-146374146D01*
X70736776Y-146420212D01*
X70858064Y-146630289D01*
X70858066Y-146630292D01*
X70858067Y-146630293D01*
X71005733Y-146822736D01*
X71005739Y-146822743D01*
X71177256Y-146994260D01*
X71177262Y-146994265D01*
X71369711Y-147141936D01*
X71579788Y-147263224D01*
X71803900Y-147356054D01*
X72038211Y-147418838D01*
X72218586Y-147442584D01*
X72278711Y-147450500D01*
X72278712Y-147450500D01*
X72521289Y-147450500D01*
X72569388Y-147444167D01*
X72761789Y-147418838D01*
X72996100Y-147356054D01*
X73220212Y-147263224D01*
X73430289Y-147141936D01*
X73622738Y-146994265D01*
X73794265Y-146822738D01*
X73941936Y-146630289D01*
X74063224Y-146420212D01*
X74156054Y-146196100D01*
X74218838Y-145961789D01*
X74250500Y-145721288D01*
X74250500Y-145478712D01*
X74218838Y-145238211D01*
X74156054Y-145003900D01*
X74063224Y-144779788D01*
X73941936Y-144569711D01*
X73881018Y-144490321D01*
X73794266Y-144377263D01*
X73794260Y-144377256D01*
X73622743Y-144205739D01*
X73622736Y-144205733D01*
X73430293Y-144058067D01*
X73430292Y-144058066D01*
X73430289Y-144058064D01*
X73220212Y-143936776D01*
X73135618Y-143901736D01*
X72996104Y-143843947D01*
X72761785Y-143781161D01*
X72521289Y-143749500D01*
X72521288Y-143749500D01*
X72278712Y-143749500D01*
X72278711Y-143749500D01*
X72038214Y-143781161D01*
X71803895Y-143843947D01*
X71579794Y-143936773D01*
X71579785Y-143936777D01*
X71369706Y-144058067D01*
X71177263Y-144205733D01*
X71177256Y-144205739D01*
X71005739Y-144377256D01*
X71005733Y-144377263D01*
X70858067Y-144569706D01*
X70736777Y-144779785D01*
X70736773Y-144779794D01*
X70643947Y-145003895D01*
X70581161Y-145238214D01*
X70549500Y-145478711D01*
X69500500Y-145478711D01*
X69500500Y-134597648D01*
X70179500Y-134597648D01*
X70179500Y-134802351D01*
X70211522Y-135004534D01*
X70274781Y-135199223D01*
X70367715Y-135381613D01*
X70488028Y-135547213D01*
X70632786Y-135691971D01*
X70787749Y-135804556D01*
X70798390Y-135812287D01*
X70879499Y-135853614D01*
X70980776Y-135905218D01*
X70980778Y-135905218D01*
X70980781Y-135905220D01*
X71055818Y-135929601D01*
X71175465Y-135968477D01*
X71276557Y-135984488D01*
X71377648Y-136000500D01*
X71377649Y-136000500D01*
X71582351Y-136000500D01*
X71582352Y-136000500D01*
X71784534Y-135968477D01*
X71979219Y-135905220D01*
X72161610Y-135812287D01*
X72260485Y-135740451D01*
X72327213Y-135691971D01*
X72327215Y-135691968D01*
X72327219Y-135691966D01*
X72471966Y-135547219D01*
X72471968Y-135547215D01*
X72471971Y-135547213D01*
X72573402Y-135407603D01*
X72592287Y-135381610D01*
X72685220Y-135199219D01*
X72748477Y-135004534D01*
X72780500Y-134802352D01*
X72780500Y-134597648D01*
X72762681Y-134485146D01*
X72748477Y-134395465D01*
X72719127Y-134305137D01*
X72685220Y-134200781D01*
X72685218Y-134200778D01*
X72685218Y-134200776D01*
X72607709Y-134048658D01*
X72592287Y-134018390D01*
X72584556Y-134007749D01*
X72471971Y-133852786D01*
X72327213Y-133708028D01*
X72161613Y-133587715D01*
X72161612Y-133587714D01*
X72161610Y-133587713D01*
X72098196Y-133555402D01*
X71979223Y-133494781D01*
X71784534Y-133431522D01*
X71609995Y-133403878D01*
X71582352Y-133399500D01*
X71377648Y-133399500D01*
X71353329Y-133403351D01*
X71175465Y-133431522D01*
X70980776Y-133494781D01*
X70798386Y-133587715D01*
X70632786Y-133708028D01*
X70488028Y-133852786D01*
X70367715Y-134018386D01*
X70274781Y-134200776D01*
X70211522Y-134395465D01*
X70179500Y-134597648D01*
X69500500Y-134597648D01*
X69500500Y-129697648D01*
X70189500Y-129697648D01*
X70189500Y-129902351D01*
X70221522Y-130104534D01*
X70284781Y-130299223D01*
X70377715Y-130481613D01*
X70498028Y-130647213D01*
X70642786Y-130791971D01*
X70797749Y-130904556D01*
X70808390Y-130912287D01*
X70924607Y-130971503D01*
X70990776Y-131005218D01*
X70990778Y-131005218D01*
X70990781Y-131005220D01*
X71095137Y-131039127D01*
X71185465Y-131068477D01*
X71286557Y-131084488D01*
X71387648Y-131100500D01*
X71387649Y-131100500D01*
X71592351Y-131100500D01*
X71592352Y-131100500D01*
X71794534Y-131068477D01*
X71989219Y-131005220D01*
X72171610Y-130912287D01*
X72264590Y-130844732D01*
X72337213Y-130791971D01*
X72337215Y-130791968D01*
X72337219Y-130791966D01*
X72481966Y-130647219D01*
X72481968Y-130647215D01*
X72481971Y-130647213D01*
X72534732Y-130574590D01*
X72602287Y-130481610D01*
X72695220Y-130299219D01*
X72758477Y-130104534D01*
X72790500Y-129902352D01*
X72790500Y-129697648D01*
X77809500Y-129697648D01*
X77809500Y-129902351D01*
X77841522Y-130104534D01*
X77904781Y-130299223D01*
X77997715Y-130481613D01*
X78118028Y-130647213D01*
X78262786Y-130791971D01*
X78417749Y-130904556D01*
X78428390Y-130912287D01*
X78544607Y-130971503D01*
X78610776Y-131005218D01*
X78610778Y-131005218D01*
X78610781Y-131005220D01*
X78715137Y-131039127D01*
X78805465Y-131068477D01*
X78906557Y-131084488D01*
X79007648Y-131100500D01*
X79007649Y-131100500D01*
X79212351Y-131100500D01*
X79212352Y-131100500D01*
X79414534Y-131068477D01*
X79609219Y-131005220D01*
X79791610Y-130912287D01*
X79884590Y-130844732D01*
X79957213Y-130791971D01*
X79957215Y-130791968D01*
X79957219Y-130791966D01*
X80101966Y-130647219D01*
X80101968Y-130647215D01*
X80101971Y-130647213D01*
X80154732Y-130574590D01*
X80222287Y-130481610D01*
X80315220Y-130299219D01*
X80378477Y-130104534D01*
X80410500Y-129902352D01*
X80410500Y-129697648D01*
X80410436Y-129697242D01*
X80378477Y-129495465D01*
X80322054Y-129321814D01*
X80315220Y-129300781D01*
X80315218Y-129300778D01*
X80315218Y-129300776D01*
X80281503Y-129234607D01*
X80222287Y-129118390D01*
X80214556Y-129107749D01*
X80101971Y-128952786D01*
X79957213Y-128808028D01*
X79791613Y-128687715D01*
X79791612Y-128687714D01*
X79791610Y-128687713D01*
X79734653Y-128658691D01*
X79609223Y-128594781D01*
X79414534Y-128531522D01*
X79239995Y-128503878D01*
X79212352Y-128499500D01*
X79007648Y-128499500D01*
X78983329Y-128503351D01*
X78805465Y-128531522D01*
X78610776Y-128594781D01*
X78428386Y-128687715D01*
X78262786Y-128808028D01*
X78118028Y-128952786D01*
X77997715Y-129118386D01*
X77904781Y-129300776D01*
X77841522Y-129495465D01*
X77809500Y-129697648D01*
X72790500Y-129697648D01*
X72790436Y-129697242D01*
X72758477Y-129495465D01*
X72702054Y-129321814D01*
X72695220Y-129300781D01*
X72695218Y-129300778D01*
X72695218Y-129300776D01*
X72661503Y-129234607D01*
X72602287Y-129118390D01*
X72594556Y-129107749D01*
X72481971Y-128952786D01*
X72337213Y-128808028D01*
X72171613Y-128687715D01*
X72171612Y-128687714D01*
X72171610Y-128687713D01*
X72114653Y-128658691D01*
X71989223Y-128594781D01*
X71794534Y-128531522D01*
X71619995Y-128503878D01*
X71592352Y-128499500D01*
X71387648Y-128499500D01*
X71363329Y-128503351D01*
X71185465Y-128531522D01*
X70990776Y-128594781D01*
X70808386Y-128687715D01*
X70642786Y-128808028D01*
X70498028Y-128952786D01*
X70377715Y-129118386D01*
X70284781Y-129300776D01*
X70221522Y-129495465D01*
X70189500Y-129697648D01*
X69500500Y-129697648D01*
X69500500Y-123174983D01*
X70074500Y-123174983D01*
X70074500Y-124625001D01*
X70074501Y-124625018D01*
X70085000Y-124727796D01*
X70085001Y-124727799D01*
X70102228Y-124779786D01*
X70140186Y-124894334D01*
X70232288Y-125043656D01*
X70356344Y-125167712D01*
X70505666Y-125259814D01*
X70672203Y-125314999D01*
X70774991Y-125325500D01*
X72225008Y-125325499D01*
X72327797Y-125314999D01*
X72494334Y-125259814D01*
X72643656Y-125167712D01*
X72767712Y-125043656D01*
X72859814Y-124894334D01*
X72914999Y-124727797D01*
X72925500Y-124625009D01*
X72925499Y-123793713D01*
X80349500Y-123793713D01*
X80349500Y-124006286D01*
X80382753Y-124216239D01*
X80448444Y-124418414D01*
X80544951Y-124607820D01*
X80669890Y-124779786D01*
X80820213Y-124930109D01*
X80992179Y-125055048D01*
X80992181Y-125055049D01*
X80992184Y-125055051D01*
X81181588Y-125151557D01*
X81383757Y-125217246D01*
X81593713Y-125250500D01*
X81593714Y-125250500D01*
X81806286Y-125250500D01*
X81806287Y-125250500D01*
X82016243Y-125217246D01*
X82218412Y-125151557D01*
X82407816Y-125055051D01*
X82429789Y-125039086D01*
X82579786Y-124930109D01*
X82579788Y-124930106D01*
X82579792Y-124930104D01*
X82730104Y-124779792D01*
X82730106Y-124779788D01*
X82730109Y-124779786D01*
X82855048Y-124607820D01*
X82855047Y-124607820D01*
X82855051Y-124607816D01*
X82951557Y-124418412D01*
X83017246Y-124216243D01*
X83050500Y-124006287D01*
X83050500Y-123793713D01*
X83017246Y-123583757D01*
X82951557Y-123381588D01*
X82855051Y-123192184D01*
X82855049Y-123192181D01*
X82855048Y-123192179D01*
X82730109Y-123020213D01*
X82579786Y-122869890D01*
X82407820Y-122744951D01*
X82218414Y-122648444D01*
X82218413Y-122648443D01*
X82218412Y-122648443D01*
X82016243Y-122582754D01*
X82016241Y-122582753D01*
X82016240Y-122582753D01*
X81854957Y-122557208D01*
X81806287Y-122549500D01*
X81593713Y-122549500D01*
X81545042Y-122557208D01*
X81383760Y-122582753D01*
X81181585Y-122648444D01*
X80992179Y-122744951D01*
X80820213Y-122869890D01*
X80669890Y-123020213D01*
X80544951Y-123192179D01*
X80448444Y-123381585D01*
X80382753Y-123583760D01*
X80349500Y-123793713D01*
X72925499Y-123793713D01*
X72925499Y-123174992D01*
X72914999Y-123072203D01*
X72859814Y-122905666D01*
X72767712Y-122756344D01*
X72643656Y-122632288D01*
X72550888Y-122575069D01*
X72494336Y-122540187D01*
X72494331Y-122540185D01*
X72492862Y-122539698D01*
X72327797Y-122485001D01*
X72327795Y-122485000D01*
X72225010Y-122474500D01*
X70774998Y-122474500D01*
X70774981Y-122474501D01*
X70672203Y-122485000D01*
X70672200Y-122485001D01*
X70505668Y-122540185D01*
X70505663Y-122540187D01*
X70356342Y-122632289D01*
X70232289Y-122756342D01*
X70140187Y-122905663D01*
X70140186Y-122905666D01*
X70085001Y-123072203D01*
X70085001Y-123072204D01*
X70085000Y-123072204D01*
X70074500Y-123174983D01*
X69500500Y-123174983D01*
X69500500Y-119587805D01*
X70074500Y-119587805D01*
X70074500Y-119812194D01*
X70109599Y-120033805D01*
X70178938Y-120247206D01*
X70280805Y-120447128D01*
X70412683Y-120628644D01*
X70412687Y-120628649D01*
X70571350Y-120787312D01*
X70571355Y-120787316D01*
X70624784Y-120826134D01*
X70752875Y-120919197D01*
X70838961Y-120963060D01*
X70952793Y-121021061D01*
X70952795Y-121021061D01*
X70952798Y-121021063D01*
X71043396Y-121050500D01*
X71166194Y-121090400D01*
X71387806Y-121125500D01*
X71387811Y-121125500D01*
X71612194Y-121125500D01*
X71833805Y-121090400D01*
X72047202Y-121021063D01*
X72247125Y-120919197D01*
X72428651Y-120787311D01*
X72587311Y-120628651D01*
X72719197Y-120447125D01*
X72821063Y-120247202D01*
X72890400Y-120033805D01*
X72893182Y-120016239D01*
X72925500Y-119812194D01*
X72925500Y-119593713D01*
X80349500Y-119593713D01*
X80349500Y-119806286D01*
X80373044Y-119954941D01*
X80382754Y-120016243D01*
X80388460Y-120033805D01*
X80448444Y-120218414D01*
X80544951Y-120407820D01*
X80669890Y-120579786D01*
X80820213Y-120730109D01*
X80992179Y-120855048D01*
X80992181Y-120855049D01*
X80992184Y-120855051D01*
X81181588Y-120951557D01*
X81383757Y-121017246D01*
X81593713Y-121050500D01*
X81593714Y-121050500D01*
X81806286Y-121050500D01*
X81806287Y-121050500D01*
X82016243Y-121017246D01*
X82218412Y-120951557D01*
X82407816Y-120855051D01*
X82501046Y-120787316D01*
X82579786Y-120730109D01*
X82579788Y-120730106D01*
X82579792Y-120730104D01*
X82730104Y-120579792D01*
X82730106Y-120579788D01*
X82730109Y-120579786D01*
X82855048Y-120407820D01*
X82855047Y-120407820D01*
X82855051Y-120407816D01*
X82951557Y-120218412D01*
X83017246Y-120016243D01*
X83050500Y-119806287D01*
X83050500Y-119593713D01*
X83017246Y-119383757D01*
X82951557Y-119181588D01*
X82855051Y-118992184D01*
X82855049Y-118992181D01*
X82855048Y-118992179D01*
X82730109Y-118820213D01*
X82579786Y-118669890D01*
X82407820Y-118544951D01*
X82218414Y-118448444D01*
X82218413Y-118448443D01*
X82218412Y-118448443D01*
X82016243Y-118382754D01*
X82016241Y-118382753D01*
X82016240Y-118382753D01*
X81854957Y-118357208D01*
X81806287Y-118349500D01*
X81593713Y-118349500D01*
X81545042Y-118357208D01*
X81383760Y-118382753D01*
X81181585Y-118448444D01*
X80992179Y-118544951D01*
X80820213Y-118669890D01*
X80669890Y-118820213D01*
X80544951Y-118992179D01*
X80448444Y-119181585D01*
X80382753Y-119383760D01*
X80349500Y-119593713D01*
X72925500Y-119593713D01*
X72925500Y-119587805D01*
X72890400Y-119366194D01*
X72821061Y-119152793D01*
X72784105Y-119080264D01*
X72719197Y-118952875D01*
X72622809Y-118820208D01*
X72587316Y-118771355D01*
X72587312Y-118771350D01*
X72428649Y-118612687D01*
X72428644Y-118612683D01*
X72247128Y-118480805D01*
X72247127Y-118480804D01*
X72247125Y-118480803D01*
X72183615Y-118448443D01*
X72047206Y-118378938D01*
X71833805Y-118309599D01*
X71612194Y-118274500D01*
X71612189Y-118274500D01*
X71387811Y-118274500D01*
X71387806Y-118274500D01*
X71166194Y-118309599D01*
X70952793Y-118378938D01*
X70752871Y-118480805D01*
X70571355Y-118612683D01*
X70571350Y-118612687D01*
X70412687Y-118771350D01*
X70412683Y-118771355D01*
X70280805Y-118952871D01*
X70178938Y-119152793D01*
X70109599Y-119366194D01*
X70074500Y-119587805D01*
X69500500Y-119587805D01*
X69500500Y-106278711D01*
X70549500Y-106278711D01*
X70549500Y-106521288D01*
X70581161Y-106761785D01*
X70643947Y-106996104D01*
X70713533Y-107164098D01*
X70736776Y-107220212D01*
X70858064Y-107430289D01*
X70858066Y-107430292D01*
X70858067Y-107430293D01*
X71005733Y-107622736D01*
X71005739Y-107622743D01*
X71177256Y-107794260D01*
X71177263Y-107794266D01*
X71249246Y-107849500D01*
X71369711Y-107941936D01*
X71579788Y-108063224D01*
X71803900Y-108156054D01*
X72038211Y-108218838D01*
X72218586Y-108242584D01*
X72278711Y-108250500D01*
X72278712Y-108250500D01*
X72521289Y-108250500D01*
X72569388Y-108244167D01*
X72761789Y-108218838D01*
X72996100Y-108156054D01*
X73220212Y-108063224D01*
X73430289Y-107941936D01*
X73622738Y-107794265D01*
X73794265Y-107622738D01*
X73941936Y-107430289D01*
X74063224Y-107220212D01*
X74156054Y-106996100D01*
X74218838Y-106761789D01*
X74250500Y-106521288D01*
X74250500Y-106278712D01*
X74247645Y-106257029D01*
X74218838Y-106038214D01*
X74218838Y-106038211D01*
X74156054Y-105803900D01*
X74153678Y-105798165D01*
X74085051Y-105632483D01*
X74063224Y-105579788D01*
X73941936Y-105369711D01*
X73794265Y-105177262D01*
X73794260Y-105177256D01*
X73622743Y-105005739D01*
X73622736Y-105005733D01*
X73430293Y-104858067D01*
X73430292Y-104858066D01*
X73430289Y-104858064D01*
X73220212Y-104736776D01*
X73220205Y-104736773D01*
X72996104Y-104643947D01*
X72761785Y-104581161D01*
X72521289Y-104549500D01*
X72521288Y-104549500D01*
X72278712Y-104549500D01*
X72278711Y-104549500D01*
X72038214Y-104581161D01*
X71803895Y-104643947D01*
X71579794Y-104736773D01*
X71579785Y-104736777D01*
X71369706Y-104858067D01*
X71177263Y-105005733D01*
X71177256Y-105005739D01*
X71005739Y-105177256D01*
X71005733Y-105177263D01*
X70858067Y-105369706D01*
X70736777Y-105579785D01*
X70736773Y-105579794D01*
X70643947Y-105803895D01*
X70581161Y-106038214D01*
X70549500Y-106278711D01*
X69500500Y-106278711D01*
X69500500Y-104006959D01*
X69501280Y-103993077D01*
X69501320Y-103992717D01*
X69511458Y-103902732D01*
X69515437Y-103891362D01*
X69515351Y-103882897D01*
X69517629Y-103875684D01*
X69545353Y-103796457D01*
X69557393Y-103771453D01*
X69602046Y-103700389D01*
X69619351Y-103678690D01*
X69678690Y-103619351D01*
X69700389Y-103602046D01*
X69771453Y-103557393D01*
X69796457Y-103545353D01*
X69875668Y-103517635D01*
X69902729Y-103511459D01*
X69978753Y-103502893D01*
X69993078Y-103501280D01*
X70006960Y-103500500D01*
X70065892Y-103500500D01*
X149934108Y-103500500D01*
X149993040Y-103500500D01*
X150006922Y-103501280D01*
G37*
%TD.AperFunction*%
%TD*%
M02*
